<svg width="215" height="58" viewBox="0 0 215 58" fill="none" xmlns="http://www.w3.org/2000/svg">
<path d="M82.4785 19.427C83.0687 20.1495 83.3869 21.056 83.3775 21.9888C83.4101 22.6172 83.2987 23.2447 83.0517 23.8234C82.8047 24.4021 82.4288 24.9168 81.9526 25.3281C81.0027 26.1281 79.6422 26.5281 77.8711 26.5281H70.1172V9.89893H77.6688C79.365 9.89893 80.6745 10.2675 81.5975 11.0045C82.0605 11.3825 82.4277 11.8644 82.669 12.4112C82.9104 12.9579 83.0192 13.5539 82.9865 14.1506C83.0173 15.0539 82.7346 15.9399 82.1864 16.6585C81.6586 17.3206 80.9189 17.7809 80.0917 17.9618C81.0331 18.1588 81.8768 18.6768 82.4785 19.427ZM74.1402 16.6944H76.7743C78.1738 16.6944 78.872 16.0952 78.869 14.8967C78.869 13.7012 78.1543 13.0989 76.7294 13.0989H74.1402V16.6944ZM79.2466 21.427C79.2601 21.1641 79.2141 20.9015 79.1122 20.6587C79.0103 20.416 78.8549 20.1993 78.6577 20.0248C78.1732 19.66 77.5724 19.4843 76.9676 19.5304H74.1223V23.2697H76.9901C78.4944 23.2697 79.2466 22.6585 79.2466 21.436V21.427Z" fill="#7A5D8D"/>
<path d="M89.5039 13.1078V16.5865H95.1272V19.6247H89.5039V23.3146H95.8464V26.5371H85.5078V9.90784H95.8464V13.1078H89.5039Z" fill="#7A5D8D"/>
<path d="M102.135 9.90784V26.5371H98.0898V9.90784H102.135Z" fill="#7A5D8D"/>
<path d="M119.67 26.5371H115.624L108.881 16.3303V26.5371H104.836V9.90784H108.881L115.624 20.209V9.90784H119.67V26.5371Z" fill="#7A5D8D"/>
<path d="M135.398 11.2696C136.738 12.2768 137.639 13.7604 137.915 15.4134H133.654C133.377 14.8198 132.927 14.3234 132.364 13.9887C131.539 13.5386 130.591 13.3685 129.661 13.5038C128.731 13.6392 127.87 14.0727 127.208 14.7393C126.401 15.7095 125.99 16.9487 126.058 18.209C126.058 19.7955 126.458 21.009 127.267 21.8584C128.076 22.7078 129.226 23.1258 130.714 23.1258C131.633 23.1549 132.534 22.8703 133.27 22.3188C134.005 21.7674 134.531 20.9821 134.76 20.0921H129.68V17.1797H138.127V21.1573C137.8 22.1435 137.289 23.0587 136.621 23.8539C135.895 24.7117 134.992 25.4017 133.973 25.8764C132.821 26.411 131.562 26.6768 130.292 26.6539C128.757 26.6883 127.239 26.3195 125.891 25.5842C124.652 24.8864 123.643 23.8432 122.987 22.582C122.286 21.2229 121.934 19.7109 121.963 18.182C121.935 16.6546 122.287 15.1442 122.987 13.7865C123.641 12.528 124.645 11.4854 125.878 10.7842C127.213 10.049 128.719 9.67993 130.242 9.71457C132.086 9.6478 133.899 10.1948 135.398 11.2696Z" fill="#7A5D8D"/>
<path d="M82.9716 35.2336C84.3724 36.367 85.3277 37.9588 85.6686 39.728H81.4073C81.1177 38.9962 80.613 38.3694 79.9599 37.9303C79.2732 37.4803 78.4658 37.2498 77.6449 37.2696C77.1024 37.2523 76.5632 37.36 76.069 37.5845C75.5749 37.8089 75.139 38.1441 74.7951 38.564C74.0348 39.5506 73.6522 40.7763 73.7163 42.0202C73.65 43.2615 74.0329 44.4852 74.7951 45.4674C75.141 45.884 75.5776 46.216 76.0715 46.438C76.5655 46.66 77.1037 46.7662 77.6449 46.7483C78.4653 46.7693 79.2727 46.5405 79.9599 46.0921C80.6117 45.6515 81.116 45.0251 81.4073 44.2943H85.6686C85.323 46.0617 84.3686 47.6521 82.9716 48.7887C81.4698 49.9482 79.6083 50.5432 77.7124 50.4696C76.2233 50.5002 74.7533 50.1308 73.4556 49.3999C72.2412 48.6925 71.2565 47.6501 70.6192 46.3977C69.9622 45.0247 69.6211 43.522 69.6211 41.9999C69.6211 40.4779 69.9622 38.9752 70.6192 37.6022C71.2565 36.3497 72.2412 35.3074 73.4556 34.5999C74.7525 33.8672 76.2231 33.4977 77.7124 33.5303C79.6106 33.4661 81.4714 34.0688 82.9716 35.2336Z" fill="#7A5D8D"/>
<path d="M100.104 34.5641C101.369 35.2805 102.414 36.3297 103.125 37.5978C103.853 38.9475 104.235 40.4572 104.235 41.991C104.235 43.5248 103.853 45.0346 103.125 46.3843C102.407 47.6551 101.358 48.708 100.091 49.4315C98.7894 50.1479 97.3281 50.5236 95.8427 50.5236C94.3573 50.5236 92.8961 50.1479 91.5949 49.4315C90.3263 48.7091 89.2776 47.6559 88.5608 46.3843C87.8263 45.0364 87.4414 43.526 87.4414 41.991C87.4414 40.4561 87.8263 38.9456 88.5608 37.5978C89.2781 36.33 90.327 35.2813 91.5949 34.5641C92.8992 33.8449 94.3645 33.4677 95.854 33.4677C97.3435 33.4677 98.8087 33.8449 100.113 34.5641H100.104ZM92.7007 38.4922C91.8816 39.4653 91.4652 40.7144 91.5365 41.9843C91.4693 43.2509 91.8854 44.4957 92.7007 45.4674C93.5358 46.3007 94.6674 46.7686 95.8472 46.7686C97.027 46.7686 98.1586 46.3007 98.9938 45.4674C99.8155 44.4987 100.237 43.2529 100.171 41.9843C100.233 40.7162 99.8123 39.4717 98.9938 38.5011C98.1563 37.6723 97.0256 37.2073 95.8472 37.2073C94.6689 37.2073 93.5381 37.6723 92.7007 38.5011V38.4922Z" fill="#7A5D8D"/>
<path d="M121.261 50.3572H117.238L110.496 40.1505V50.3572H106.473V33.728H110.496L117.238 44.0292V33.728H121.261V50.3572Z" fill="#7A5D8D"/>
<path d="M135.322 48.1011C134.846 48.8651 134.161 49.4766 133.348 49.8629C132.366 50.3257 131.288 50.552 130.202 50.5236C128.558 50.5976 126.935 50.1233 125.59 49.1753C124.995 48.7295 124.508 48.1554 124.166 47.4955C123.823 46.8357 123.634 46.1071 123.612 45.364H127.896C127.926 45.9247 128.165 46.4538 128.566 46.8472C128.763 47.0302 128.994 47.1725 129.246 47.2658C129.499 47.3591 129.767 47.4017 130.036 47.391C130.487 47.409 130.926 47.2474 131.258 46.9416C131.409 46.796 131.527 46.6202 131.604 46.4258C131.682 46.2313 131.717 46.0226 131.708 45.8135C131.713 45.6187 131.68 45.4248 131.608 45.2433C131.537 45.0619 131.431 44.8966 131.294 44.7573C131.001 44.4605 130.653 44.2239 130.269 44.0607C129.865 43.8809 129.298 43.6651 128.579 43.4135C127.685 43.1252 126.811 42.7769 125.963 42.3708C125.277 42.0161 124.687 41.4993 124.246 40.8651C123.772 40.0857 123.525 39.19 123.531 38.278C123.538 37.3661 123.798 36.4738 124.282 35.7011C124.807 34.9642 125.528 34.3896 126.363 34.0427C127.329 33.6446 128.366 33.4488 129.411 33.4674C131.263 33.4674 132.734 33.9063 133.825 34.7842C134.367 35.2266 134.811 35.7773 135.129 36.4011C135.446 37.0248 135.63 37.7079 135.668 38.4067H131.357C131.308 37.9181 131.097 37.4597 130.759 37.1033C130.585 36.9387 130.38 36.8111 130.155 36.7285C129.93 36.6458 129.691 36.6097 129.451 36.6224C129.038 36.6049 128.633 36.7374 128.31 36.9955C128.041 37.278 127.887 37.6507 127.878 38.0407C127.87 38.4307 128.008 38.8097 128.265 39.1033C128.541 39.3908 128.873 39.6188 129.24 39.773C129.631 39.9438 130.197 40.164 130.935 40.4292C131.831 40.7212 132.704 41.0803 133.546 41.5033C134.24 41.8724 134.836 42.4007 135.286 43.0449C135.804 43.8228 136.06 44.7452 136.019 45.6786C136.018 46.5355 135.777 47.3749 135.322 48.1011Z" fill="#7A5D8D"/>
<path d="M142.25 33.728V50.3572H138.227V33.728H142.25Z" fill="#7A5D8D"/>
<path d="M156.305 48.1011C155.83 48.8651 155.145 49.4766 154.332 49.8629C153.349 50.3257 152.272 50.552 151.185 50.5236C149.541 50.5976 147.919 50.1233 146.574 49.1753C145.979 48.7295 145.492 48.1554 145.149 47.4955C144.807 46.8357 144.618 46.1071 144.596 45.364H148.884C148.914 45.9247 149.153 46.4538 149.554 46.8472C149.751 47.0302 149.982 47.1725 150.234 47.2658C150.487 47.3591 150.755 47.4017 151.024 47.391C151.475 47.409 151.914 47.2474 152.246 46.9416C152.397 46.796 152.515 46.6202 152.592 46.4258C152.67 46.2313 152.705 46.0226 152.696 45.8135C152.701 45.6187 152.668 45.4248 152.596 45.2433C152.525 45.0619 152.419 44.8966 152.282 44.7573C151.989 44.4605 151.641 44.2239 151.257 44.0607C150.848 43.8809 150.286 43.6651 149.563 43.4135C148.681 43.1232 147.821 42.7733 146.987 42.3663C146.3 42.0128 145.71 41.4958 145.27 40.8607C144.792 40.0845 144.54 39.19 144.543 38.2783C144.546 37.3666 144.804 36.4739 145.288 35.7011C145.813 34.9642 146.534 34.3896 147.369 34.0427C148.335 33.6446 149.372 33.4488 150.417 33.4674C152.269 33.4674 153.739 33.9063 154.826 34.7842C155.37 35.2256 155.816 35.776 156.134 36.3999C156.452 37.0238 156.636 37.7074 156.674 38.4067H152.323C152.27 37.9181 152.058 37.4603 151.72 37.1033C151.547 36.9384 151.343 36.8106 151.118 36.7279C150.894 36.6452 150.655 36.6093 150.417 36.6224C150.004 36.6041 149.598 36.7367 149.275 36.9955C149.122 37.1344 149.002 37.3058 148.925 37.4972C148.847 37.6885 148.813 37.8949 148.826 38.1011C148.821 38.2857 148.854 38.4693 148.921 38.6413C148.988 38.8134 149.088 38.9704 149.217 39.1033C149.493 39.3908 149.825 39.6188 150.192 39.773C150.583 39.9438 151.15 40.164 151.887 40.4292C152.783 40.7212 153.656 41.0803 154.498 41.5033C155.192 41.8724 155.788 42.4007 156.238 43.0449C156.754 43.8233 157.009 44.7457 156.966 45.6786C156.977 46.532 156.748 47.3712 156.305 48.1011Z" fill="#7A5D8D"/>
<path d="M171.168 33.728V36.928H166.65V50.3572H162.605V36.928H158.137V33.728H171.168Z" fill="#7A5D8D"/>
<path d="M176.885 36.928V40.4067H182.503V43.4449H176.885V47.1348H183.214V50.3572H172.875V33.728H183.214V36.928H176.885Z" fill="#7A5D8D"/>
<path d="M200.269 50.3572H196.246L189.504 40.1505V50.3572H185.48V33.728H189.504L196.246 44.0292V33.728H200.269V50.3572Z" fill="#7A5D8D"/>
<path d="M214.998 33.728V36.928H210.467V50.3572H206.422V36.928H201.949V33.728H214.998Z" fill="#7A5D8D"/>
<path d="M29.004 57C44.4703 57 57.0081 44.464 57.0081 29C57.0081 13.536 44.4703 1 29.004 1C13.5378 1 1 13.536 1 29C1 44.464 13.5378 57 29.004 57Z" stroke="#41C1CC" stroke-width="2" stroke-miterlimit="10"/>
<mask id="mask0_1207_70" style="mask-type:luminance" maskUnits="userSpaceOnUse" x="3" y="3" width="52" height="52">
<path d="M29.0061 54.3618C43.015 54.3618 54.3716 43.0069 54.3716 29C54.3716 14.993 43.015 3.63818 29.0061 3.63818C14.9971 3.63818 3.64062 14.993 3.64062 29C3.64062 43.0069 14.9971 54.3618 29.0061 54.3618Z" fill="white"/>
</mask>
<g mask="url(#mask0_1207_70)">
<path d="M29.4375 40.1549C29.7387 40.4965 30.0489 40.8516 30.3365 41.1887C30.9601 42.1502 31.4062 43.2158 31.6536 44.3347C31.7615 44.7033 31.8738 45.0853 31.9952 45.4628C32.9834 48.6654 33.7952 51.9197 34.427 55.2111C34.7731 56.8471 35.1327 58.537 35.5283 60.1549L36.0452 60.0291C35.6497 58.3976 35.2946 56.7078 34.9484 55.0853C34.3127 51.7757 33.4964 48.5034 32.5031 45.283C32.3818 44.9145 32.2694 44.537 32.166 44.1729C31.8989 42.9942 31.4207 41.8736 30.7546 40.8651C30.4579 40.51 30.1432 40.1504 29.8556 39.8044C29.6128 39.5347 29.3701 39.2561 29.1319 38.9774C29.015 39.1122 28.8981 39.2516 28.7812 39.3819C28.9835 39.6516 29.2128 39.8988 29.4375 40.1549Z" fill="#41C1CC"/>
<path d="M21.7914 22.8698C21.7033 22.5079 21.6865 22.1323 21.742 21.764C21.8028 21.7346 21.8601 21.6984 21.9128 21.6561C22.772 22.7506 23.5246 23.9246 24.1603 25.1623C24.2637 24.9825 24.3671 24.8027 24.475 24.6229C23.8146 23.3673 23.0284 22.182 22.1286 21.0853L21.9083 20.8201L21.706 21.1033C21.6482 21.1905 21.5651 21.258 21.4678 21.2965L21.306 21.328L21.261 21.4853C21.137 21.9796 21.137 22.4969 21.261 22.9912V23.0496C21.8544 24.461 22.3713 25.877 22.8657 27.2659C22.9871 27.0727 23.104 26.8749 23.2209 26.6771C22.8028 25.423 22.3308 24.1464 21.7914 22.8698Z" fill="#41C1CC"/>
<path d="M51.7956 66.3617C51.7147 66.1684 51.4675 66.101 51.1978 66.1999C51.1457 66.2199 51.0959 66.2455 51.0494 66.2763C50.2133 64.6313 49.3773 63.1302 48.4962 61.5302C48.0872 60.7886 47.6736 60.0471 47.2646 59.283C46.5139 57.674 45.7048 56.1055 44.9182 54.5909C44.1316 53.0763 43.3314 51.5212 42.5898 49.9347C42.1403 48.8516 41.6368 47.7864 41.1469 46.7527C39.8298 43.9752 38.5847 41.3594 38.2071 38.2943C38.1894 37.2795 38.315 36.2672 38.5802 35.2875C38.8551 34.2621 38.9837 33.2029 38.9623 32.1415C38.8229 30.0156 38.7465 28.2403 39.0791 26.4066C39.1355 26.1153 39.1122 25.8141 39.0118 25.5349C38.9113 25.2557 38.7374 25.0088 38.5083 24.8201H38.4723H38.4319C37.816 24.6403 37.3261 25.0044 36.8901 25.328H36.8586L36.8316 25.3639C36.6014 25.7785 36.4304 26.2233 36.3237 26.6853V26.7392C36.2526 27.5122 36.102 28.2758 35.8742 29.0179C35.5416 28.483 35.2179 27.9527 34.8943 27.4134V27.4808L34.6875 28.0606C35.0381 28.6403 35.3932 29.2201 35.7618 29.7954L36.0765 30.2853L36.2428 29.728C36.5592 28.779 36.7775 27.8001 36.8946 26.8066C36.9874 26.424 37.1231 26.0531 37.2991 25.701C37.6497 25.4403 37.9599 25.2246 38.2925 25.2965C38.4211 25.4239 38.5179 25.5798 38.5749 25.7516C38.6319 25.9234 38.6476 26.1063 38.6207 26.2853V26.3122C38.27 28.2089 38.351 30.0201 38.4903 32.1909C38.508 33.2042 38.3824 34.215 38.1172 35.1931C37.843 36.2264 37.7144 37.2929 37.7351 38.3617C38.1262 41.5077 39.4477 44.3032 40.7243 46.9954C41.2098 48.0246 41.7132 49.0853 42.1627 50.1414C42.9134 51.7504 43.7225 53.3145 44.5046 54.8291C45.2868 56.3437 46.0959 57.9032 46.8466 59.5167C47.2646 60.2808 47.6781 61.0268 48.0872 61.7639C49.0491 63.5032 49.9616 65.1437 50.8741 66.9684L50.9955 67.2066L51.2292 67.0898C51.4045 66.9954 51.9529 66.7257 51.7956 66.3617Z" fill="#41C1CC"/>
<path d="M24.946 23.7865C24.8336 23.4674 24.7257 23.1528 24.6089 22.8292C24.0155 21.1348 23.3997 19.3775 22.712 17.6292C22.6688 17.321 22.7222 17.007 22.8648 16.7303L23.0311 16.7034C24.1739 18.4167 25.1365 20.2437 25.9034 22.155L26.317 21.4629C25.4642 19.4542 24.7405 17.3931 24.1504 15.2921C24.1514 15.2456 24.1665 15.2004 24.1938 15.1627C24.2211 15.1249 24.2593 15.0964 24.3032 15.0809C24.3929 15.0807 24.4805 15.1073 24.5549 15.1573C25.5933 16.7618 26.5282 18.4112 27.4273 20.0427C27.5072 19.9618 27.5822 19.8763 27.652 19.7865L27.9172 19.2876C27.3598 18.1461 26.8204 16.9955 26.3305 15.818C26.3277 15.7521 26.3384 15.6863 26.3619 15.6247C27.2513 16.2974 27.992 17.1466 28.5375 18.1191L28.8342 17.5843C28.2599 16.6244 27.495 15.7923 26.5867 15.1393C26.516 15.0885 26.432 15.0594 26.345 15.0554C26.2581 15.0514 26.1718 15.0727 26.0967 15.1168C25.9836 15.217 25.8975 15.344 25.8464 15.4862C25.7954 15.6283 25.781 15.7811 25.8045 15.9303V15.9887C25.8944 16.2045 25.9888 16.4382 26.0832 16.6359C25.7176 16.0367 25.3401 15.4374 24.9505 14.8382L24.9235 14.7932L24.8831 14.7618C24.6828 14.6207 24.4396 14.5539 24.1953 14.573C24.019 14.6166 23.8645 14.7225 23.7603 14.8713C23.6562 15.02 23.6095 15.2015 23.629 15.382C23.8447 16.182 24.0785 16.9685 24.3482 17.7416C24.0425 17.2202 23.7189 16.7123 23.3637 16.2135L23.2649 16.0786L22.5412 16.2045L22.4782 16.2989C22.2109 16.7125 22.1068 17.2106 22.186 17.6966V17.7505C22.8783 19.5123 23.4941 21.2696 24.0919 22.9685C24.2538 23.418 24.4156 23.8944 24.5774 24.3528L24.6313 24.2629L24.946 23.7865Z" fill="#41C1CC"/>
<path d="M32.9522 25.2067C33.0466 25.0224 33.141 24.8336 33.2398 24.6493L33.1679 24.5234C33.087 24.7392 33.0106 24.9729 32.9297 25.1752L32.9522 25.2067Z" fill="#41C1CC"/>
<path d="M31.6061 27.0224C30.761 25.4357 31.6061 26.991 31.6061 27.0224V27.0224Z" fill="#EAA787"/>
<path d="M30.8438 29.7234C30.8842 29.647 30.9516 29.4807 31.0101 29.3279C30.9561 29.4582 30.9022 29.5931 30.8438 29.7234Z" fill="#41C1CC"/>
<path d="M29.0703 27.6878L29.2007 27.98C29.6502 27.1844 30.0502 26.3618 30.4278 25.5212L30.2705 25.238C29.8974 26.0741 29.5018 26.8922 29.0703 27.6878Z" fill="#41C1CC"/>
<path d="M30.8438 29.7236C30.9022 29.5933 30.9561 29.4584 31.0101 29.3281C31.1449 28.9774 31.2348 28.6898 30.8438 29.7236Z" fill="#41C1CC"/>
<path d="M26.9347 21.4674C27.1298 21.1346 27.372 20.8318 27.6539 20.5684L27.6943 20.528L27.564 20.2808C27.227 20.5895 26.9363 20.9453 26.7009 21.3371C26.611 21.4809 26.5346 21.6203 26.4492 21.7866C26.4897 21.89 26.5301 21.9934 26.5751 22.0923C26.6964 21.872 26.8088 21.6742 26.9347 21.4674Z" fill="#41C1CC"/>
<path d="M26.4056 26.4653C26.6439 26.0158 26.8866 25.5303 27.1293 25.0628L26.9945 24.7482L26.1719 26.3394L26.6214 26.6181C26.8506 26.236 27.0709 25.8539 27.2956 25.4674L27.1608 25.1662C26.9181 25.5887 26.6663 26.0248 26.4056 26.4653Z" fill="#41C1CC"/>
<path d="M26.4062 26.4652C26.4062 26.4337 27.2513 24.874 26.4062 26.4652C26.667 26.0157 26.9187 25.5887 27.1704 25.1481L27.13 25.0627C26.8872 25.5302 26.6445 25.9932 26.4062 26.4652Z" fill="#41C1CC"/>
<path d="M29.0104 21.4764C29.2352 21.0269 29.4599 20.6179 29.6712 20.1864L29.5184 19.8987C29.3206 20.3257 29.0824 20.7752 28.8711 21.1843L29.0104 21.4764Z" fill="#41C1CC"/>
<path d="M28.4833 21.9796V21.9526L27.6202 23.5933L27.418 23.9799L27.5573 24.2901L28.6361 22.2358L28.4833 21.9796Z" fill="#41C1CC"/>
<path d="M24.149 25.1616L23.25 26.6764L23.3669 27.0001C23.677 26.4832 23.9827 25.9617 24.2884 25.4358L24.149 25.1616Z" fill="#41C1CC"/>
<path d="M30.7433 24.8205C31.004 24.2227 31.2557 23.6293 31.5029 23.0225L31.5704 22.8607L31.3995 22.573C31.1298 23.2203 30.8586 23.8631 30.5859 24.5014C30.6399 24.6003 30.6938 24.6991 30.7433 24.8205Z" fill="#41C1CC"/>
<path d="M28.6202 22.2358L27.5234 24.2901L27.5729 24.4069C27.9505 23.7327 28.3191 23.0584 28.6832 22.3887L28.6202 22.2358Z" fill="#41C1CC"/>
<path d="M29.246 21.9394L29.5292 21.4224L29.9337 20.6718C29.9356 20.6644 29.9356 20.6567 29.9337 20.6493V20.6178L29.7674 20.3976L29.0977 21.6742L29.246 21.9394Z" fill="#41C1CC"/>
<path d="M29.1034 21.6743L29.7731 20.3977L29.6608 20.1864C29.445 20.6359 29.2113 21.0494 29 21.4765C29.045 21.5349 29.0764 21.5978 29.1034 21.6743Z" fill="#41C1CC"/>
<path d="M28.7001 22.3887C28.336 23.0629 27.9674 23.7372 27.5898 24.4069L27.7247 24.7081C28.1113 24.0294 28.4888 23.3596 28.8529 22.6719C28.8035 22.573 28.7541 22.4831 28.7001 22.3887Z" fill="#41C1CC"/>
<path d="M30.4028 24.1551L30.4972 24.3259C30.7759 23.6996 31.0516 23.0733 31.3243 22.447C31.2703 22.3526 31.2164 22.2582 31.1579 22.1638C30.8882 22.7886 30.614 23.4134 30.3398 24.0248C30.3623 24.0697 30.3848 24.1102 30.4028 24.1551Z" fill="#41C1CC"/>
<path d="M30.0027 24.7706L29.6745 25.5033C29.4138 26.0832 29.1441 26.6765 28.8789 27.2699L29.0272 27.598C29.4048 26.7484 29.7869 25.9034 30.1645 25.0583L30.0027 24.7706Z" fill="#41C1CC"/>
<path d="M30.5899 24.5013C30.8656 23.863 31.1368 23.2202 31.4035 22.5729L31.3271 22.447C31.0514 23.0763 30.7757 23.7026 30.5 24.3259C30.527 24.3709 30.5584 24.4428 30.5899 24.5013Z" fill="#41C1CC"/>
<path d="M29.0273 27.598L29.0678 27.6879C29.5173 26.8923 29.8949 26.0742 30.268 25.2382L30.1646 25.0583C29.769 25.9034 29.4049 26.7485 29.0273 27.598Z" fill="#41C1CC"/>
<path d="M28.6964 28.3393C28.6425 28.2404 28.5841 28.146 28.5346 28.0426L28.4492 28.2449L28.7189 28.3797L28.6964 28.3393Z" fill="#41C1CC"/>
<path d="M26.6985 21.3417C26.9339 20.9499 27.2245 20.5941 27.5615 20.2853L27.4267 20.0426L27.2738 20.1999C26.957 20.5004 26.6859 20.8457 26.4692 21.2248C26.4198 21.3102 26.3703 21.3956 26.3164 21.481C26.3614 21.5844 26.4018 21.6878 26.4468 21.7867C26.5322 21.6249 26.6221 21.4855 26.6985 21.3417Z" fill="#41C1CC"/>
<path d="M26.1728 22.7616C26.1278 22.6627 26.0874 22.5593 26.0424 22.4604C25.7233 23.0223 25.3772 23.5707 25.0625 24.1146C25.103 24.2225 25.1389 24.3349 25.1794 24.4428C25.4985 23.8944 25.8267 23.3325 26.1728 22.7616Z" fill="#41C1CC"/>
<path d="M28.6968 18.3842C28.6473 18.2943 28.5934 18.2044 28.5395 18.119C28.3911 18.3887 28.2473 18.6674 28.09 18.9461L27.9102 19.2877L28.054 19.5844L28.6968 18.3842Z" fill="#41C1CC"/>
<path d="M25.9028 22.155L24.9453 23.7867C24.9858 23.8946 25.0217 24.007 25.0622 24.1149C25.3768 23.571 25.705 23.0181 26.0331 22.4607C25.9927 22.3573 25.9477 22.2584 25.9028 22.155Z" fill="#41C1CC"/>
<path d="M24.7127 24.7168C24.6722 24.6089 24.6362 24.4966 24.5958 24.3887L24.4609 24.6224L24.6093 24.8966L24.7127 24.7168Z" fill="#41C1CC"/>
<path d="M31.6521 15.0674C31.6752 15.1276 31.6859 15.1918 31.6835 15.2562C31.1082 16.6362 30.4744 17.9892 29.8136 19.3018L29.917 19.4951L29.9709 19.5939C30.6677 18.196 31.3194 16.7756 31.9442 15.3147C31.9847 15.0899 31.8409 14.6 31.5757 14.7843C30.495 15.5876 29.6137 16.6288 29 17.8274L29.1528 18.0926C29.7489 16.9098 30.603 15.876 31.6521 15.0674Z" fill="#41C1CC"/>
<path d="M28.2063 19.8765L28.5704 19.1887L28.8536 18.6493C28.8042 18.5594 28.7502 18.4695 28.6963 18.3796L28.0625 19.5843C28.1075 19.6832 28.1569 19.7866 28.2063 19.8765Z" fill="#41C1CC"/>
<path d="M36.5123 20.9999C36.3461 20.9457 36.2023 20.8383 36.1033 20.6942C35.0506 21.9985 34.1461 23.4156 33.4062 24.9195C33.4602 25.0139 33.5141 25.0993 33.5636 25.1937C34.27 23.7443 35.1225 22.3707 36.1078 21.0943C36.1579 21.1379 36.2138 21.1742 36.2741 21.2022C36.3317 21.5718 36.3149 21.9493 36.2246 22.3124C35.5908 23.8228 35.0424 25.3421 34.5165 26.8075L34.6963 27.1041C35.2492 25.5399 35.8111 23.9576 36.4943 22.3754C36.6085 21.9247 36.6147 21.4534 36.5123 20.9999Z" fill="#41C1CC"/>
<path d="M30.5433 36.0561C30.0605 36.9525 29.4686 37.7858 28.7812 38.537L28.9521 38.7437C29.6692 37.9684 30.284 37.1045 30.7815 36.1729C32.4132 33.4763 33.4426 30.6269 34.463 27.7415L34.2652 27.4718C33.2178 30.4651 32.202 33.2965 30.5433 36.0561Z" fill="#41C1CC"/>
<path d="M33.3995 24.919C34.1393 23.4153 35.0439 21.9984 36.0965 20.6943C36.1956 20.8383 36.3394 20.9458 36.5056 20.9999C36.616 21.4563 36.616 21.9323 36.5056 22.3887C35.8313 23.9752 35.2694 25.5347 34.7076 27.1168L34.8829 27.4089C35.4537 25.7999 36.0426 24.137 36.7393 22.4921V22.4336C36.8619 21.9377 36.8619 21.4194 36.7393 20.9235L36.6989 20.7752L36.537 20.7482C36.4401 20.7068 36.3574 20.6381 36.2988 20.5505L36.101 20.2673L35.8808 20.5325C34.8528 21.807 33.9679 23.1906 33.2422 24.6583L33.3636 24.8696L33.3995 24.919Z" fill="#41C1CC"/>
<path d="M24.8257 25.0448C24.7853 24.9324 24.7493 24.8246 24.7089 24.7167L24.6055 24.8965L24.7493 25.1752C24.7808 25.1302 24.8257 25.0853 24.8257 25.0448Z" fill="#41C1CC"/>
<path d="M24.2887 25.4358C23.983 25.9617 23.6773 26.4831 23.3672 27.0001L23.4796 27.3237C23.8002 26.7933 24.1194 26.2584 24.437 25.719L24.2887 25.4358Z" fill="#41C1CC"/>
<path d="M31.5689 14.7976C31.8341 14.6133 31.978 15.1032 31.9375 15.3279C31.3262 16.7886 30.6609 18.2088 29.9642 19.6066L30.0856 19.8358C31.079 18.0111 32.0993 16.1953 33.2591 14.4021C33.4021 14.3016 33.5743 14.2511 33.749 14.2583C33.8643 14.2869 33.9653 14.3565 34.0331 14.4541C34.1009 14.5517 34.1309 14.6705 34.1176 14.7886C33.4302 17.1961 32.5786 19.5537 31.5689 21.8448C31.5959 21.8852 31.6184 21.9257 31.6408 21.9661C32.4852 19.8093 33.5645 17.7519 34.8593 15.8313L35.3088 15.9122C35.534 16.2707 35.6233 16.698 35.5605 17.1167C34.6165 19.5347 33.8164 21.8987 32.9938 24.2223L33.1691 24.5234C33.4119 23.8403 33.6561 23.1482 33.9018 22.447C34.4997 20.7482 35.1155 18.9864 35.8077 17.2246V17.1751C35.8843 16.6877 35.7804 16.1892 35.5156 15.7729L35.4526 15.683L34.7289 15.5526L34.63 15.692C34.2749 16.1908 33.9513 16.6987 33.6456 17.2201C33.9063 16.4425 34.1446 15.6605 34.3648 14.856C34.3992 14.6701 34.3617 14.478 34.2599 14.3187C34.1581 14.1593 33.9996 14.0446 33.8164 13.9976C33.5719 13.9753 33.3276 14.0424 33.1287 14.1864L33.0882 14.2133L33.0568 14.2583C32.6702 14.8575 32.2941 15.4568 31.9285 16.056C32.0229 15.8448 32.1128 15.6291 32.2027 15.4088V15.3549C32.2263 15.2057 32.2119 15.0529 32.1608 14.9107C32.1098 14.7686 32.0237 14.6415 31.9105 14.5414C31.8376 14.494 31.7525 14.4688 31.6656 14.4688C31.5786 14.4688 31.4935 14.494 31.4206 14.5414C30.3427 15.3353 29.459 16.3634 28.8359 17.5482L28.9978 17.8043C29.6147 16.6194 30.4941 15.591 31.5689 14.7976Z" fill="#41C1CC"/>
<path d="M22.0786 29.0898C21.7607 28.1507 21.5437 27.1804 21.4313 26.1954C21.3312 25.7623 21.1724 25.345 20.9593 24.9549C20.5503 24.6493 20.1412 24.3437 19.6513 24.5055C19.4693 24.6658 19.3322 24.8706 19.2534 25.0999C19.1746 25.3292 19.1568 25.5751 19.2018 25.8134C19.5569 27.728 19.458 29.5662 19.3231 31.6246C19.1883 33.683 20.2221 35.7235 20.0828 37.7819C19.5479 42.0875 17.2959 45.6246 15.6777 49.5077C14.1808 52.7167 12.4997 55.6561 11.0028 58.865C9.62284 61.3999 8.3058 63.71 6.95729 66.3302C5.73914 65.7325 7.14159 65.728 6.95729 66.3302C8.26984 63.71 9.60936 61.3864 11.0028 58.865C12.4997 55.6561 14.1808 52.7167 15.6777 49.5077C17.2959 45.6246 19.5479 42.0875 20.0828 37.7819C20.2176 35.7235 19.1838 33.6875 19.3231 31.6246C19.4625 29.5617 19.5569 27.728 19.2018 25.8134C19.1568 25.5751 19.1746 25.3292 19.2534 25.0999C19.3322 24.8706 19.4693 24.6658 19.6513 24.5055C20.1412 24.3617 20.5503 24.6673 20.9593 24.9549C21.1724 25.345 21.3312 25.7623 21.4313 26.1954C21.5437 27.1804 21.7607 28.1507 22.0786 29.0898C22.3977 28.5909 22.7034 28.0875 23.009 27.5841C22.9731 27.4808 22.9371 27.3729 22.8967 27.265C22.6584 27.665 22.4157 28.0561 22.1685 28.4516C21.9412 27.7109 21.7905 26.9488 21.719 26.1774V26.119C21.6016 25.6626 21.42 25.2253 21.1796 24.8201L21.1526 24.7841L21.1166 24.7572C20.6671 24.4336 20.2176 24.0695 19.5748 24.2538H19.5344L19.4984 24.2808C19.2712 24.4709 19.0986 24.718 18.9983 24.9968C18.898 25.2756 18.8736 25.576 18.9276 25.8673C19.2647 27.701 19.1838 29.4628 19.0444 31.6021C19.0267 32.6637 19.1568 33.7225 19.431 34.7482C19.6929 35.7224 19.8184 36.7282 19.8041 37.7369C19.422 40.8066 18.1814 43.4313 16.8643 46.2089C16.3744 47.2426 15.8709 48.3122 15.4259 49.3819C14.6753 50.9819 13.8706 52.528 13.0885 54.0516C12.3064 55.5752 11.4973 57.1302 10.7556 58.7257C10.3376 59.4898 9.92401 60.2358 9.51496 60.9729C8.61596 62.5639 7.79786 64.074 6.96178 65.719C6.91354 65.6896 6.8623 65.6655 6.80895 65.6471C6.54375 65.5482 6.29652 65.6156 6.21561 65.8089C6.05828 66.1729 6.60218 66.4426 6.83592 66.5549L7.07416 66.6763L7.19103 66.4381C8.09004 64.6134 9.02051 62.9684 9.98245 61.2291C10.3915 60.492 10.805 59.7459 11.2276 58.9819C11.9737 57.3819 12.7829 55.8358 13.5605 54.3122C14.3381 52.7886 15.1562 51.2336 15.9114 49.6156C16.3609 48.5459 16.8598 47.4808 17.3453 46.4695C18.6219 43.7729 19.9389 40.9909 20.3345 37.8178C20.3522 36.7563 20.2221 35.6975 19.9479 34.6718C19.6849 33.6916 19.5594 32.6797 19.5748 31.665C19.7187 29.4987 19.7996 27.6875 19.449 25.7864V25.719C19.4228 25.54 19.4388 25.3574 19.4957 25.1857C19.5527 25.014 19.6491 24.858 19.7771 24.7302C20.1098 24.6583 20.4199 24.8785 20.766 25.1392C20.9445 25.4907 21.0818 25.8617 21.1751 26.2448C21.2899 27.2387 21.5083 28.2178 21.8269 29.1662L21.9887 29.7235L22.3033 29.2336C22.5865 28.7841 22.8607 28.3347 23.1304 27.9122C23.0945 27.8044 23.054 27.692 23.0135 27.5841C22.7034 28.0875 22.3977 28.5909 22.0786 29.0898Z" fill="#41C1CC"/>
<path d="M27.4627 40.4695C26.5637 41.6965 26.267 43.2695 25.7636 44.8021C24.1948 49.5662 23.4037 54.6628 22.2305 59.5347L22.4867 59.5976C22.8822 57.9617 23.2374 56.2673 23.5835 54.6538C24.2206 51.3635 25.0323 48.1095 26.0153 44.9055C26.1411 44.528 26.2535 44.1504 26.3614 43.7774C26.6086 42.6704 27.0499 41.6159 27.665 40.6628C27.9571 40.3122 28.2718 39.9572 28.564 39.6156L28.7528 39.3999L28.5775 39.1976C28.2089 39.6066 27.8268 40.0381 27.4627 40.4695Z" fill="#41C1CC"/>
<path d="M30.8438 29.7242C31.6978 28.3757 32.3855 26.9193 33.0913 25.4809L32.9339 25.2067L32.8261 25.4134C32.8575 25.337 32.8845 25.2561 32.9115 25.1752L32.916 25.1258L32.7721 24.8785C32.2282 26.3754 31.6618 27.8587 31.0236 29.3286C30.9516 29.4815 30.8842 29.6478 30.8438 29.7242Z" fill="#41C1CC"/>
<path d="M33.4566 14.5954C33.5315 14.5501 33.6164 14.5239 33.7038 14.519C33.749 14.5346 33.7882 14.5637 33.8164 14.6022C33.8445 14.6408 33.8601 14.687 33.8612 14.7348C33.2005 17.0643 32.3835 19.3466 31.4159 21.5662C31.4608 21.6336 31.5058 21.7011 31.5462 21.773L31.5867 21.8449C32.5918 19.5534 33.4388 17.1958 34.1219 14.7887C34.1352 14.6706 34.1052 14.5518 34.0374 14.4542C33.9696 14.3566 33.8686 14.287 33.7533 14.2584C33.5786 14.2512 33.4064 14.3017 33.2633 14.4022C32.1036 16.1999 31.0832 17.9977 30.0898 19.8359L30.2382 20.119C31.2406 18.2763 32.2834 16.4112 33.4566 14.5954Z" fill="#41C1CC"/>
<path d="M27.465 40.4695C27.8291 40.0201 28.2112 39.6066 28.5888 39.1751L28.4224 38.9684L28.1797 39.2425C27.8785 39.5886 27.5594 39.9437 27.2537 40.3122C26.5941 41.3177 26.1206 42.4336 25.8558 43.6066C25.7524 43.9706 25.64 44.3482 25.5186 44.7167C24.5259 47.9387 23.7096 51.2125 23.0733 54.5234C22.7272 56.1549 22.3676 57.8448 21.9766 59.4673L22.2373 59.5257C23.4105 54.6538 24.2016 49.5571 25.7704 44.7931C26.2693 43.2695 26.5525 41.6965 27.465 40.4695Z" fill="#41C1CC"/>
<path d="M30.7709 36.1953C30.2724 37.1221 29.6576 37.9815 28.9414 38.7526L29.1122 38.9594C29.8524 38.1589 30.4883 37.2679 31.0046 36.3077C32.6094 33.611 33.6162 30.9144 34.6321 28.0425L34.4523 27.7504C33.4319 30.6627 32.4026 33.4762 30.7709 36.1953Z" fill="#41C1CC"/>
<path d="M31.7697 26.7619C31.7697 26.8113 31.8191 26.8563 31.8416 26.9012L31.6978 26.9777C31.4595 27.5845 31.2213 28.1868 30.9651 28.7757C30.8082 29.0369 30.6873 29.3182 30.6055 29.6117L31.055 29.8455C31.7697 28.7082 32.3765 27.4991 32.9609 26.3259L33.2575 25.737L33.0957 25.4628C32.372 26.9012 31.6843 28.3441 30.8482 29.7061C31.2393 28.6723 31.1494 28.96 31.0145 29.3106C31.6528 27.8407 32.2192 26.3573 32.7631 24.8605C32.7046 24.7616 32.6417 24.6582 32.5878 24.5593C32.3181 25.31 32.0484 26.0427 31.7697 26.7619Z" fill="#41C1CC"/>
<path d="M34.9781 16.1369L35.1444 16.1683C35.287 16.445 35.3404 16.759 35.2972 17.0672C34.6095 18.829 33.9937 20.5818 33.3958 22.2807C33.2025 22.838 33.0093 23.3863 32.816 23.9346L32.9913 24.2312C33.8139 21.8987 34.614 19.5346 35.5579 17.1301C35.6207 16.7114 35.5314 16.2841 35.3062 15.9256L34.8567 15.8447C33.569 17.7619 32.4958 19.8146 31.6562 21.9661L31.8271 22.2492C32.6576 20.1058 33.7139 18.0568 34.9781 16.1369Z" fill="#41C1CC"/>
<path d="M23.3704 26.9999L23.2535 26.6763C23.1367 26.8741 23.0198 27.0718 22.8984 27.2651C22.9389 27.373 22.9749 27.4809 23.0108 27.5843C23.1322 27.391 23.2535 27.1977 23.3704 26.9999Z" fill="#41C1CC"/>
<path d="M27.1328 25.0629L27.1733 25.1483L27.5913 24.4067L27.5239 24.2898C27.407 24.546 27.2677 24.8202 27.1328 25.0629Z" fill="#41C1CC"/>
<path d="M30.1657 25.0585C30.2781 24.8158 30.386 24.5686 30.4984 24.3258L30.404 24.155C30.404 24.1101 30.3635 24.0696 30.341 24.0247L30.0039 24.7708L30.1657 25.0585Z" fill="#41C1CC"/>
<path d="M32.7617 24.8786L32.9056 25.1258L32.9325 25.1752C33.0134 24.9595 33.0899 24.7257 33.1708 24.5235L32.9955 24.2223C32.919 24.4425 32.8381 24.6583 32.7617 24.8786Z" fill="#41C1CC"/>
<path d="M28.87 22.672L29.2656 21.9393L29.0993 21.6741L28.6992 22.4068C28.7532 22.4832 28.8026 22.5731 28.87 22.672Z" fill="#41C1CC"/>
<path d="M34.8622 27.4089L34.6869 27.1167L34.4531 27.764L34.6329 28.0562L34.8397 27.4763L34.8622 27.4089Z" fill="#41C1CC"/>
<path d="M24.2923 25.4359C24.4002 25.2606 24.5035 25.0763 24.6114 24.8965L24.4631 24.6223C24.3552 24.8021 24.2518 24.9819 24.1484 25.1617L24.2923 25.4359Z" fill="#41C1CC"/>
<path d="M33.5544 25.1931C33.5049 25.0987 33.451 25.0133 33.3971 24.9189L33.1094 25.4808L33.2712 25.755L33.5544 25.1931Z" fill="#41C1CC"/>
<path d="M28.9439 38.7527L28.7731 38.5459L28.418 38.9549L28.5888 39.1617C28.7101 39.0404 28.827 38.901 28.9439 38.7527Z" fill="#41C1CC"/>
<path d="M28.6992 28.3303C28.8251 28.1191 28.9464 27.8808 29.0678 27.6876L29.0274 27.5977C28.915 27.8404 28.8071 28.0876 28.6992 28.3303Z" fill="#41C1CC"/>
<path d="M28.5859 39.1752L28.7612 39.3775C28.8781 39.2471 28.995 39.1078 29.1119 38.9729L28.941 38.7527C28.8242 38.901 28.7073 39.0404 28.5859 39.1752Z" fill="#41C1CC"/>
<path d="M28.6964 18.3842C28.7953 18.2044 28.8942 18.0201 28.9976 17.8403L28.8357 17.5841L28.5391 18.119C28.593 18.2044 28.6469 18.2943 28.6964 18.3842Z" fill="#41C1CC"/>
<path d="M28.702 22.3887L29.1021 21.6739C29.0751 21.6155 29.0436 21.5526 29.0122 21.4941L28.6211 22.2538L28.702 22.3887Z" fill="#41C1CC"/>
<path d="M25.0651 24.1145C25.0247 24.0066 24.9887 23.8943 24.9483 23.7864L24.6516 24.2988L24.5977 24.3887C24.6381 24.4966 24.6741 24.609 24.7145 24.7168L25.0651 24.1145Z" fill="#41C1CC"/>
<path d="M23.3713 26.9998C23.2545 27.1975 23.1331 27.3908 23.0117 27.5841C23.0522 27.692 23.0926 27.8044 23.1286 27.9122C23.25 27.719 23.3668 27.5212 23.4837 27.3234L23.3713 26.9998Z" fill="#41C1CC"/>
<path d="M28.6992 28.3303L28.7217 28.3707L28.924 28.4741C29.0184 28.3123 29.1038 28.1415 29.1982 27.9797L29.0678 27.6875C28.9464 27.9033 28.8251 28.119 28.6992 28.3303Z" fill="#41C1CC"/>
<path d="M27.5899 24.4066L27.1719 25.1483L27.3067 25.4495L27.7248 24.7078L27.5899 24.4066Z" fill="#41C1CC"/>
<path d="M28.6204 22.2359L29.0115 21.4763L28.8721 21.1841L28.4766 21.9527V21.9797L28.6204 22.2359Z" fill="#41C1CC"/>
<path d="M28.6997 28.3304C28.8076 28.0876 28.9155 27.8404 29.0278 27.5977L28.8705 27.2695L28.7357 27.5707C28.7357 27.5707 28.6682 27.737 28.6008 27.8898L28.5469 28.0202C28.5963 28.1236 28.6548 28.218 28.7087 28.3169C29.32 26.9099 28.7312 28.2539 28.6997 28.3304Z" fill="#41C1CC"/>
<path d="M31.4125 21.5662L31.1562 22.164C31.2147 22.2584 31.2686 22.3528 31.3226 22.4472C31.408 22.2449 31.4979 22.0471 31.5833 21.8449L31.5653 21.7729C31.5024 21.701 31.4574 21.6336 31.4125 21.5662Z" fill="#41C1CC"/>
<path d="M27.5244 24.2899L27.385 23.9797L26.9805 24.7484L27.1153 25.063C27.2682 24.8203 27.4075 24.5461 27.5244 24.2899Z" fill="#41C1CC"/>
<path d="M29.7686 20.3977C29.8675 20.2089 29.9709 20.0246 30.0743 19.8358L29.9529 19.6066L29.6562 20.1864L29.7686 20.3977Z" fill="#41C1CC"/>
<path d="M29.9005 20.618V20.6494C29.9024 20.6568 29.9024 20.6645 29.9005 20.6719L30.2196 20.119L30.0713 19.8358C29.9679 20.0246 29.8645 20.2089 29.7656 20.3977L29.9005 20.618Z" fill="#41C1CC"/>
<path d="M31.4006 22.573L31.6569 21.9662C31.6569 21.9258 31.6119 21.8853 31.5849 21.8448C31.4995 22.0471 31.4096 22.2449 31.3242 22.4472L31.4006 22.573Z" fill="#41C1CC"/>
<path d="M31.8403 26.9011C31.8403 26.8561 31.7909 26.8112 31.7684 26.7617L31.6875 26.982L31.8403 26.9011Z" fill="#41C1CC"/>
<path d="M32.5859 24.5775C32.6399 24.6764 32.7028 24.7798 32.7612 24.8787C32.8377 24.6585 32.9141 24.4292 32.995 24.2224L32.8197 23.9213C32.7433 24.1415 32.6624 24.3708 32.5859 24.5775Z" fill="#41C1CC"/>
<path d="M31.5687 22.8606C31.6541 22.6538 31.735 22.4515 31.8249 22.2493L31.6541 21.9661L31.4023 22.5729L31.5687 22.8606Z" fill="#41C1CC"/>
<path d="M30.5887 24.501C30.4853 24.7482 30.3774 24.9954 30.2695 25.2382L30.4269 25.5213C30.5347 25.2831 30.6426 25.0404 30.746 24.8021C30.6966 24.6988 30.6426 24.5999 30.5887 24.501Z" fill="#41C1CC"/>
<path d="M26.4448 21.7684L26.0312 22.4607C26.0762 22.5596 26.1167 22.6629 26.1616 22.7618C26.2965 22.5326 26.4313 22.3123 26.5707 22.0741C26.5257 21.9752 26.4852 21.8718 26.4448 21.7684Z" fill="#41C1CC"/>
<path d="M24.756 25.1752L24.6121 24.8965C24.5042 25.0763 24.4008 25.2606 24.293 25.4359L24.4413 25.7191L24.756 25.1752Z" fill="#41C1CC"/>
<path d="M25.1065 24.5685L25.1784 24.4426C25.138 24.3348 25.102 24.2224 25.0615 24.1145L24.7109 24.7168C24.7514 24.8247 24.7874 24.9326 24.8278 25.045L25.1065 24.5685Z" fill="#41C1CC"/>
<path d="M30.168 25.0584L30.2714 25.2382C30.3792 24.9954 30.4871 24.7482 30.5905 24.501C30.559 24.4426 30.5276 24.3841 30.5006 24.3257C30.3882 24.5684 30.2803 24.8201 30.168 25.0584Z" fill="#41C1CC"/>
<path d="M34.3442 27.2965C34.3442 27.355 34.2992 27.4134 34.2812 27.4718L34.4566 27.764L34.6903 27.1167L34.5105 26.8201L34.3442 27.2965Z" fill="#41C1CC"/>
<path d="M33.1099 25.4809L33.3975 24.919L33.3661 24.8606L33.2447 24.6493C33.1458 24.8336 33.0514 25.0224 32.957 25.2067L33.1099 25.4809Z" fill="#41C1CC"/>
<path d="M26.4501 21.7684C26.4052 21.6695 26.3647 21.5662 26.3198 21.4628L25.9062 22.155C25.9512 22.2584 25.9961 22.3573 26.0366 22.4607L26.4501 21.7684Z" fill="#41C1CC"/>
<path d="M29.1493 18.1055L28.9965 17.8403C28.8931 18.0201 28.7942 18.2044 28.6953 18.3842C28.7493 18.4741 28.8032 18.564 28.8526 18.6539L29.1493 18.1055Z" fill="#41C1CC"/>
<path d="M28.0884 20.0876L28.1109 20.0561L28.2053 19.8808C28.1558 19.7864 28.1064 19.683 28.0614 19.5841C27.9985 19.701 27.9401 19.8178 27.8772 19.9302C27.7811 20.0561 27.6759 20.1748 27.5625 20.2853L27.6929 20.5326C27.8357 20.3944 27.9679 20.2456 28.0884 20.0876Z" fill="#41C1CC"/>
<path d="M29.8117 19.3145C29.7173 19.5122 29.6184 19.7055 29.5195 19.8988L29.6724 20.1865L29.969 19.6066L29.9151 19.5077L29.8117 19.3145Z" fill="#41C1CC"/>
<path d="M27.8792 19.9303C27.9421 19.8179 28.0006 19.701 28.0635 19.5841L27.9196 19.2875L27.6544 19.7864C27.5847 19.8762 27.5096 19.9618 27.4297 20.0426L27.5645 20.2854C27.678 20.1749 27.7831 20.0562 27.8792 19.9303Z" fill="#41C1CC"/>
<path d="M26.4062 26.4651C26.4062 26.4337 27.2513 24.8739 26.4062 26.4651V26.4651Z" fill="#EAA787"/>
</g>
<path d="M21.8334 15.8317C21.8334 15.8317 16.4124 14.9327 16.9248 14.182C17.4372 13.4313 21.8334 15.8317 21.8334 15.8317Z" fill="#41C1CC"/>
<path d="M23.7689 10.6993C23.7689 10.6993 18.9772 8.47878 20.0515 7.9169C21.1258 7.35502 23.7689 10.6993 23.7689 10.6993Z" fill="#41C1CC"/>
<path d="M29.7693 8.29054C29.7693 8.29054 29.5041 3.01338 28.5781 3.79551C27.6521 4.57765 29.7693 8.29054 29.7693 8.29054Z" fill="#41C1CC"/>
<path d="M36.2695 8.83422C36.2695 8.83422 38.0675 4.84712 38.6789 6.33948C39.2902 7.83183 36.2695 8.83422 36.2695 8.83422Z" fill="#41C1CC"/>
<path d="M37.7109 14.6633C37.7109 14.6633 39.9854 11.7191 40.9653 12.8114C41.9453 13.9036 37.7109 14.6633 37.7109 14.6633Z" fill="#41C1CC"/>
</svg>
