<svg width="445" height="133" viewBox="0 0 445 133" fill="none" xmlns="http://www.w3.org/2000/svg">
<path d="M241.741 38.7368C237.793 38.7368 234.59 42.0395 234.59 46.1098C234.59 50.1801 237.793 53.4828 241.741 53.4828C245.689 53.4828 248.893 50.1801 248.893 46.1098C248.893 42.0395 245.689 38.7368 241.741 38.7368ZM241.741 50.6995C239.282 50.6995 237.29 48.645 237.29 46.1098C237.29 43.5746 239.282 41.5201 241.741 41.5201C244.2 41.5201 246.193 43.5746 246.193 46.1098C246.193 48.645 244.193 50.6995 241.741 50.6995Z" fill="#0075B0"/>
<path d="M238.184 51.8082L241.252 98L245.298 51.8082H238.184Z" fill="#0075B0"/>
<path d="M241.841 86.9288C238.201 86.9288 234.817 84.0137 234.027 79.9822L234.96 79.7884C235.727 83.6958 239.216 86.4249 242.736 85.8822C245.766 85.4092 248.376 82.3623 248.323 79.362C248.27 76.5477 245.856 74.5087 245.067 73.8419C244.345 73.2294 243.232 72.617 241.013 71.3998C240.773 71.268 240.547 71.1439 240.329 71.0276C238.562 70.074 237.284 69.384 236.667 67.8412C236.547 67.5388 236.344 66.9108 236.344 66.1278C236.336 63.7476 238.066 60.9566 240.863 60.6C243.157 60.3054 245.405 61.6854 246.338 63.957L245.458 64.3369C244.691 62.4684 242.848 61.3287 240.983 61.5768C238.569 61.887 237.299 64.4144 237.299 66.1278C237.299 66.748 237.456 67.2365 237.554 67.469C238.043 68.6862 239.073 69.2367 240.78 70.1593C240.998 70.2756 241.224 70.3996 241.457 70.5314C243.743 71.7874 244.886 72.4076 245.676 73.0821C246.556 73.8264 249.218 76.0748 249.278 79.3465C249.346 82.8663 246.413 86.3086 242.878 86.859C242.533 86.9056 242.187 86.9288 241.841 86.9288Z" fill="#0075B1"/>
<path d="M246.449 59.724C248.247 58.313 251.224 56.3825 255.233 55.553C258.654 54.8475 261.414 55.2429 265.964 55.9329C272.589 56.9407 273.461 58.0959 277.454 58.2122C279.958 58.282 283.673 57.9409 288.291 55.7933C286.275 57.9331 282.463 61.3366 276.755 63.2516C274.619 63.9649 271.025 65.1278 266.528 64.5773C262.52 64.0811 261.234 62.6469 256.346 61.2281C252.247 60.0496 248.743 59.7783 246.449 59.724Z" fill="#A9BEDC"/>
<g opacity="0.7">
<path d="M246.449 59.724C247.773 57.8323 250.066 55.0877 253.676 53.0952C256.752 51.3896 259.496 50.9399 264.046 50.2344C270.671 49.2033 271.829 50.0483 275.68 48.9552C278.094 48.2729 281.553 46.8231 285.358 43.3809C284.034 46.0323 281.35 50.436 276.432 53.9868C274.589 55.3126 271.483 57.5066 267.024 58.3284C263.053 59.0572 261.414 58.0726 256.338 58.1889C252.089 58.2897 248.653 59.0882 246.449 59.724Z" fill="#6497C6"/>
</g>
<path d="M246.449 59.724C247.337 57.5842 248.998 54.39 252.097 51.6222C254.736 49.2653 257.323 48.2109 261.61 46.4898C267.851 43.9934 269.167 44.5516 272.694 42.6211C274.905 41.4116 277.973 39.2176 280.959 35C280.229 37.8841 278.545 42.7917 274.499 47.3581C272.987 49.0637 270.416 51.9091 266.234 53.7155C262.512 55.3203 260.707 54.7311 255.774 55.9871C251.646 57.057 248.465 58.5998 246.449 59.724Z" fill="#0075B0"/>
<path d="M236.841 59.724C235.044 58.313 232.066 56.3825 228.058 55.553C224.636 54.8475 221.877 55.2429 217.327 55.9329C210.702 56.9407 209.83 58.0959 205.836 58.2122C203.332 58.282 199.617 57.9409 195 55.7933C197.015 57.9331 200.828 61.3366 206.536 63.2516C208.671 63.9649 212.266 65.1278 216.763 64.5773C220.771 64.0811 222.057 62.6469 226.945 61.2281C231.044 60.0496 234.548 59.7783 236.841 59.724Z" fill="#A9BEDC"/>
<g opacity="0.7">
<path d="M236.842 59.724C235.519 57.8323 233.225 55.0877 229.616 53.0952C226.54 51.3896 223.795 50.9399 219.245 50.2344C212.62 49.2033 211.462 50.0483 207.612 48.9552C205.198 48.2729 201.739 46.8231 197.934 43.3809C199.257 46.0323 201.942 50.436 206.86 53.9868C208.702 55.3126 211.808 57.5066 216.267 58.3284C220.238 59.0572 221.877 58.0726 226.953 58.1889C231.202 58.2897 234.631 59.0882 236.842 59.724Z" fill="#6497C6"/>
</g>
<path d="M236.841 59.724C235.954 57.5842 234.292 54.39 231.194 51.6222C228.554 49.2653 225.968 48.2109 221.681 46.4898C215.439 43.9934 214.123 44.5516 210.597 42.6211C208.386 41.4116 205.317 39.2176 202.332 35C203.061 37.8841 204.746 42.7917 208.792 47.3581C210.303 49.0637 212.875 51.9091 217.056 53.7155C220.779 55.3203 222.583 54.7311 227.517 55.9871C231.645 57.057 234.826 58.5998 236.841 59.724Z" fill="#0075B0"/>
<path d="M315.403 55.2736C315.403 60.5766 312.132 63.7941 306.777 63.7941H301.957V46.7144L306.777 46.7067C312.139 46.6989 315.403 49.9474 315.403 55.2736ZM312.041 55.2659C312.041 52.0639 310.049 50.1179 306.77 50.1179H305.281V60.375H306.8C310.056 60.375 312.041 58.4446 312.041 55.2659Z" fill="#39607C"/>
<path d="M326.181 63.8019L320.909 55.7234V63.8019H317.578L317.57 46.7145H322.977C326.075 46.7145 328.61 49.1722 328.61 52.2501C328.61 54.4441 327.324 56.3591 325.549 57.0103L330.257 63.8019H326.181ZM320.894 54.4054L323.03 54.4131C324.158 54.4209 325.166 53.4828 325.166 52.2578C325.166 51.0329 324.15 50.1025 323.03 50.1025H320.894V54.4054Z" fill="#39607C"/>
<path d="M331.473 62.1583C331.473 60.9643 332.443 59.9642 333.601 59.9642C334.751 59.9642 335.729 60.9721 335.729 62.1583C335.729 63.3522 334.759 64.3446 333.601 64.3446C332.428 64.3369 331.473 63.3677 331.473 62.1583Z" fill="#39607C"/>
<path d="M353.032 63.8019L347.761 55.7234V63.8019H344.429L344.422 46.7145H349.829C352.927 46.7145 355.461 49.1722 355.461 52.2501C355.461 54.4441 354.175 56.3591 352.401 57.0103L357.108 63.8019H353.032ZM347.753 54.4054L349.889 54.4131C351.017 54.4209 352.025 53.4828 352.025 52.2578C352.025 51.0329 351.009 50.1025 349.889 50.1025H347.753V54.4054Z" fill="#39607C"/>
<path d="M368.756 61.414H362.123L361.063 63.8019H357.461L365.38 46.2881H365.485L373.411 63.8019H369.801L368.756 61.414ZM367.455 58.4911L365.44 53.9247L363.417 58.4911H367.455Z" fill="#39607C"/>
<path d="M385.331 46.7145L377.578 64.2283H377.457L369.734 46.7145H373.261L377.51 56.6382L381.766 46.7145H385.331Z" fill="#39607C"/>
<path d="M386.988 46.7145H390.32V63.8019H386.988V46.7145Z" fill="#39607C"/>
<path d="M407.981 63.8019L402.71 55.7234V63.8019H399.379L399.371 46.7145H404.778C407.876 46.7145 410.411 49.1722 410.411 52.2501C410.411 54.4441 409.125 56.3591 407.35 57.0103L412.057 63.8019H407.981ZM402.695 54.4054L404.831 54.4131C405.959 54.4209 406.966 53.4828 406.966 52.2578C406.966 51.0329 405.951 50.1025 404.831 50.1025H402.695V54.4054Z" fill="#39607C"/>
<path d="M423.701 61.414H417.069L416.008 63.8019H412.406L420.325 46.2881H420.43L428.356 63.8019H424.747L423.701 61.414ZM422.408 58.4911L420.393 53.9247L418.37 58.4911H422.408Z" fill="#39607C"/>
<path d="M427.754 55.2737C427.754 50.3662 431.627 46.3579 436.372 46.3579C441.117 46.3579 444.997 50.3662 444.997 55.2737C444.997 60.1426 441.109 64.1276 436.364 64.1276C431.627 64.1276 427.754 60.1426 427.754 55.2737ZM441.621 55.2582C441.621 52.2656 439.26 49.8312 436.357 49.8312C433.469 49.8312 431.115 52.2656 431.115 55.2582C431.115 58.2276 433.469 60.6542 436.357 60.6542C439.26 60.6542 441.621 58.2276 441.621 55.2582Z" fill="#39607C"/>
<path d="M315.094 75.183L311.898 84.9516H310.845L308.07 76.6173L305.28 84.9516H304.235L301.039 75.183H302.069L304.807 83.5871L307.634 75.183H308.567L311.357 83.6259L314.131 75.183H315.094Z" fill="#39607C"/>
<path d="M322.375 81.5947H316.42C316.525 83.1297 317.668 84.1454 319.225 84.1454C320.089 84.1454 320.864 83.8275 321.405 83.184L321.947 83.8275C321.308 84.6105 320.322 85.0292 319.194 85.0292C316.976 85.0292 315.457 83.4631 315.457 81.2846C315.457 79.106 316.931 77.5554 318.939 77.5554C320.939 77.5554 322.391 79.075 322.391 81.2846C322.391 81.3698 322.375 81.4784 322.375 81.5947ZM316.42 80.8504H321.473C321.353 79.4161 320.338 78.4082 318.939 78.4082C317.555 78.4082 316.54 79.4161 316.42 80.8504Z" fill="#39607C"/>
<path d="M324.129 75.2993C324.129 74.9194 324.437 74.6016 324.836 74.6016C325.234 74.6016 325.543 74.9117 325.543 75.2838C325.543 75.687 325.242 76.0126 324.836 76.0126C324.445 76.0126 324.129 75.687 324.129 75.2993ZM324.347 77.6174H325.31V84.9594H324.347V77.6174Z" fill="#39607C"/>
<path d="M334.579 77.6174V84.0678C334.579 86.5952 333.376 87.7349 331.015 87.7349C329.714 87.7349 328.443 87.3318 327.698 86.603L328.187 85.851C328.864 86.4789 329.894 86.8588 330.992 86.8588C332.797 86.8588 333.616 86.006 333.616 84.1918V83.2537C333.022 84.1918 332.007 84.6803 330.842 84.6803C328.811 84.6803 327.27 83.215 327.27 81.1062C327.27 78.9974 328.811 77.5631 330.842 77.5631C332.03 77.5631 333.06 78.0671 333.662 79.0284V77.6174H334.579ZM333.647 81.1062C333.647 79.5168 332.511 78.4237 330.939 78.4237C329.368 78.4237 328.247 79.5168 328.247 81.1062C328.247 82.6955 329.368 83.8042 330.939 83.8042C332.511 83.7964 333.647 82.6955 333.647 81.1062Z" fill="#39607C"/>
<path d="M343.831 80.7031V84.9594H342.869V80.7961C342.869 79.2456 342.087 78.4548 340.733 78.4548C339.199 78.4548 338.244 79.4316 338.244 81.1063V84.9594H337.281V74.6016H338.244V78.9044C338.77 78.0516 339.71 77.5632 340.913 77.5632C342.636 77.5554 343.831 78.5943 343.831 80.7031Z" fill="#39607C"/>
<path d="M350.186 84.5097C349.81 84.8586 349.239 85.0292 348.682 85.0292C347.343 85.0292 346.599 84.2461 346.599 82.8894V78.4547H345.328V77.6174H346.599V76.0126H347.562V77.6174H349.727V78.4547H347.562V82.8351C347.562 83.7035 347.998 84.1764 348.795 84.1764C349.186 84.1764 349.577 84.0523 349.855 83.7965L350.186 84.5097Z" fill="#39607C"/>
<path d="M355.68 75.183H356.68V84.0601H361.989V84.9516H355.68V75.183Z" fill="#39607C"/>
<path d="M362.629 81.2846C362.629 79.106 364.171 77.5554 366.261 77.5554C368.344 77.5554 369.878 79.106 369.878 81.2846C369.878 83.4631 368.352 85.0292 366.261 85.0292C364.171 85.0292 362.629 83.4631 362.629 81.2846ZM368.893 81.2846C368.893 79.5712 367.765 78.4237 366.254 78.4237C364.742 78.4237 363.599 79.5712 363.599 81.2846C363.599 82.9979 364.734 84.1454 366.254 84.1454C367.773 84.1454 368.893 83.0057 368.893 81.2846Z" fill="#39607C"/>
<path d="M370.84 84.1221L371.276 83.3391C371.848 83.7965 372.81 84.1609 373.81 84.1609C375.164 84.1609 375.72 83.6879 375.72 82.9592C375.72 81.0442 371.103 82.556 371.103 79.6487C371.103 78.447 372.103 77.5554 373.923 77.5554C374.841 77.5554 375.848 77.819 376.442 78.2377L376.021 79.0362C375.397 78.5865 374.653 78.4082 373.923 78.4082C372.637 78.4082 372.066 78.9277 372.066 79.6254C372.066 81.6102 376.683 80.1139 376.683 82.9359C376.683 84.2074 375.6 85.0292 373.743 85.0292C372.562 85.0292 371.426 84.6338 370.84 84.1221Z" fill="#39607C"/>
<path d="M377.461 84.1221L377.897 83.3391C378.469 83.7965 379.431 84.1609 380.431 84.1609C381.785 84.1609 382.341 83.6879 382.341 82.9592C382.341 81.0442 377.724 82.556 377.724 79.6487C377.724 78.447 378.724 77.5554 380.544 77.5554C381.462 77.5554 382.469 77.819 383.063 78.2377L382.642 79.0362C382.018 78.5865 381.274 78.4082 380.544 78.4082C379.258 78.4082 378.687 78.9277 378.687 79.6254C378.687 81.6102 383.304 80.1139 383.304 82.9359C383.304 84.2074 382.221 85.0292 380.364 85.0292C379.183 85.0292 378.048 84.6338 377.461 84.1221Z" fill="#39607C"/>
<path d="M387.91 83.7731L388.301 82.9746C388.978 83.6569 390.181 84.1608 391.43 84.1608C393.204 84.1608 393.979 83.3932 393.979 82.4319C393.979 79.7494 388.143 81.4008 388.143 77.7801C388.143 76.3459 389.226 75.0977 391.64 75.0977C392.708 75.0977 393.821 75.4155 394.58 75.966L394.242 76.7878C393.43 76.2451 392.482 75.9815 391.64 75.9815C389.91 75.9815 389.136 76.78 389.136 77.7569C389.136 80.4394 394.971 78.819 394.971 82.3776C394.971 83.8196 393.858 85.0446 391.437 85.0446C390.008 85.0446 388.617 84.5252 387.91 83.7731Z" fill="#39607C"/>
<path d="M403.361 77.6174V84.9594H402.444V83.6182C401.94 84.5097 401.022 85.0292 399.887 85.0292C398.075 85.0292 396.879 83.9825 396.879 81.8738V77.6174H397.841V81.7807C397.841 83.3468 398.624 84.1376 399.977 84.1376C401.466 84.1376 402.399 83.1452 402.399 81.4706V77.6174H403.361Z" fill="#39607C"/>
<path d="M409.638 77.5554V78.5168C409.555 78.5168 409.472 78.5013 409.404 78.5013C407.915 78.5013 407.006 79.4781 407.006 81.207V84.9517H406.043V77.6097H406.96V79.044C407.419 78.0749 408.322 77.5554 409.638 77.5554Z" fill="#39607C"/>
<path d="M417.891 77.6174V84.0678C417.891 86.5952 416.688 87.7349 414.327 87.7349C413.026 87.7349 411.755 87.3318 411.011 86.603L411.499 85.851C412.176 86.4789 413.207 86.8588 414.304 86.8588C416.109 86.8588 416.929 86.006 416.929 84.1918V83.2537C416.335 84.1918 415.32 84.6803 414.154 84.6803C412.124 84.6803 410.582 83.215 410.582 81.1062C410.582 78.9974 412.124 77.5631 414.154 77.5631C415.342 77.5631 416.372 78.0671 416.974 79.0284V77.6174H417.891ZM416.959 81.1062C416.959 79.5168 415.824 78.4237 414.252 78.4237C412.68 78.4237 411.56 79.5168 411.56 81.1062C411.56 82.6955 412.68 83.8042 414.252 83.8042C415.824 83.7964 416.959 82.6955 416.959 81.1062Z" fill="#39607C"/>
<path d="M426.786 81.5947H420.83C420.935 83.1297 422.078 84.1454 423.635 84.1454C424.5 84.1454 425.274 83.8275 425.816 83.184L426.357 83.8275C425.718 84.6105 424.733 85.0292 423.605 85.0292C421.386 85.0292 419.867 83.4631 419.867 81.2846C419.867 79.106 421.341 77.5554 423.349 77.5554C425.349 77.5554 426.801 79.075 426.801 81.2846C426.801 81.3698 426.786 81.4784 426.786 81.5947ZM420.83 80.8504H425.883C425.763 79.4161 424.748 78.4082 423.349 78.4082C421.965 78.4082 420.95 79.4161 420.83 80.8504Z" fill="#39607C"/>
<path d="M428.047 81.2846C428.047 79.106 429.588 77.5554 431.679 77.5554C433.762 77.5554 435.296 79.106 435.296 81.2846C435.296 83.4631 433.77 85.0292 431.679 85.0292C429.588 85.0292 428.047 83.4631 428.047 81.2846ZM434.319 81.2846C434.319 79.5712 433.191 78.4237 431.679 78.4237C430.168 78.4237 429.025 79.5712 429.025 81.2846C429.025 82.9979 430.16 84.1454 431.679 84.1454C433.198 84.1454 434.319 83.0057 434.319 81.2846Z" fill="#39607C"/>
<path d="M443.796 80.7031V84.9594H442.833V80.7961C442.833 79.2455 442.051 78.4547 440.698 78.4547C439.164 78.4547 438.209 79.4316 438.209 81.1062V84.9594H437.246V77.6174H438.164V78.9742C438.675 78.0826 439.637 77.5632 440.871 77.5632C442.608 77.5554 443.796 78.5943 443.796 80.7031Z" fill="#39607C"/>
<path d="M67.624 5.23169C61.9046 5.23169 57.2734 9.87033 57.2734 15.5823C57.2734 21.3018 61.9121 25.9329 67.624 25.9329C73.3435 25.9329 77.9747 21.2943 77.9747 15.5823C77.9822 9.86283 73.3435 5.23169 67.624 5.23169ZM67.624 22.0224C64.0662 22.0224 61.184 19.1401 61.184 15.5823C61.184 12.0245 64.0662 9.14226 67.624 9.14226C71.1818 9.14226 74.0641 12.0245 74.0641 15.5823C74.0641 19.1401 71.1818 22.0224 67.624 22.0224Z" fill="#0075B0"/>
<path d="M62.4844 23.5759L66.9278 88.4118L72.7749 23.5759H62.4844Z" fill="#0075B0"/>
<path d="M67.7843 72.8747C62.5152 72.8747 57.6214 68.7765 56.4805 63.1245L57.8315 62.8543C58.9424 68.3411 63.9863 72.1767 69.0904 71.4036C73.4738 70.743 77.2567 66.4647 77.1742 62.2464C77.0991 58.2983 73.6089 55.431 72.4605 54.4928C71.4172 53.6371 69.8034 52.7814 66.5909 51.0701C66.2381 50.8824 65.9154 50.7173 65.6076 50.5522C63.0481 49.2161 61.2017 48.2479 60.3085 46.0787C60.1358 45.6508 59.8356 44.7727 59.8356 43.6693C59.8281 40.3292 62.3275 36.4111 66.3732 35.9082C69.6908 35.4954 72.9409 37.4319 74.2919 40.6144L73.0234 41.1548C71.9126 38.5353 69.248 36.9365 66.5459 37.2743C63.0556 37.7096 61.2092 41.2599 61.2167 43.6618C61.2167 44.525 61.4494 45.2155 61.5845 45.5458C62.29 47.2496 63.7762 48.0302 66.2456 49.3212C66.5609 49.4864 66.8836 49.659 67.2289 49.8391C70.5315 51.5955 72.1903 52.4737 73.3387 53.4194C74.6072 54.4627 78.4652 57.6227 78.5553 62.2088C78.6529 67.1552 74.412 71.9815 69.3005 72.7546C68.7901 72.8372 68.2872 72.8747 67.7843 72.8747Z" fill="#0075B1"/>
<path d="M74.4531 34.6923C77.0577 32.7107 81.3585 30.0011 87.1681 28.8377C92.122 27.8469 96.1076 28.4023 102.69 29.3781C112.275 30.7967 113.544 32.418 119.323 32.5756C122.941 32.6732 128.323 32.1928 135.003 29.183C132.083 32.1778 126.574 36.9666 118.31 39.6537C115.218 40.6595 110.016 42.2957 103.508 41.5151C97.7139 40.8171 95.8524 38.8055 88.7744 36.8164C82.8447 35.1426 77.7707 34.7598 74.4531 34.6923Z" fill="#A9BEDC"/>
<g opacity="0.7">
<path d="M74.4531 34.6921C76.3671 32.0351 79.6923 28.192 84.9088 25.3848C89.3598 22.9905 93.3304 22.36 99.9131 21.3692C109.498 19.9281 111.179 21.114 116.749 19.5753C120.239 18.6145 125.245 16.5879 130.755 11.7542C128.833 15.4771 124.96 21.6619 117.845 26.6383C115.18 28.4998 110.677 31.5847 104.229 32.7331C98.4795 33.7614 96.1151 32.3728 88.7593 32.538C82.612 32.6731 77.6431 33.7914 74.4531 34.6921Z" fill="#6497C6"/>
</g>
<path d="M74.4531 34.6922C75.7366 31.6824 78.1385 27.2013 82.6195 23.3283C86.44 20.0182 90.178 18.532 96.3853 16.1302C105.422 12.6249 107.321 13.413 112.425 10.6959C115.623 8.99205 120.059 5.92214 124.382 0C123.324 4.05318 120.892 10.9286 115.037 17.3461C112.846 19.748 109.123 23.7336 103.081 26.2706C97.6989 28.5299 95.0793 27.6967 87.9412 29.4606C81.974 30.9393 77.3729 33.116 74.4531 34.6922Z" fill="#0075B0"/>
<path d="M60.55 34.6923C57.9454 32.7107 53.6446 30.0011 47.835 28.8377C42.8811 27.8469 38.8955 28.4023 32.3128 29.3781C22.7278 30.7967 21.4593 32.418 15.6798 32.5756C12.0619 32.6732 6.68024 32.1928 0 29.183C2.91979 32.1778 8.4291 36.9666 16.6931 39.6537C19.7855 40.6595 24.9871 42.2957 31.4947 41.5151C37.2892 40.8171 39.1507 38.8055 46.2288 36.8164C52.1584 35.1426 57.2324 34.7598 60.55 34.6923Z" fill="#A9BEDC"/>
<g opacity="0.7">
<path d="M60.5555 34.6923C58.6415 32.0352 55.3164 28.1922 50.0999 25.385C45.6489 22.9906 41.6783 22.3601 35.0956 21.3693C25.5106 19.9282 23.8292 21.1141 18.2599 19.5754C14.7696 18.6147 9.76323 16.5881 4.25391 11.7543C6.17541 15.4772 10.0484 21.662 17.164 26.6384C19.8286 28.4999 24.3322 31.5848 30.7797 32.7332C36.5292 33.7615 38.8936 32.3729 46.2493 32.5381C52.3967 32.6732 57.3655 33.7916 60.5555 34.6923Z" fill="#6497C6"/>
</g>
<path d="M60.5542 34.6922C59.2706 31.6824 56.8688 27.2013 52.3877 23.3283C48.5672 20.0182 44.8293 18.532 38.622 16.1302C29.5849 12.6249 27.6859 13.413 22.5819 10.6959C19.3844 8.99205 14.9484 5.92214 10.625 0C11.6833 4.05318 14.1152 10.9286 19.9698 17.3461C22.1615 19.748 25.8845 23.7336 31.9267 26.2706C37.3084 28.5299 39.928 27.6967 47.0661 29.4606C53.0333 30.9393 57.6344 33.116 60.5542 34.6922Z" fill="#0075B0"/>
<path d="M0.855469 102.531H4.80355C7.09285 102.531 8.96182 104.28 8.96182 106.434C8.96182 108.535 7.09285 110.254 4.80355 110.254H2.7094V114.353H0.855469V102.531ZM7.10786 106.411C7.10786 105.285 6.07204 104.37 4.80355 104.37H2.7094V108.408L4.80355 108.415C6.07204 108.423 7.10786 107.522 7.10786 106.411Z" fill="#39607C"/>
<path d="M12.2872 104.355V107.38H16.7607V109.226H12.2872V112.499H17.4663V114.345H10.4258V102.531H17.4663V104.355H12.2872Z" fill="#39607C"/>
<path d="M25.8988 114.345L22.7163 109.774H21.2677V114.345H19.4137L19.4062 102.531H23.0766C25.2758 102.531 27.0773 104.227 27.0773 106.329C27.0773 107.852 26.094 109.181 24.7354 109.616L28.1731 114.345H25.8988ZM23.1142 108.235C24.225 108.243 25.1558 107.342 25.1558 106.284C25.1558 105.188 24.21 104.37 23.1142 104.37H21.2527V108.235H23.1142Z" fill="#39607C"/>
<path d="M36.5285 104.37H33.361V114.345H31.4995V104.37H28.332V102.531H36.5285V104.37Z" fill="#39607C"/>
<path d="M46.8272 102.531V114.345H44.9733V109.354H39.8543V114.345H38.0078V102.531H39.8543V107.515H44.9733V102.531H46.8272Z" fill="#39607C"/>
<path d="M52.8008 112.273L54.2644 111.223C54.7898 112.146 55.7731 112.671 56.914 112.671C58.2425 112.671 59.2483 112.033 59.2483 111.132C59.2483 110.037 57.6946 109.384 56.3135 108.783C54.9249 108.168 53.3862 107.447 53.3862 105.593C53.3862 103.657 55.0676 102.306 57.1917 102.306C58.8806 102.306 60.1415 103.116 60.6219 104.415L59.2408 105.368C58.873 104.572 58.0624 104.122 57.2067 104.122C56.1184 104.122 55.2552 104.798 55.2552 105.631C55.2552 106.554 56.3511 106.884 57.7847 107.5C59.6536 108.318 61.1023 109.218 61.1023 111.087C61.1023 113.182 59.2859 114.533 56.884 114.533C54.955 114.54 53.4763 113.632 52.8008 112.273Z" fill="#39607C"/>
<path d="M62.5898 109.864V102.523H64.4513V109.856C64.4513 111.493 65.5997 112.686 67.0483 112.686C68.497 112.686 69.6604 111.493 69.6604 109.856V102.523H71.5293V109.864C71.5293 112.574 69.5703 114.563 67.0558 114.563C64.5414 114.563 62.5898 112.581 62.5898 109.864Z" fill="#39607C"/>
<path d="M80.1801 114.345L76.9976 109.774H75.5489V114.345H73.695L73.6875 102.531H77.3579C79.5571 102.531 81.3585 104.227 81.3585 106.329C81.3585 107.852 80.3752 109.181 79.0167 109.616L82.4544 114.345H80.1801ZM77.4029 108.235C78.5138 108.243 79.4445 107.342 79.4445 106.284C79.4445 105.188 78.4988 104.37 77.4029 104.37H75.5415V108.235H77.4029Z" fill="#39607C"/>
<path d="M94.9249 108.821C94.9249 112.333 92.3729 114.548 89.303 114.548C85.8653 114.548 83.1406 111.808 83.1406 108.453C83.1406 105.098 85.8803 102.336 89.2429 102.336C90.7291 102.343 92.4329 103.064 93.5438 104.144L92.508 105.683C91.5848 104.775 90.3388 104.205 89.2204 104.205C87.0662 104.205 85.0246 106.006 85.0246 108.453C85.0246 110.772 86.8636 112.679 89.3855 112.679C91.4196 112.679 92.9433 111.44 92.9433 109.639V109.601H89.2879V107.897H94.8798C94.9024 108.168 94.9249 108.49 94.9249 108.821Z" fill="#39607C"/>
<path d="M96.625 102.531H98.479V114.345H96.625V102.531Z" fill="#39607C"/>
<path d="M100.195 108.445C100.195 105.12 102.972 102.328 106.298 102.328C107.829 102.351 109.247 103.004 110.403 104.13L109.322 105.586C108.497 104.76 107.416 104.205 106.26 104.205C104.121 104.205 102.072 106.081 102.072 108.445C102.072 110.825 104.143 112.671 106.268 112.671C107.476 112.671 108.519 112.071 109.33 111.26L110.403 112.754C109.383 113.76 108.084 114.525 106.328 114.525C102.973 114.54 100.195 111.778 100.195 108.445Z" fill="#39607C"/>
<path d="M119.317 112.551H113.725L112.922 114.345H110.91L116.465 102.291H116.577L122.131 114.345H120.12L119.317 112.551ZM118.596 110.96L116.525 106.344L114.445 110.96H118.596Z" fill="#39607C"/>
<path d="M130.561 112.499V114.345H123.438V102.531H125.291V112.499H130.561Z" fill="#39607C"/>
<path d="M26.3485 132.464C25.5378 132.457 24.457 131.984 23.3311 131.226C22.4604 132.111 21.297 132.592 19.9835 132.592C17.3114 132.592 15.9453 130.648 15.9453 128.906C15.9453 127.48 16.8911 126.114 17.9419 125.499C17.4915 124.673 17.2213 123.892 17.2213 123.232C17.2213 121.768 18.5799 120.26 20.3438 120.26C21.9425 120.26 23.2035 121.498 23.4212 122.917L21.6273 123.254C21.5372 122.534 20.9517 121.978 20.2837 121.978C19.6007 121.978 19.0528 122.556 19.0528 123.307C19.0528 124.681 20.8842 127.052 22.8132 128.749C23.0984 128.111 23.271 127.338 23.3011 126.467L25.0424 126.444C25.0124 127.803 24.7347 128.959 24.2693 129.882C25.0725 130.423 25.808 130.753 26.3485 130.753V132.464ZM21.8374 130.077C20.7191 129.124 19.6382 127.991 18.8126 126.85C18.107 127.345 17.7017 128.006 17.7017 128.779C17.7017 129.897 18.4598 130.768 19.8859 130.768C20.6515 130.768 21.312 130.528 21.8374 130.077Z" fill="#39607C"/>
<path d="M40.3708 128.764C40.3708 130.573 38.9972 132.359 36.6553 132.359H32.2344V120.545H35.4619C37.496 120.545 38.8771 122.009 38.8771 123.577C38.8771 124.853 37.9914 125.701 37.5485 125.701C38.8771 125.701 40.3708 126.925 40.3708 128.764ZM34.0808 122.346V125.296L35.5445 125.289C36.4602 125.296 37.1357 124.666 37.1357 123.825C37.1357 122.984 36.4001 122.354 35.567 122.354H34.0808V122.346ZM38.5618 128.636C38.5618 127.743 37.7962 126.917 36.4602 126.917L34.0883 126.925V130.543H36.4902C37.5485 130.55 38.5618 129.777 38.5618 128.636Z" fill="#39607C"/>
<path d="M49.055 130.565H43.4631L42.66 132.359H40.6484L46.2028 120.305H46.3154L51.8697 132.359H49.8582L49.055 130.565ZM48.342 128.974L46.2703 124.358L44.1912 128.974H48.342Z" fill="#39607C"/>
<path d="M59.6879 132.359L56.5054 127.788H55.0568V132.359H53.2028L53.1953 120.545H56.8657C59.0649 120.545 60.8663 122.241 60.8663 124.343C60.8663 125.867 59.8831 127.195 58.5245 127.63L61.9622 132.359H59.6879ZM56.9032 126.249C58.0141 126.257 58.9448 125.356 58.9448 124.298C58.9448 123.202 57.9991 122.384 56.9032 122.384H55.0418V126.249H56.9032Z" fill="#39607C"/>
<path d="M63.2109 120.545H65.0649V132.359H63.2109V120.545Z" fill="#39607C"/>
<path d="M74.7699 130.565H69.178L68.3749 132.359H66.3633L71.9176 120.305H72.0302L77.5846 132.359H75.573L74.7699 130.565ZM74.0568 128.974L71.9852 124.358L69.9061 128.974H74.0568Z" fill="#39607C"/>
<path d="M84.8371 122.384H81.6696V132.359H79.8081V122.384H76.6406V120.545H84.8371V122.384Z" fill="#39607C"/>
<path d="M92.8165 132.359L89.634 127.788H88.1854V132.359H86.3239L86.3164 120.545H89.9868C92.186 120.545 93.9874 122.241 93.9874 124.343C93.9874 125.867 93.0042 127.195 91.6456 127.63L95.0833 132.359H92.8165ZM90.0318 126.249C91.1427 126.257 92.0734 125.356 92.0734 124.298C92.0734 123.202 91.1277 122.384 90.0318 122.384H88.1704V126.249H90.0318Z" fill="#39607C"/>
<path d="M96.3242 120.545H98.1782V132.359H96.3242V120.545Z" fill="#39607C"/>
<path d="M99.8945 126.46C99.8945 123.134 102.672 120.342 105.997 120.342C107.528 120.365 108.947 121.018 110.103 122.144L109.022 123.6C108.196 122.774 107.115 122.219 105.959 122.219C103.82 122.219 101.771 124.095 101.771 126.46C101.771 128.839 103.843 130.685 105.967 130.685C107.175 130.685 108.219 130.085 109.029 129.274L110.103 130.768C109.082 131.774 107.783 132.539 106.027 132.539C102.672 132.554 99.8945 129.792 99.8945 126.46Z" fill="#39607C"/>
<path d="M110.891 130.287L112.354 129.237C112.88 130.16 113.863 130.685 115.004 130.685C116.332 130.685 117.338 130.047 117.338 129.147C117.338 128.051 115.784 127.398 114.403 126.797C113.015 126.182 111.476 125.461 111.476 123.607C111.476 121.671 113.157 120.32 115.282 120.32C116.97 120.32 118.231 121.13 118.712 122.429L117.331 123.382C116.963 122.586 116.152 122.136 115.297 122.136C114.208 122.136 113.345 122.812 113.345 123.645C113.345 124.568 114.441 124.898 115.875 125.514C117.744 126.332 119.192 127.233 119.192 129.101C119.192 131.196 117.376 132.547 114.974 132.547C113.037 132.554 111.566 131.646 110.891 130.287Z" fill="#39607C"/>
</svg>
