<svg width="120" height="132" viewBox="0 0 120 132" fill="none" xmlns="http://www.w3.org/2000/svg">
<path d="M10.6194 97.472C2.95858 84.819 0.355049 69.6992 3.33712 55.1803C6.31919 40.6615 14.6635 27.8311 26.677 19.2924" stroke="#464646" stroke-width="3" stroke-miterlimit="10"/>
<path d="M92.3281 18.6249C104.598 26.9786 113.229 39.7583 116.446 54.3361C119.664 68.9139 117.224 84.1817 109.628 96.9999" stroke="#464646" stroke-width="3" stroke-miterlimit="10"/>
<path d="M42.8967 11.2888C43.5378 11.6583 44.0291 12.244 44.2843 12.9429C44.4793 13.3863 44.5728 13.8683 44.5577 14.3531C44.5426 14.8379 44.4194 15.3131 44.1972 15.7432C43.7519 16.5963 42.8914 17.2714 41.6156 17.7685L36.475 19.7808L31.8281 7.69081L36.8687 5.72085C38.0799 5.2498 39.1125 5.15429 39.9666 5.43431C40.3976 5.58156 40.7888 5.82796 41.1091 6.15404C41.4295 6.48012 41.6703 6.87693 41.8125 7.3131C42.0952 7.97036 42.1387 8.70732 41.9351 9.39377C41.7286 10.027 41.3142 10.5703 40.7605 10.9339C41.4917 10.7915 42.2493 10.9173 42.8967 11.2888ZM36.1749 11.8228L38.3305 10.9828C38.8325 10.8271 39.2621 10.4942 39.5407 10.045C39.6442 9.83819 39.7003 9.6105 39.7048 9.37883C39.7093 9.14715 39.662 8.91744 39.5665 8.70672C39.495 8.48704 39.3769 8.28578 39.2202 8.11704C39.0636 7.9483 38.8723 7.81616 38.6597 7.72988C38.139 7.58026 37.582 7.62893 37.0946 7.86664L34.9712 8.69695L36.1749 11.8228ZM41.6866 14.9976C41.802 14.7797 41.8656 14.5377 41.8723 14.2907C41.8791 14.0437 41.8287 13.7986 41.7253 13.5746C41.65 13.336 41.5211 13.1182 41.3487 12.938C41.1763 12.7579 40.9651 12.6203 40.7314 12.5359C40.1871 12.3853 39.6076 12.4337 39.0953 12.6727L36.8364 13.5518L38.1272 16.8763L40.3861 15.9874C40.9166 15.8175 41.3726 15.4678 41.6769 14.9976H41.6866Z" fill="#464646"/>
<path d="M55.6305 9.86598L48.331 11.0382C48.5096 11.926 48.8538 12.5458 49.3636 12.8974C49.8763 13.2497 50.5061 13.3831 51.1159 13.2686C51.6413 13.2035 52.1316 12.9681 52.5132 12.5979C52.8545 12.2497 53.0537 11.7848 53.0715 11.2954L55.7499 10.8656C55.7363 11.5745 55.5525 12.2695 55.2142 12.8909C54.8607 13.5261 54.3603 14.0657 53.7556 14.4636C53.0948 14.9024 52.347 15.1902 51.5644 15.307C50.6662 15.4686 49.742 15.3957 48.8796 15.0953C48.062 14.8068 47.3469 14.2812 46.824 13.5845C46.2537 12.8107 45.8883 11.9029 45.7623 10.947C45.5882 9.9958 45.6559 9.01555 45.9592 8.09791C46.2366 7.2746 46.7512 6.55354 47.4371 6.02701C48.1689 5.47809 49.0254 5.1232 49.9284 4.99482C50.8333 4.83043 51.765 4.90559 52.6326 5.21298C53.4109 5.48792 54.0957 5.98024 54.6075 6.63265C55.1364 7.31872 55.478 8.13264 55.5982 8.99334C55.6331 9.2828 55.6439 9.57471 55.6305 9.86598ZM52.055 7.37179C51.5254 7.01953 50.8804 6.88984 50.2575 7.01036C49.6243 7.09605 49.0473 7.42209 48.644 7.92208C48.4348 8.20372 48.2844 8.52521 48.2017 8.86715C48.1191 9.20909 48.106 9.56438 48.1632 9.91157L53.0037 9.13661C52.9004 8.30956 52.5842 7.72128 52.055 7.37179Z" fill="#464646"/>
<path d="M58.3781 0.416657C58.6917 0.137499 59.0992 -0.0103984 59.5172 0.00312905C59.9342 -0.0226027 60.3455 0.11109 60.6692 0.377584C60.8138 0.502346 60.9293 0.657825 61.0074 0.832891C61.0856 1.00796 61.1243 1.19828 61.121 1.39024C61.1294 1.57932 61.0962 1.76793 61.0236 1.94248C60.9511 2.11703 60.8411 2.27316 60.7015 2.39964C60.3777 2.66144 59.9768 2.80706 59.562 2.81355C59.1472 2.82003 58.742 2.68701 58.4103 2.43546C58.2685 2.31591 58.1544 2.16654 58.0758 1.99781C57.9972 1.82908 57.9561 1.64506 57.9553 1.45862C57.9441 1.26409 57.9762 1.0695 58.0493 0.889166C58.1225 0.708835 58.2348 0.547366 58.3781 0.416657ZM60.8596 4.32401L61.0274 14.4864L58.4458 14.5287L58.2813 4.35657L60.8596 4.32401Z" fill="#464646"/>
<path d="M73.4463 6.70749C74.0121 7.57579 74.1874 8.69915 73.9723 10.0776L73.0687 15.9386L70.5517 15.5414L71.4101 10.0059C71.5564 9.3371 71.4408 8.63707 71.0874 8.05227C70.906 7.79385 70.6719 7.57761 70.4009 7.4181C70.1298 7.25859 69.828 7.15951 69.5158 7.12753C69.1972 7.06292 68.8685 7.06846 68.5521 7.14376C68.2358 7.21906 67.9393 7.36235 67.6829 7.56385C67.126 8.05783 66.7793 8.7494 66.7148 9.49473L65.8887 14.8283L63.3555 14.4278L64.9077 4.3761L67.4441 4.7766L67.1214 6.78889C67.4718 6.16823 68.0167 5.68261 68.6703 5.40829C69.3606 5.11822 70.119 5.03458 70.855 5.16734C71.372 5.21832 71.8717 5.38255 72.3193 5.64857C72.7668 5.91458 73.1515 6.27596 73.4463 6.70749Z" fill="#464646"/>
<path d="M84.222 9.72913C84.6324 10.3106 84.8432 11.0115 84.8222 11.7251L85.5967 9.77145L87.9653 10.7222L84.2123 20.1911C83.9027 21.0139 83.4065 21.7521 82.7634 22.3466C82.1519 22.9032 81.3882 23.2607 80.5722 23.3723C79.6494 23.4842 78.7138 23.3459 77.8615 22.9718C76.5105 22.4291 75.5424 21.6693 74.9572 20.6925C74.38 19.7127 74.2095 18.5424 74.4829 17.4364L76.8418 18.3807C76.7809 18.8847 76.9036 19.3938 77.1871 19.8134C77.5203 20.2776 77.9866 20.6276 78.5231 20.8162C78.8257 20.9554 79.1529 21.0323 79.4853 21.0424C79.8178 21.0524 80.1489 20.9955 80.4593 20.8748C81.0498 20.6339 81.5145 20.0901 81.8469 19.2468L82.6504 17.2378C82.1748 17.7706 81.5427 18.1357 80.8465 18.2797C80.0863 18.428 79.2995 18.343 78.5876 18.0355C77.8347 17.7466 77.1757 17.253 76.6837 16.6093C76.1985 15.9459 75.9169 15.1534 75.8737 14.33C75.8236 13.3721 75.9914 12.4154 76.3642 11.533C76.6962 10.6332 77.2283 9.8223 77.9196 9.16256C78.5137 8.59297 79.2614 8.21345 80.0688 8.07176C80.8653 7.93919 81.6827 8.03509 82.4277 8.34853C83.1484 8.61881 83.773 9.09941 84.222 9.72913ZM80.2495 10.7483C79.5514 11.1147 79.0232 11.7423 78.778 12.4968C78.4438 13.2116 78.402 14.0305 78.6618 14.7761C78.9568 15.4372 79.496 15.956 80.1645 16.2218C80.833 16.4876 81.5779 16.4794 82.2406 16.1991C82.5873 16.0278 82.8972 15.7892 83.1524 15.497C83.4077 15.2048 83.6034 14.8647 83.7282 14.4961C84.0547 13.7782 84.0883 12.9595 83.8218 12.2168C83.6891 11.8798 83.4874 11.5748 83.23 11.3218C82.9725 11.0687 82.6651 10.8733 82.3277 10.7483C82.0016 10.598 81.6472 10.5202 81.2886 10.5202C80.93 10.5202 80.5757 10.598 80.2495 10.7483Z" fill="#464646"/>
<path d="M24.0055 106.605C24.1494 107.972 23.8161 109.345 23.0632 110.49L21.1786 108.536C21.4747 107.882 21.5659 107.151 21.44 106.443C21.294 105.699 20.9271 105.017 20.388 104.489C19.9401 104.026 19.3719 103.7 18.7487 103.548C18.1068 103.392 17.4336 103.429 16.8125 103.655C16.0933 103.917 15.4423 104.34 14.9086 104.893C14.3528 105.416 13.9224 106.059 13.65 106.775C13.4171 107.387 13.3654 108.054 13.5011 108.695C13.6369 109.336 13.9543 109.923 14.4148 110.386C14.9256 110.944 15.5934 111.33 16.3285 111.493C17.0271 111.633 17.7516 111.557 18.4066 111.275L20.2912 113.228C19.1393 113.962 17.7701 114.269 16.4188 114.095C15.0925 113.915 13.8695 113.245 12.7497 112.092C11.9371 111.287 11.357 110.274 11.0717 109.162C10.8073 108.1 10.8533 106.984 11.204 105.948C11.583 104.826 12.2277 103.814 13.0821 103.001C13.9108 102.153 14.9305 101.521 16.0542 101.158C17.0867 100.829 18.1911 100.807 19.236 101.093C20.3333 101.407 21.325 102.018 22.1048 102.858C23.1429 103.852 23.8135 105.174 24.0055 106.605Z" fill="#464646"/>
<path d="M32.0125 114.918C32.4548 115.683 32.6689 116.561 32.6289 117.445C32.546 118.409 32.2345 119.338 31.7205 120.155C31.2066 120.972 30.5054 121.652 29.6762 122.137C28.8986 122.552 28.0199 122.735 27.143 122.665C26.2232 122.591 25.336 122.288 24.5614 121.782C23.7769 121.301 23.1245 120.63 22.6639 119.829C22.2308 119.061 22.0226 118.184 22.0637 117.302C22.146 116.338 22.4573 115.409 22.9713 114.593C23.4853 113.777 24.1869 113.097 25.0164 112.613C25.7871 112.195 26.6615 112.012 27.5334 112.086C28.4467 112.184 29.3251 112.494 30.1007 112.99C30.8763 113.486 31.5283 114.156 32.0061 114.948L32.0125 114.918ZM26.9784 114.511C26.2878 114.671 25.6876 115.163 25.1713 115.977C24.655 116.791 24.4775 117.549 24.6259 118.256C24.7798 118.925 25.1893 119.505 25.7652 119.871C26.3411 120.237 27.0369 120.359 27.7012 120.21C28.3886 120.05 28.992 119.558 29.5051 118.744C30.0182 117.93 30.1989 117.172 30.0505 116.465C29.9002 115.794 29.4927 115.21 28.9171 114.841C28.3415 114.472 27.6445 114.347 26.9784 114.495V114.511Z" fill="#464646"/>
<path d="M44.2772 120.763C44.6709 121.724 44.6289 122.863 44.161 124.176L42.1667 129.734L39.7723 128.861L41.6601 123.576C41.9314 122.947 41.951 122.237 41.7149 121.593C41.5853 121.305 41.3962 121.049 41.1602 120.84C40.9242 120.632 40.6469 120.477 40.3467 120.385C40.0458 120.26 39.7216 120.202 39.3963 120.215C39.071 120.228 38.7523 120.311 38.4621 120.46C37.8317 120.842 37.3699 121.452 37.1713 122.166L35.3513 127.246L32.9375 126.367L36.3646 116.797L38.7784 117.676L38.091 119.594C38.5546 119.053 39.1817 118.681 39.8755 118.536C40.6072 118.386 41.3662 118.449 42.0634 118.718C42.5581 118.875 43.0126 119.14 43.395 119.493C43.7775 119.846 44.0786 120.28 44.2772 120.763Z" fill="#464646"/>
<path d="M54.4199 122.411C55.0693 123.146 55.4307 124.096 55.4365 125.081L53.0582 124.739C53.046 124.276 52.8762 123.831 52.5773 123.479C52.2484 123.123 51.802 122.901 51.322 122.854C50.9634 122.777 50.5893 122.834 50.27 123.016C50.1366 123.101 50.0241 123.216 49.9413 123.351C49.8585 123.487 49.8076 123.639 49.7924 123.798C49.7689 123.924 49.7738 124.054 49.8068 124.178C49.8397 124.302 49.8999 124.417 49.9828 124.514C50.1698 124.724 50.3956 124.896 50.6476 125.019C50.9219 125.156 51.3188 125.344 51.8416 125.543C52.4489 125.764 53.0389 126.031 53.6067 126.341C54.0555 126.598 54.4328 126.966 54.7039 127.409C54.9996 127.929 55.0993 128.54 54.9847 129.128C54.9394 129.534 54.7986 129.923 54.5741 130.263C54.3495 130.603 54.0478 130.883 53.6939 131.082C52.833 131.538 51.843 131.682 50.8896 131.489C49.5988 131.3 48.6017 130.855 47.8982 130.154C47.5485 129.796 47.274 129.37 47.091 128.902C46.908 128.434 46.8204 127.934 46.8333 127.432L49.2664 127.783C49.2537 128.017 49.29 128.25 49.3728 128.468C49.4557 128.687 49.5833 128.885 49.7473 129.05C50.1287 129.417 50.6202 129.646 51.1445 129.701C51.4994 129.777 51.8697 129.714 52.1804 129.525C52.3083 129.437 52.4157 129.321 52.4954 129.187C52.575 129.053 52.625 128.903 52.6419 128.747C52.665 128.615 52.6593 128.479 52.6253 128.349C52.5913 128.219 52.5298 128.098 52.445 127.995C52.2584 127.774 52.0274 127.595 51.7674 127.471C51.4866 127.331 51.0865 127.145 50.5637 126.943C49.9679 126.723 49.3878 126.462 48.8276 126.162C48.3905 125.922 48.0225 125.572 47.7594 125.146C47.4721 124.64 47.3769 124.047 47.4916 123.475C47.539 123.066 47.6804 122.674 47.9045 122.33C48.1286 121.986 48.4292 121.699 48.7824 121.492C49.5224 121.043 50.4744 120.903 51.6383 121.072C52.6939 121.17 53.6803 121.645 54.4199 122.411Z" fill="#464646"/>
<path d="M58.7889 117.852C59.1118 117.584 59.5234 117.449 59.9409 117.474C60.3596 117.463 60.7673 117.611 61.0833 117.888C61.2185 118.02 61.3255 118.178 61.3975 118.353C61.4696 118.528 61.5052 118.716 61.5022 118.906C61.4992 119.096 61.4576 119.283 61.3799 119.455C61.3023 119.628 61.1904 119.783 61.051 119.91C60.726 120.176 60.3137 120.31 59.8957 120.284C59.4778 120.297 59.0708 120.149 58.7566 119.871C58.6175 119.745 58.5077 119.589 58.4352 119.415C58.3627 119.241 58.3292 119.053 58.3371 118.865C58.3338 118.673 58.3725 118.482 58.4506 118.307C58.5287 118.132 58.6442 117.977 58.7889 117.852ZM61.1446 121.828L60.9832 132L58.4016 131.958L58.563 121.785L61.1446 121.828Z" fill="#464646"/>
<path d="M70.4916 121.688C71.3165 122.214 71.9242 123.023 72.2019 123.967L69.8236 124.293C69.6827 123.853 69.3968 123.475 69.0136 123.222C68.6016 122.97 68.1121 122.881 67.6389 122.971C67.273 123 66.9295 123.161 66.6708 123.423C66.5661 123.543 66.4898 123.684 66.4478 123.838C66.4059 123.991 66.3993 124.153 66.4288 124.309C66.441 124.436 66.4816 124.559 66.5475 124.669C66.6135 124.778 66.703 124.871 66.8096 124.941C67.0451 125.092 67.3085 125.194 67.584 125.24C67.8874 125.296 68.3166 125.354 68.8748 125.41C69.5207 125.455 70.1624 125.547 70.7949 125.686C71.2971 125.807 71.7611 126.053 72.1438 126.403C72.5714 126.819 72.8351 127.378 72.886 127.975C72.9522 128.378 72.9223 128.79 72.7988 129.179C72.6753 129.567 72.4619 129.921 72.1761 130.209C71.4744 130.889 70.5634 131.306 69.5945 131.391C68.3037 131.573 67.228 131.426 66.3675 130.948C65.9331 130.702 65.5524 130.369 65.248 129.971C64.9437 129.573 64.7219 129.117 64.5958 128.63L67.029 128.288C67.082 128.515 67.1815 128.729 67.3209 128.915C67.4604 129.101 67.6368 129.256 67.839 129.369C68.3076 129.61 68.8419 129.688 69.3589 129.59C69.7212 129.564 70.0601 129.4 70.3076 129.131C70.4056 129.01 70.4765 128.87 70.5155 128.718C70.5545 128.567 70.5606 128.409 70.5335 128.255C70.5202 128.122 70.4781 127.993 70.4101 127.878C70.342 127.762 70.2498 127.663 70.1398 127.588C69.8998 127.424 69.6282 127.313 69.3427 127.262C69.0201 127.207 68.6005 127.152 68.052 127.093C67.4197 127.047 66.7912 126.959 66.1706 126.829C65.6846 126.72 65.2346 126.487 64.8637 126.152C64.4476 125.747 64.1928 125.203 64.1473 124.622C64.0777 124.213 64.1042 123.794 64.2247 123.398C64.3452 123.003 64.5564 122.641 64.8411 122.342C65.4284 121.691 66.3029 121.3 67.4679 121.138C68.5085 120.953 69.5805 121.148 70.4916 121.688Z" fill="#464646"/>
<path d="M81.6806 125.986L82.326 128.106L81.0352 128.509C79.9595 128.848 79.0528 128.848 78.3149 128.509C77.577 128.171 77.0208 127.384 76.6465 126.149L75.3557 121.942L74.0165 122.359L73.3711 120.275L74.7071 119.855L73.9681 117.452L76.4174 116.683L77.1596 119.086L79.312 118.409L79.9574 120.496L77.8082 121.16L79.1152 125.393C79.1872 125.756 79.3953 126.077 79.696 126.289C80.025 126.424 80.3932 126.424 80.7222 126.289L81.6806 125.986Z" fill="#464646"/>
<path d="M92.4104 118.246L85.8435 121.668C86.2888 122.456 86.8084 122.936 87.4021 123.107C87.6973 123.193 88.0063 123.219 88.3114 123.183C88.6165 123.148 88.9117 123.053 89.1802 122.902C89.6602 122.676 90.0535 122.298 90.3 121.825C90.5151 121.387 90.56 120.884 90.4258 120.415L92.8364 119.161C93.0391 119.839 93.0756 120.556 92.9429 121.251C92.8074 121.967 92.5005 122.637 92.049 123.205C91.5132 123.869 90.8382 124.404 90.0726 124.773C89.307 125.142 88.4699 125.335 87.6216 125.338C86.7605 125.322 85.9231 125.05 85.2142 124.556C84.4337 124.002 83.8052 123.257 83.3878 122.391C82.9285 121.542 82.6877 120.591 82.6875 119.623C82.6981 118.755 82.9631 117.908 83.4491 117.191C83.9717 116.436 84.6757 115.828 85.495 115.423C86.2929 114.983 87.19 114.759 88.0992 114.772C88.9238 114.786 89.7274 115.037 90.4162 115.495C91.1294 115.98 91.7055 116.644 92.0877 117.422C92.2202 117.686 92.3282 117.962 92.4104 118.246ZM88.2412 117.005C87.628 116.842 86.9762 116.924 86.4211 117.233C85.843 117.514 85.3928 118.007 85.1626 118.611C85.0531 118.945 85.0112 119.299 85.0395 119.65C85.0678 120.001 85.1656 120.343 85.3272 120.656L89.6772 118.376C89.3287 117.631 88.8511 117.172 88.2412 117.005Z" fill="#464646"/>
<path d="M99.1599 107.149C100.183 107.296 101.132 107.911 102.016 108.986L105.749 113.544L103.787 115.172L100.238 110.845C99.8376 110.291 99.2411 109.914 98.5726 109.793C98.2595 109.762 97.9434 109.798 97.6455 109.9C97.3477 110.003 97.0751 110.168 96.8461 110.386C96.5867 110.584 96.3728 110.837 96.2191 111.126C96.0654 111.415 95.9754 111.735 95.9555 112.063C95.9573 112.809 96.2413 113.526 96.7493 114.068L100.157 118.201L98.1821 119.851L91.7539 112.014L93.7288 110.363L95.0196 111.932C94.7927 111.256 94.7927 110.522 95.0196 109.845C95.2635 109.133 95.7034 108.505 96.2878 108.035C96.6739 107.685 97.1309 107.425 97.6269 107.272C98.123 107.119 98.6461 107.077 99.1599 107.149Z" fill="#464646"/>
<path d="M110.587 104.574L112.271 106.003L111.403 107.045C110.677 107.914 109.913 108.406 109.106 108.514C108.299 108.621 107.412 108.263 106.437 107.436L103.097 104.6L102.194 105.681L100.538 104.274L101.442 103.19L99.5312 101.562L101.183 99.5787L103.091 101.207L104.546 99.4647L106.201 100.871L104.749 102.613L108.118 105.476C108.372 105.743 108.72 105.899 109.086 105.912C109.435 105.843 109.742 105.638 109.942 105.342L110.587 104.574Z" fill="#464646"/>
<mask id="mask0_1216_1012" style="mask-type:luminance" maskUnits="userSpaceOnUse" x="17" y="25" width="82" height="83">
<path d="M57.9579 107.98C80.5244 107.98 98.8182 89.5206 98.8182 66.7504C98.8182 43.9803 80.5244 25.5214 57.9579 25.5214C35.3914 25.5214 17.0977 43.9803 17.0977 66.7504C17.0977 89.5206 35.3914 107.98 57.9579 107.98Z" fill="white"/>
</mask>
<g mask="url(#mask0_1216_1012)">
<path d="M58.6559 84.8838C59.14 85.4406 59.6434 86.0169 60.1016 86.5672C61.1665 88.0162 61.6764 89.781 62.2185 91.65C62.3928 92.2492 62.5703 92.8711 62.7704 93.4832C64.4419 98.6084 65.5843 104.059 66.6879 109.331C67.2462 111.991 67.8238 114.742 68.4596 117.406L69.2921 117.201C68.6467 114.55 68.082 111.805 67.527 109.152C66.4201 103.857 65.2681 98.3837 63.5836 93.213C63.3899 92.6139 63.2125 92.0017 63.0414 91.4091C62.4767 89.4554 61.9475 87.6222 60.7825 86.0332C60.3049 85.4536 59.8144 84.874 59.3078 84.3107C58.9206 83.8679 58.5301 83.4185 58.1461 82.9659C57.9589 83.1874 57.7685 83.4055 57.5781 83.6172C57.9266 84.0502 58.2913 84.467 58.6559 84.8838Z" fill="#464646"/>
<path d="M46.3378 56.7867C46.1953 56.1975 46.1679 55.5859 46.2572 54.9861C46.3552 54.9386 46.4473 54.8796 46.5315 54.8102C47.9073 56.5913 49.112 58.5004 50.1296 60.5117L50.6362 59.6326C49.5808 57.5946 48.3246 55.6692 46.8864 53.8855L46.5315 53.4557L46.2088 53.9115C46.1165 54.0569 45.9826 54.1705 45.8248 54.2372L45.5634 54.2827L45.4891 54.54C45.2901 55.3449 45.2901 56.1869 45.4891 56.9918L45.5182 57.0863C46.4863 59.3656 47.3092 61.6839 48.0998 63.9404C48.2934 63.6148 48.4838 63.2892 48.671 62.9831C47.9643 60.935 47.2027 58.8576 46.3378 56.7867Z" fill="#464646"/>
<path d="M94.6778 127.49C94.5423 127.165 94.1453 127.067 93.7097 127.23C93.6258 127.261 93.5457 127.301 93.4709 127.35C92.1188 124.674 90.7731 122.219 89.3532 119.633C88.7078 118.432 88.0302 117.22 87.3719 116.003C86.1617 113.398 84.858 110.838 83.5963 108.377C82.3345 105.915 81.0405 103.385 79.8465 100.803C79.1204 99.048 78.3072 97.3124 77.5198 95.6323C75.3997 91.116 73.3957 86.8407 72.7858 81.8817C72.6793 80.2536 73.0246 78.6809 73.3861 76.9975C73.7475 75.3141 74.1186 73.6078 74.0056 71.8723C73.7797 68.4143 73.6507 65.5326 74.1928 62.55C74.4671 61.5732 73.8346 60.3684 73.2731 59.9744L73.215 59.9321L73.1505 59.9126C72.1566 59.6163 71.366 60.2121 70.6657 60.7364L70.6108 60.7787L70.5721 60.8341C70.2333 61.3225 69.9977 62.1365 69.7492 62.9798V63.071C69.6225 64.3266 69.3695 65.566 68.9941 66.77C68.4552 65.9071 67.9324 65.041 67.4161 64.1651L67.3774 64.2693C67.2677 64.5949 67.1547 64.901 67.0547 65.2168C67.6194 66.1611 68.1906 67.0988 68.7876 68.0366L69.2942 68.8311L69.5588 67.9259C70.0203 66.3564 70.4947 64.7349 70.6076 63.1752C70.7579 62.5554 70.9743 61.9538 71.253 61.3811C71.8177 60.9578 72.3147 60.6029 72.8504 60.7299C73.1505 60.9936 73.5442 61.7783 73.3828 62.3351V62.3807C72.8181 65.4675 72.9504 68.4111 73.1795 71.9374C73.2828 73.5655 72.9407 75.1382 72.5793 76.8216C72.2179 78.5051 71.8468 80.2113 71.9629 81.9696C72.5922 87.1012 74.7188 91.6305 76.7744 96.01C77.5586 97.6771 78.3685 99.4061 79.0914 101.158C80.3015 103.763 81.6052 106.319 82.867 108.781C84.1287 111.242 85.426 113.772 86.6393 116.397C87.3106 117.644 87.9753 118.855 88.6369 120.06C90.189 122.886 91.6509 125.556 93.1288 128.526L93.3192 128.91L93.7 128.718C94.0485 128.522 94.9166 128.083 94.6778 127.49Z" fill="#464646"/>
<path d="M51.4209 58.2878C51.2402 57.7701 51.0595 57.2589 50.8788 56.7347C49.9107 53.9767 48.9426 51.1244 47.8164 48.2687C47.7503 47.7722 47.8382 47.2671 48.0681 46.823L48.3327 46.7742C50.2689 49.5549 51.6759 52.6059 52.9634 55.6471L53.6282 54.5205C52.2576 51.2545 51.0914 47.905 50.1366 44.4916C50.1387 44.4155 50.1636 44.3419 50.2079 44.2803C50.2523 44.2187 50.314 44.1721 50.3851 44.1465C50.5295 44.148 50.6705 44.1909 50.7917 44.2702C52.46 46.8751 53.9703 49.5582 55.4127 52.2152C55.5417 52.0819 55.6635 51.9417 55.7774 51.7951C55.9226 51.5281 56.0614 51.2579 56.2034 50.9876C55.3095 49.1316 54.4382 47.2593 53.6476 45.3415C53.6449 45.2373 53.6613 45.1336 53.696 45.0354C55.1318 46.1243 56.3275 47.5026 57.207 49.0828C57.3651 48.793 57.5296 48.5032 57.6845 48.2199C56.7627 46.6577 55.5325 45.3034 54.0703 44.2409C53.9581 44.1539 53.822 44.1038 53.6806 44.0974C53.5392 44.091 53.3992 44.1286 53.2797 44.2051C52.8699 44.4688 52.7408 45.1559 52.8086 45.5303L52.8344 45.6215C52.9796 45.9732 53.128 46.3248 53.2765 46.6765C52.6892 45.6834 52.0857 44.6968 51.4564 43.7199L51.4113 43.6483L51.3435 43.5995C51.0216 43.3697 50.6295 43.2624 50.2366 43.2966C49.9383 43.3604 49.6751 43.5361 49.5002 43.7881C49.3253 44.0402 49.2518 44.3498 49.2944 44.6544V44.6935C49.6461 45.996 50.0366 47.2724 50.4528 48.5292C49.9623 47.6859 49.4363 46.8588 48.8652 46.0481L48.7103 45.8266L47.5453 46.035L47.4421 46.1816C47.012 46.8568 46.8442 47.6685 46.9709 48.4609L46.9935 48.5423C48.1068 51.4077 49.1007 54.2665 50.0591 57.031L50.8433 59.2777L50.9272 59.1344L51.4209 58.2878Z" fill="#464646"/>
<path d="M64.3135 60.5899C64.4652 60.2838 64.6201 59.981 64.7782 59.6782L64.662 59.473C64.5362 59.8279 64.4103 60.1829 64.2812 60.5345L64.3135 60.5899Z" fill="#464646"/>
<path d="M64.0977 60.8895L64.259 60.5639V60.4011L64.4204 60.5639L64.0977 60.8895Z" stroke="#464646"/>
<path d="M60.9219 67.9292C61.0239 67.7172 61.1144 67.4998 61.1929 67.278C61.1026 67.4994 61.0316 67.7306 60.9219 67.9292Z" fill="#464646"/>
<path d="M58.0547 64.6176C58.1257 64.7739 58.1967 64.9432 58.2644 65.093C58.9808 63.7906 59.6391 62.4588 60.2458 61.0977L59.9877 60.6354C59.3907 61.9932 58.7679 63.3249 58.0547 64.6176Z" fill="#464646"/>
<path d="M60.9219 67.9291C61.0155 67.7142 61.1026 67.4993 61.1929 67.2779C61.4092 66.7146 61.5511 66.249 60.9219 67.9291Z" fill="#464646"/>
<path d="M54.624 54.5106C54.9406 53.9711 55.3318 53.48 55.7857 53.0518L55.8503 52.9867L55.6373 52.5895C55.0941 53.0896 54.6256 53.6665 54.2464 54.3022C54.1077 54.5399 53.9786 54.7646 53.8398 54.999L54.0431 55.4939C54.2368 55.1651 54.4239 54.8427 54.624 54.5106Z" fill="#464646"/>
<path d="M53.7746 62.6282C54.1619 61.8662 54.5523 61.1065 54.946 60.3489C54.8718 60.1795 54.8008 60.0232 54.7298 59.8376C54.2824 60.7059 53.836 61.5742 53.3906 62.4425L54.1393 62.8626C54.5072 62.2407 54.8654 61.6188 55.2203 60.9968C55.1493 60.8308 55.0751 60.6712 55.0073 60.5052C54.6051 61.1976 54.1941 61.9053 53.7746 62.6282Z" fill="#464646"/>
<path d="M53.7734 62.6282C53.7993 62.5793 55.1352 60.0461 53.7734 62.6282C54.2037 61.914 54.6146 61.202 55.0062 60.4921C54.9868 60.4433 54.9642 60.3977 54.9448 60.3489C54.5511 61.1086 54.1607 61.8684 53.7734 62.6282Z" fill="#464646"/>
<path d="M57.9725 54.5237C58.3307 53.8269 58.6824 53.1268 59.0342 52.4268L58.7889 51.9579C58.4383 52.659 58.0854 53.3548 57.7305 54.0451L57.9725 54.5237Z" fill="#464646"/>
<path d="M57.1079 55.3572C57.1079 55.3572 57.0918 55.3279 57.0853 55.3116C56.6206 56.2038 56.1592 57.096 55.6977 57.9784L55.375 58.6068C55.4492 58.7762 55.5234 58.9325 55.5944 59.1115C56.1753 57.998 56.7562 56.8876 57.3338 55.7708L57.1079 55.3572Z" fill="#464646"/>
<path d="M50.1339 60.5117C49.6541 61.3409 49.1733 62.1626 48.6914 62.9766C48.7559 63.1524 48.8173 63.325 48.8786 63.5008C49.3777 62.6608 49.8736 61.8142 50.3662 60.9611L50.1339 60.5117Z" fill="#464646"/>
<path d="M60.7634 59.9159C61.1797 58.939 61.5895 57.9817 61.9832 57.0212C62.022 56.9332 62.0574 56.8453 62.0929 56.7574L61.8219 56.295C61.3862 57.3468 60.9538 58.3952 60.5117 59.4307L60.7634 59.9159Z" fill="#464646"/>
<path d="M57.3331 55.7545C56.7555 56.8714 56.1746 57.9817 55.5938 59.0953C55.6228 59.1572 55.6518 59.219 55.6777 59.2842C56.2876 58.1901 56.8813 57.0993 57.4686 56.0085L57.3331 55.7545Z" fill="#464646"/>
<path d="M58.3509 55.2759L58.8059 54.4293C59.0221 54.0255 59.2415 53.6152 59.4513 53.2115L59.4223 53.1757L59.39 53.1236L59.1996 52.7654L58.125 54.8102C58.1928 54.9633 58.2702 55.1228 58.3509 55.2759Z" fill="#464646"/>
<path d="M58.1218 54.8103L59.2157 52.7654L59.0382 52.4398C58.6865 53.1399 58.3348 53.84 57.9766 54.5368L58.1218 54.8103Z" fill="#464646"/>
<path d="M57.4785 56.0084C56.8912 57.0992 56.2974 58.19 55.6875 59.2841C55.7617 59.4469 55.8327 59.6097 55.9069 59.7758C56.5222 58.6687 57.1278 57.5638 57.7237 56.461L57.4785 56.0084Z" fill="#464646"/>
<path d="M60.2191 58.8738C60.2643 58.965 60.3159 59.0594 60.3643 59.1506C60.8161 58.1369 61.2614 57.1188 61.7003 56.0964C61.6099 55.9433 61.5228 55.7935 61.4292 55.6405C60.9989 56.6564 60.559 57.6647 60.1094 58.6654L60.2191 58.8738Z" fill="#464646"/>
<path d="M59.57 59.8767C59.3925 60.274 59.2183 60.6712 59.0408 61.0652C58.6181 62.0062 58.1889 62.97 57.75 63.9404L57.9856 64.4711C58.5944 63.0905 59.2065 61.7153 59.8217 60.3456L59.57 59.8767Z" fill="#464646"/>
<path d="M60.5156 59.4405C60.9577 58.405 61.3901 57.3566 61.8258 56.3048L61.7032 56.0964C61.2729 57.1189 60.8276 58.1369 60.3672 59.1507L60.5156 59.4405Z" fill="#464646"/>
<path d="M57.9922 64.4744L58.0567 64.6209C58.757 63.3185 59.3927 61.9965 59.9929 60.6387C59.9413 60.541 59.8864 60.4466 59.8316 60.3489C59.2163 61.7186 58.6032 63.0938 57.9922 64.4744Z" fill="#464646"/>
<path d="M57.4783 65.6759C57.3911 65.5131 57.3008 65.3503 57.2137 65.194C57.1749 65.2917 57.1298 65.3958 57.0781 65.5196L57.5105 65.741L57.4783 65.6791V65.6759Z" fill="#464646"/>
<path d="M54.2544 54.3022C54.6336 53.6665 55.1021 53.0896 55.6453 52.5895C55.5743 52.456 55.5001 52.3225 55.4258 52.1923C55.3484 52.2769 55.2677 52.3583 55.1838 52.4462C54.678 52.9233 54.2433 53.4717 53.893 54.0743C53.8059 54.2143 53.7284 54.3511 53.6445 54.4911C53.7123 54.6571 53.7801 54.8167 53.8511 54.9925C53.9769 54.7646 54.106 54.5399 54.2544 54.3022Z" fill="#464646"/>
<path d="M53.381 56.6108L53.1745 56.1191C52.6452 57.0276 52.1192 57.9263 51.6094 58.8087C51.6707 58.9878 51.732 59.1669 51.7965 59.346C52.3161 58.4505 52.8421 57.5356 53.381 56.6108Z" fill="#464646"/>
<path d="M57.4812 49.4963C57.3973 49.3497 57.3134 49.2032 57.2263 49.0599C56.9875 49.4941 56.7508 49.9434 56.5163 50.408L56.2227 50.9648L56.455 51.4467C56.7842 50.7987 57.123 50.1475 57.4812 49.4963Z" fill="#464646"/>
<path d="M52.9644 55.6243C52.4395 56.523 51.9253 57.4065 51.4219 58.2748C51.4832 58.4538 51.5477 58.6329 51.609 58.8088C52.1189 57.9263 52.6449 57.0277 53.1741 56.1192L52.9644 55.6243Z" fill="#464646"/>
<path d="M51.0472 59.7889L50.8568 59.2549L50.6406 59.6326C50.7213 59.7824 50.7987 59.9322 50.8762 60.0819L51.0472 59.7889Z" fill="#464646"/>
<path d="M62.2211 44.1041C62.257 44.202 62.2745 44.3058 62.2727 44.4102C61.3466 46.6537 60.3204 48.8483 59.2619 51.0071C59.3136 51.1113 59.3684 51.2155 59.4233 51.3327L59.5104 51.4955C60.6334 49.2162 61.708 46.9142 62.689 44.5372C62.7535 44.1725 62.5212 43.378 62.0952 43.6776C60.2139 44.9996 59.0038 46.7448 57.9453 48.6269C58.0314 48.7702 58.1153 48.9134 58.197 49.0567C59.2426 47.1519 60.4043 45.4196 62.2211 44.1041Z" fill="#464646"/>
<path d="M56.6666 51.9318C56.8667 51.5584 57.0635 51.184 57.2572 50.8084L57.7122 49.9358C57.6315 49.786 57.5476 49.6427 57.4637 49.4962C57.1216 50.1474 56.7828 50.7987 56.4375 51.4499C56.5117 51.6062 56.5892 51.7755 56.6666 51.9318Z" fill="#464646"/>
<path d="M70.0171 53.7487C69.7545 53.6571 69.5281 53.4823 69.3717 53.2505C67.6846 55.3716 66.2354 57.6747 65.0508 60.1177L65.3057 60.5605C66.4432 58.2071 67.8141 55.9761 69.3975 53.9017C69.4828 53.9697 69.5747 54.0286 69.6718 54.0775C69.7621 54.6771 69.7358 55.2887 69.5944 55.8782C68.565 58.3366 67.6872 60.8014 66.8418 63.2045C66.9353 63.3673 67.0322 63.5301 67.1257 63.6864C68.0196 61.1466 68.9264 58.5808 70.0075 56.0019C70.1918 55.2627 70.1951 54.4894 70.0171 53.7487Z" fill="#464646"/>
<path d="M60.4367 78.2283V78.2609C59.7687 79.6382 58.7135 80.9798 57.5938 82.292L57.8713 82.6176C59.033 81.2565 60.1302 79.8825 60.8207 78.4367C63.4475 74.0149 65.1062 69.4173 66.752 64.7317C66.6584 64.5721 66.5616 64.4061 66.4648 64.2531C64.7416 69.1307 63.1055 73.7381 60.4367 78.2283Z" fill="#464646"/>
<path d="M65.0372 60.1178C66.2218 57.6748 67.671 55.3717 69.3582 53.2506C69.5145 53.4824 69.7409 53.6572 70.0036 53.7488C70.1762 54.4909 70.1673 55.2642 69.9777 56.002C68.8967 58.5809 67.9899 61.1467 67.096 63.6865C67.1896 63.8493 67.2864 64.0121 67.3832 64.1684C68.2997 61.5635 69.2517 58.8511 70.3714 56.1714L70.4005 56.0769C70.5995 55.272 70.5995 54.43 70.4005 53.6251L70.3263 53.3678L70.0649 53.3222C69.9082 53.2537 69.7747 53.1405 69.6809 52.9966L69.3582 52.531L68.9967 52.9641C67.3444 55.0369 65.9205 57.2849 64.75 59.6684C64.8145 59.7791 64.8823 59.8996 64.9501 59.994C64.9985 60.0527 65.0178 60.0852 65.0372 60.1178Z" fill="#464646"/>
<path d="M51.2332 60.3196C51.1719 60.1437 51.1073 59.9679 51.046 59.7888L50.875 60.0819C50.9557 60.2316 51.0331 60.3814 51.1106 60.5312C51.1525 60.4628 51.1912 60.3912 51.2332 60.3196Z" fill="#464646"/>
<path d="M50.3783 60.9611C49.8835 61.8142 49.3876 62.6608 48.8906 63.5008C48.9519 63.6799 49.0133 63.8525 49.0746 64.0283C49.5909 63.1655 50.1007 62.2993 50.6138 61.4234L50.3783 60.9611Z" fill="#464646"/>
<path d="M62.0937 43.6645C62.5197 43.365 62.7391 44.1595 62.6875 44.5241C61.7194 46.9011 60.6319 49.2097 59.5089 51.4825L59.7057 51.8569C61.3192 48.8874 62.9521 45.934 64.8205 43.0231C65.0507 42.8605 65.3272 42.7782 65.6079 42.7886C65.7894 42.8365 65.9482 42.9479 66.0558 43.103C66.1634 43.2581 66.2128 43.4467 66.1952 43.6352C65.0973 47.5501 63.7333 51.3841 62.1131 55.1098L62.2292 55.3019C63.6588 51.883 65.1884 48.4641 67.3924 45.3545L68.1153 45.4847C68.4793 46.0653 68.6215 46.7597 68.5154 47.4384C66.9955 51.3457 65.7176 55.1945 64.3817 58.9716L64.6656 59.46C65.0593 58.3497 65.4498 57.2263 65.8467 56.0867C66.8148 53.3222 67.8023 50.4633 68.9156 47.5979L68.9382 47.5165C69.0649 46.7241 68.8971 45.9124 68.467 45.2372L68.3638 45.0907L67.1988 44.8823L67.0439 45.1037C66.4727 45.9112 65.9467 46.7318 65.453 47.5849C65.8725 46.328 66.263 45.0516 66.6147 43.7492V43.7101C66.6566 43.4052 66.5829 43.0955 66.4081 42.8431C66.2334 42.5907 65.9706 42.4143 65.6725 42.349C65.2841 42.3192 64.8978 42.4288 64.5817 42.6584L64.5107 42.7072L64.4656 42.7789C63.8395 43.7557 63.2339 44.7401 62.6488 45.7322C62.7972 45.3838 62.9456 45.0321 63.0909 44.6804L63.1167 44.5893C63.1844 44.2148 63.0521 43.5278 62.6455 43.264C62.526 43.1875 62.386 43.1499 62.2446 43.1563C62.1032 43.1627 61.9672 43.2128 61.8549 43.2998C59.9671 44.6283 58.7538 46.328 57.6953 48.184C57.7824 48.3208 57.8663 48.4608 57.9502 48.6008C59.0022 46.7318 60.2124 44.9865 62.0937 43.6645Z" fill="#464646"/>
<path d="M46.7982 66.897C46.3302 65.308 45.8656 63.719 45.7623 62.1919C45.598 61.4874 45.3408 60.8084 44.9975 60.1731C44.3521 59.6781 43.6809 59.1962 42.8935 59.4176C42.4675 59.7172 41.9254 60.7494 42.1448 61.5439C42.716 64.6568 42.5611 67.6426 42.3449 70.9867C42.1287 74.3307 43.7809 77.6455 43.5615 80.996C42.6999 87.9934 39.076 93.7437 36.4621 100.054C34.0548 105.277 31.3408 110.06 28.9335 115.27C26.7133 119.396 24.5642 123.15 22.4376 127.412C20.4788 126.435 22.7409 126.435 22.4376 127.412C24.5642 123.15 26.7133 119.396 28.9335 115.27C31.3473 110.06 34.0548 105.27 36.4685 100.054C39.076 93.7437 42.6999 88.0064 43.5679 80.996C43.7874 77.6455 42.1319 74.3372 42.3514 70.9867C42.5708 67.6361 42.7225 64.6502 42.1513 61.5439C41.9189 60.7494 42.474 59.7172 42.9 59.4176C43.6873 59.1832 44.3456 59.6781 45.004 60.1731C45.3472 60.8084 45.6045 61.4874 45.7688 62.1919C45.872 63.719 46.3367 65.308 46.8046 66.897C47.3209 66.0862 47.8147 65.2689 48.3084 64.4516L48.1245 63.9339C47.7415 64.5851 47.35 65.2277 46.9498 65.8615C46.5699 64.6582 46.3137 63.4187 46.185 62.1626V62.0649C45.9333 61.215 45.6978 60.414 45.3622 59.9256L45.3234 59.867L45.2686 59.8279C44.5683 59.3037 43.7777 58.7078 42.7838 59.0041L42.716 59.0237L42.6612 59.0627C42.0997 59.46 41.4672 60.655 41.7382 61.6416C42.2836 64.6242 42.1545 67.5026 41.9286 70.9639C41.8157 72.6994 42.1868 74.4219 42.5482 76.089C42.9096 77.7562 43.2549 79.3451 43.1517 80.9472C42.5353 85.9388 40.5346 90.2076 38.4144 94.7238C37.627 96.4007 36.8009 98.1363 36.0942 99.8783C34.8905 102.477 33.5772 105.016 32.3089 107.455C31.0407 109.894 29.7273 112.463 28.5463 115.055C27.875 116.299 27.2103 117.51 26.552 118.708C25.1321 121.297 23.7864 123.752 22.4343 126.429C22.3584 126.38 22.2772 126.339 22.1923 126.308C21.7599 126.145 21.3662 126.253 21.2242 126.569C20.9725 127.158 21.8535 127.598 22.231 127.787L22.6118 127.979L22.8022 127.594C24.2802 124.625 25.7452 121.955 27.2942 119.129C27.9396 117.927 28.6205 116.712 29.3014 115.446C30.5051 112.841 31.8055 110.308 33.0641 107.853C34.3226 105.397 35.6295 102.845 36.8461 100.214C37.5625 98.4749 38.3725 96.7491 39.1566 95.082C41.2122 90.6993 43.3356 86.17 43.9713 81.0155C44.0843 79.28 43.7132 77.5575 43.3517 75.8904C42.9903 74.2233 42.645 72.6343 42.7515 71.0062C42.9806 67.4766 43.1097 64.5363 42.545 61.4495V61.4039C42.3804 60.8438 42.7773 60.0624 43.0774 59.7986C43.6131 59.6814 44.1068 60.0363 44.6716 60.4498C44.9537 61.0212 45.1702 61.6231 45.317 62.244C45.4331 63.8004 45.9075 65.4219 46.3657 66.9947L46.6336 67.8999L47.137 67.1054C47.5952 66.389 48.0341 65.6759 48.4698 64.9596C48.4084 64.7805 48.3439 64.6047 48.2826 64.4256C47.7985 65.2689 47.3145 66.1025 46.7982 66.897Z" fill="#464646"/>
<path d="M55.479 85.4016C54.0075 87.3943 53.5428 89.9602 52.7425 92.4413C50.2158 100.184 48.9379 108.475 47.0469 116.393L47.4632 116.498C48.1086 113.831 48.6765 111.083 49.2315 108.422C50.3384 103.151 51.4905 97.7 53.1491 92.5748C53.3492 91.9627 53.5299 91.3408 53.7042 90.7416C54.2431 88.8726 54.7562 87.1045 55.8082 85.6784C56.2793 85.1085 56.7763 84.5322 57.2668 83.9722L57.5701 83.627L57.2926 83.3014C56.6795 83.9917 56.0631 84.695 55.479 85.4016Z" fill="#464646"/>
<path d="M60.9219 67.9292C62.2998 65.715 63.4034 63.3706 64.5748 61.0327L64.3167 60.5899L64.1489 60.9155L64.2844 60.528C64.2844 60.502 64.2554 60.4759 64.2392 60.4499L64.0037 60.0428C63.1324 62.4784 62.2191 64.8912 61.1929 67.2812C61.1143 67.502 61.0238 67.7183 60.9219 67.9292Z" fill="#464646"/>
<path d="M65.1231 43.3388C65.2435 43.2604 65.3832 43.2176 65.5265 43.2151C65.5984 43.2397 65.6611 43.286 65.7061 43.3478C65.7511 43.4095 65.7763 43.4837 65.7782 43.5603C64.7129 47.348 63.3976 51.0596 61.8413 54.6702C61.9123 54.7776 61.9833 54.8851 62.0478 54.9958L62.1156 55.113C63.7338 51.386 65.0955 47.551 66.1913 43.6352C66.2118 43.4437 66.163 43.2512 66.0539 43.0932C65.9447 42.9352 65.7826 42.8224 65.5975 42.7755C65.3167 42.7651 65.0403 42.8475 64.8101 43.01C62.9417 45.921 61.2991 48.871 59.6953 51.8439L59.9341 52.2997C61.5541 49.3236 63.2353 46.2856 65.1231 43.3388Z" fill="#464646"/>
<path d="M55.4799 85.4015C56.064 84.6949 56.6803 83.9916 57.2935 83.2916L57.0127 82.9659L56.6255 83.412C56.135 83.9753 55.6283 84.5549 55.1346 85.1508C53.9761 86.7235 53.4436 88.5632 52.8757 90.5104C52.7047 91.103 52.5272 91.7152 52.3303 92.3143C50.6458 97.4818 49.497 102.959 48.3902 108.253C47.8319 110.907 47.2575 113.652 46.625 116.302L47.0413 116.403C48.9323 108.484 50.2102 100.194 52.7369 92.451C53.5566 89.9503 54.0084 87.3943 55.4799 85.4015Z" fill="#464646"/>
<path d="M60.8049 78.4497C60.1047 79.8954 59.0172 81.2695 57.8555 82.6305L58.133 82.9561C59.3205 81.5723 60.4532 80.1461 61.1825 78.6483C63.7641 74.2949 65.3776 69.8567 67.0234 65.2103L66.7362 64.7349C65.0904 69.4302 63.4317 74.0278 60.8049 78.4497Z" fill="#464646"/>
<path d="M62.4177 63.1166L62.5306 63.338L62.3015 63.4617H62.2822C61.9046 64.4386 61.5174 65.4154 61.1075 66.3922C60.9881 66.5127 60.8687 66.8318 60.5234 67.7533L61.2882 68.1343C62.437 66.2848 63.4148 64.3181 64.3571 62.4132L64.8315 61.4559L64.5765 61.0099C63.4051 63.3478 62.3177 65.6922 60.9236 67.9063C61.569 66.2262 61.4109 66.6918 61.1947 67.2551C62.2208 64.8651 63.1309 62.4523 64.0054 60.0167L63.7246 59.5283C63.2987 60.7461 62.863 61.9422 62.4177 63.1166Z" fill="#464646"/>
<path d="M67.5873 45.8428L67.8519 45.8884C68.0807 46.334 68.1675 46.8401 68.1004 47.3374C66.9903 50.2028 65.9996 53.0552 65.0412 55.8033C64.7185 56.7085 64.4151 57.604 64.1021 58.4896L64.3829 58.9748C65.7189 55.1977 66.9967 51.3587 68.5167 47.4416C68.6228 46.7629 68.4805 46.0685 68.1165 45.4879L67.3937 45.3577C65.1961 48.4705 63.6665 51.8862 62.2305 55.3051C62.3208 55.4614 62.408 55.6112 62.5015 55.7675C63.9375 52.3876 65.4381 48.9459 67.5873 45.8428Z" fill="#464646"/>
<path d="M48.8755 63.4976C48.8142 63.3218 48.7529 63.1492 48.6884 62.9734C48.5012 63.299 48.3108 63.6246 48.1172 63.9307L48.3011 64.4484C48.4915 64.1489 48.6851 63.8232 48.8755 63.4976Z" fill="#464646"/>
<path d="M57.4805 65.6661C57.5224 65.5424 58.4486 63.3543 57.4805 65.6661V65.6661Z" fill="#464646"/>
<path d="M54.9414 60.3489C54.9608 60.3978 54.9834 60.4434 55.0027 60.4922C55.2318 60.0885 55.4545 59.6847 55.6772 59.2842C55.6513 59.2191 55.6223 59.1572 55.5933 59.0953L54.9414 60.3489Z" fill="#464646"/>
<path d="M59.8317 60.3457L60.3642 59.1507C60.3157 59.0595 60.2641 58.9651 60.2189 58.8739L60.1092 58.6655C59.9317 59.0725 59.751 59.473 59.5703 59.8768L59.8317 60.3457Z" fill="#464646"/>
<path d="M64 60.0494L64.2356 60.4564C64.2517 60.4824 64.2678 60.5085 64.2807 60.5345C64.4098 60.1829 64.5357 59.828 64.6615 59.473L64.3776 58.9846C64.2549 59.3395 64.1291 59.6945 64 60.0494Z" fill="#464646"/>
<path d="M57.716 56.461L58.3614 55.2758C58.2808 55.1228 58.2033 54.9502 58.1259 54.8102L57.4805 56.0084L57.716 56.461Z" fill="#464646"/>
<path d="M67.3966 64.1683C67.2998 64.0088 67.203 63.8427 67.1094 63.6864C66.9868 64.0413 66.8609 64.393 66.7383 64.7446L67.0255 65.22C67.1352 64.8944 67.2481 64.5916 67.3482 64.2725L67.3966 64.1683Z" fill="#464646"/>
<path d="M50.3847 60.9611C50.5557 60.6713 50.7268 60.375 50.8946 60.0819C50.8171 59.9321 50.7397 59.7824 50.659 59.6326L50.1523 60.5117L50.3847 60.9611Z" fill="#464646"/>
<path d="M65.2881 60.5671L65.0331 60.1243L64.5781 61.0327L64.8331 61.4788C64.9783 61.1727 65.1332 60.8667 65.2881 60.5671Z" fill="#464646"/>
<path d="M57.8604 82.6305L57.5829 82.3049C57.3957 82.5296 57.2053 82.7478 57.0117 82.9562L57.2925 83.2818L57.8604 82.6305Z" fill="#464646"/>
<path d="M57.4805 65.6662C57.6838 65.321 57.8774 64.9694 58.071 64.6177L58.0065 64.4712C57.8193 64.8684 57.6418 65.2657 57.4805 65.6662Z" fill="#464646"/>
<path d="M57.2891 83.2916L57.5666 83.6172C57.757 83.3958 57.9474 83.1776 58.1345 82.966L57.857 82.6404L57.2891 83.2916Z" fill="#464646"/>
<path d="M57.4776 49.4962C57.6357 49.1999 57.8003 48.9036 57.9552 48.6138C57.8713 48.4738 57.7874 48.3338 57.7003 48.197C57.5389 48.4803 57.3776 48.7701 57.2227 49.0599C57.2937 49.2032 57.3775 49.3497 57.4776 49.4962Z" fill="#464646"/>
<path d="M57.4812 56.0085L58.1266 54.8102L57.9813 54.5237L57.3359 55.7545L57.4812 56.0085Z" fill="#464646"/>
<path d="M51.6106 58.8088C51.5493 58.633 51.4847 58.4539 51.4234 58.2748L50.9394 59.1116L50.8555 59.2549L51.0459 59.7889L51.6106 58.8088Z" fill="#464646"/>
<path d="M48.8752 63.4976C48.6848 63.8232 48.4912 64.1488 48.3008 64.4483C48.3621 64.6274 48.4266 64.8033 48.4879 64.9824C48.6816 64.6567 48.8687 64.3311 49.0591 64.025C48.9978 63.8525 48.9365 63.6799 48.8752 63.4976Z" fill="#464646"/>
<path d="M57.4805 65.6661L57.5127 65.728L57.8354 65.8941C57.9871 65.6336 58.1259 65.3601 58.2711 65.0931C58.2033 64.9335 58.1323 64.7675 58.0613 64.6177C57.8645 64.9693 57.6709 65.321 57.4805 65.6661Z" fill="#464646"/>
<path d="M55.6783 59.2842C55.4557 59.6847 55.233 60.0884 55.0039 60.4922C55.0717 60.655 55.1459 60.8178 55.2169 60.9839L55.8978 59.7759C55.8236 59.6131 55.7526 59.447 55.6783 59.2842Z" fill="#464646"/>
<path d="M57.3358 55.7545L57.9812 54.5237L57.7391 54.045C57.524 54.464 57.3089 54.8808 57.0938 55.2954C57.0938 55.3117 57.1099 55.3247 57.1163 55.341L57.3358 55.7545Z" fill="#464646"/>
<path d="M57.4771 65.6662C57.6513 65.2657 57.8288 64.8684 58.0031 64.4712L57.7675 63.9404C57.6933 64.1032 57.6223 64.266 57.5481 64.4321V64.4549L57.3319 64.9726C57.3028 65.0377 57.2738 65.1126 57.2383 65.1908C57.3254 65.3536 57.4158 65.5164 57.5029 65.6727C58.4452 63.3543 57.519 65.5424 57.4771 65.6662Z" fill="#464646"/>
<path d="M61.8421 54.6702C61.7065 54.9958 61.5645 55.3214 61.4258 55.647C61.5194 55.8 61.6065 55.9498 61.6969 56.1029C61.8356 55.7772 61.9776 55.4516 62.1164 55.126L62.0486 55.0088C61.997 54.8851 61.9131 54.7776 61.8421 54.6702Z" fill="#464646"/>
<path d="M55.5992 59.0953C55.5282 58.926 55.454 58.7697 55.3798 58.5906C55.1636 59.0041 54.9474 59.4176 54.7344 59.8377C54.8054 60.0102 54.8764 60.1796 54.9506 60.3489L55.5992 59.0953Z" fill="#464646"/>
<path d="M59.2126 52.7524L59.7064 51.8439L59.5095 51.4695C59.3546 51.7951 59.1868 52.0979 59.0352 52.4138L59.2126 52.7524Z" fill="#464646"/>
<path d="M59.4136 53.1236L59.4458 53.1757L59.4749 53.2115L59.9557 52.3128L59.7169 51.8569L59.207 52.7524L59.4136 53.1236Z" fill="#464646"/>
<path d="M61.8218 56.3048C61.9574 55.9792 62.0961 55.6536 62.2349 55.328L62.1187 55.1359C61.98 55.4615 61.838 55.7871 61.6992 56.1127L61.8218 56.3048Z" fill="#464646"/>
<path d="M62.5258 63.338L62.4129 63.1166L62.2773 63.4715H62.2967L62.5258 63.338Z" fill="#464646"/>
<path d="M63.7227 59.5609L64.0034 60.0493C64.1325 59.6944 64.2551 59.3395 64.381 58.9846L64.1002 58.4994C63.9744 58.8576 63.8485 59.206 63.7227 59.5609Z" fill="#464646"/>
<path d="M62.0914 56.7672C62.2301 56.4416 62.3657 56.116 62.5044 55.7904C62.4109 55.6341 62.3237 55.4843 62.2334 55.328C62.0946 55.6536 61.9558 55.9792 61.8203 56.3048L62.0914 56.7672Z" fill="#464646"/>
<path d="M60.5117 59.4404C60.3407 59.8409 60.1697 60.2382 59.9922 60.6354L60.2503 61.0978C60.4246 60.7071 60.5956 60.3163 60.7634 59.9256L60.5117 59.4404Z" fill="#464646"/>
<path d="M53.8334 54.999C53.6075 55.3767 53.3913 55.7479 53.1719 56.1191L53.3784 56.6108L54.0238 55.494L53.8334 54.999Z" fill="#464646"/>
<path d="M51.1087 60.5313C51.0313 60.3815 50.9538 60.2317 50.8731 60.0819C50.7053 60.375 50.5343 60.6713 50.3633 60.9611L50.5989 61.4169L51.1087 60.5313Z" fill="#464646"/>
<path d="M51.6709 59.5479C51.7064 59.4795 51.7483 59.4111 51.787 59.346C51.7225 59.1669 51.6612 58.9878 51.5999 58.8087L51.0352 59.7856C51.0965 59.9646 51.161 60.1405 51.2223 60.3163L51.6709 59.5479Z" fill="#464646"/>
<path d="M59.832 60.3456C59.8869 60.4433 59.9417 60.5377 59.9934 60.6354C60.1709 60.2382 60.3419 59.8409 60.5129 59.4404L60.3645 59.1506L59.832 60.3456Z" fill="#464646"/>
<path d="M66.5532 63.9827C66.5209 64.0771 66.4886 64.1715 66.4531 64.266C66.5499 64.4255 66.6467 64.5916 66.7403 64.7446C66.863 64.393 66.9888 64.0413 67.1114 63.6864C67.0178 63.5268 66.921 63.3608 66.8275 63.2045C66.7371 63.465 66.6435 63.7254 66.5532 63.9827Z" fill="#464646"/>
<path d="M64.5785 61.0327L65.0399 60.1178C65.0206 60.0852 65.0012 60.0526 64.9851 60.0201C64.9173 59.9094 64.8495 59.7889 64.785 59.6945C64.6269 59.9973 64.4623 60.3001 64.3203 60.6062L64.5785 61.0327Z" fill="#464646"/>
<path d="M53.8355 54.9991C53.7645 54.8331 53.6967 54.6735 53.6289 54.4977L52.9609 55.6243L53.1707 56.1192C53.3934 55.748 53.6063 55.3768 53.8355 54.9991Z" fill="#464646"/>
<path d="M58.1902 49.0436C58.1106 48.9003 58.0267 48.757 57.9385 48.6138C57.7772 48.9036 57.6158 49.1999 57.4609 49.4962C57.5448 49.6427 57.6287 49.786 57.7094 49.9358C57.8708 49.6362 58.0289 49.3366 58.1902 49.0436Z" fill="#464646"/>
<path d="M56.4847 52.2672L56.517 52.2151C56.5686 52.1207 56.617 52.0262 56.6655 51.9318C56.588 51.7723 56.5138 51.6062 56.4363 51.4467L56.1395 52.0067C55.9835 52.2121 55.8143 52.4068 55.6328 52.5896L55.8458 52.9868C56.0736 52.7608 56.287 52.5204 56.4847 52.2672Z" fill="#464646"/>
<path d="M59.2563 51.0071L58.7852 51.9579L59.0304 52.4268C59.1885 52.1011 59.3531 51.7983 59.5048 51.4825L59.4176 51.3197C59.3628 51.2155 59.3079 51.1243 59.2563 51.0071Z" fill="#464646"/>
<path d="M56.1401 52.0067L56.437 51.4466L56.2047 50.9647C56.0627 51.235 55.9239 51.5052 55.7787 51.7722C55.6648 51.9188 55.5431 52.059 55.4141 52.1923C55.4883 52.3225 55.5625 52.456 55.6335 52.5895C55.8149 52.4067 55.9842 52.212 56.1401 52.0067Z" fill="#464646"/>
</g>
<path d="M46.4038 45.3055C46.4038 45.3055 37.6715 43.8761 38.5009 42.6258C39.3302 41.3754 46.4038 45.3055 46.4038 45.3055Z" fill="#464646"/>
<path d="M49.5271 37.0025C49.5271 37.0025 41.8017 33.3915 43.5346 32.4765C45.2675 31.5615 49.5271 37.0025 49.5271 37.0025Z" fill="#464646"/>
<path d="M59.2036 33.0854C59.2036 33.0854 58.7647 24.5055 57.2868 25.7852C55.8088 27.0648 59.2036 33.0854 59.2036 33.0854Z" fill="#464646"/>
<path d="M69.6523 33.9678C69.6523 33.9678 72.5566 27.4849 73.5247 29.9139C74.4928 32.343 69.6523 33.9678 69.6523 33.9678Z" fill="#464646"/>
<path d="M71.9805 43.4464C71.9805 43.4464 75.6496 38.6566 77.2308 40.4345C78.812 42.2123 71.9805 43.4464 71.9805 43.4464Z" fill="#464646"/>
</svg>
