<svg width="216" height="45" viewBox="0 0 216 45" fill="none" xmlns="http://www.w3.org/2000/svg">
<path d="M11.3892 36.8969C11.3892 36.8969 23.1318 36.165 34.8745 42.7398C46.6172 49.3145 60.1838 39.4524 60.1838 39.4524C60.1838 39.4524 51.3737 38.7245 40.3662 22.6556C40.3662 22.6556 30.0899 3.65926 18.3472 0.739817C18.3472 0.739817 8.80601 -1.45576 0 2.19954C0 2.19954 11.7427 2.19954 19.8175 16.8127C19.8175 16.8127 27.8884 33.6095 41.8326 39.4604C41.8326 39.4604 37.4135 40.1922 28.6235 35.8091C28.6356 35.8011 19.8296 31.4179 11.3892 36.8969Z" fill="white"/>
<path d="M51.3844 30.6861C51.3844 30.6861 52.8547 3.6513 76.3401 3.6513C76.3401 3.6513 74.1386 -2.92344 58.7241 3.6513L62.3959 0C62.3959 0 40.3769 4.39916 48.4517 25.5711L51.3844 30.6861Z" fill="white"/>
<path d="M54.3242 34.3371C54.3242 34.3371 57.9961 37.2606 61.6639 37.9924L67.5372 35.069L63.8654 34.3371C63.8654 34.3371 61.6639 27.7624 54.3242 34.3371Z" fill="white"/>
<path d="M67.5336 5.11549C67.5336 5.11549 53.5894 9.51464 51.3839 30.6866C51.3839 30.6866 43.3131 24.1118 51.3839 11.6902C51.3839 11.6902 58.7236 2.19205 67.5336 5.11549Z" fill="white"/>
<path d="M104.266 15.4405C104.328 18.1706 103.446 20.8389 101.767 22.9991C99.9569 25.3106 97.6349 26.4651 94.8013 26.4624C94.2657 26.4624 93.4515 26.4424 92.3588 26.4024C91.2701 26.3624 90.4545 26.3384 89.9162 26.3384C89.3779 26.3384 88.6869 26.3624 87.7067 26.4024C86.7265 26.4424 85.9833 26.4624 85.4972 26.4624C85.4422 26.4723 85.3856 26.4689 85.3323 26.4523C85.279 26.4357 85.2305 26.4065 85.191 26.3672C85.1515 26.3279 85.1222 26.2796 85.1056 26.2266C85.0889 26.1735 85.0854 26.1172 85.0954 26.0625C85.0954 24.9347 85.1396 23.2297 85.228 20.9475C85.3164 18.6652 85.3606 16.9562 85.3606 15.8204C85.3606 14.6153 85.3191 12.8063 85.236 10.3935C85.153 7.9806 85.1115 6.17162 85.1115 4.96652C85.1115 4.75056 85.2481 4.64258 85.5132 4.64258C85.915 4.64258 86.4734 4.64258 87.2407 4.64258H88.9641H90.5911C91.3183 4.64258 91.8687 4.64258 92.2463 4.64258C95.8592 4.64258 98.5495 5.32111 100.317 6.67819C101.631 7.70814 102.649 9.06391 103.27 10.6094C103.928 12.1356 104.267 13.7795 104.266 15.4405ZM100.442 15.4405C100.442 13.2063 99.8002 11.3826 98.5174 9.96956C97.1782 8.5085 95.3986 7.77798 93.1783 7.77798C91.333 7.77798 90.5885 7.76731 90.9447 7.74598C89.7288 7.80997 89.1195 8.03259 89.1168 8.41385C89.1168 9.2137 89.0994 10.4135 89.0646 12.0132C89.0297 13.6129 89.011 14.8126 89.0083 15.6125C89.0083 16.4123 89.0271 17.5948 89.0646 19.1598C89.102 20.7248 89.1195 21.9059 89.1168 22.7031C89.1168 23.103 89.7435 23.327 90.9929 23.387C90.8241 23.387 91.5874 23.387 93.2707 23.387C94.2381 23.4189 95.2043 23.2933 96.1311 23.0151C97.0598 22.6624 97.8749 22.0653 98.4892 21.2874C99.8259 19.6357 100.52 17.5602 100.446 15.4405H100.442Z" fill="white"/>
<path d="M120.936 18.8922C120.978 20.9499 120.209 22.9422 118.794 24.4431C118.104 25.1902 117.266 25.7865 116.333 26.1945C115.399 26.6024 114.391 26.8131 113.371 26.8131C112.352 26.8131 111.343 26.6024 110.41 26.1945C109.476 25.7865 108.638 25.1902 107.948 24.4431C106.532 22.9492 105.763 20.9613 105.806 18.9082C105.764 16.8551 106.533 14.8675 107.948 13.3732C108.643 12.6352 109.483 12.0469 110.416 11.6448C111.349 11.2426 112.355 11.0352 113.371 11.0352C114.388 11.0352 115.393 11.2426 116.326 11.6448C117.259 12.0469 118.099 12.6352 118.794 13.3732C119.498 14.1077 120.05 14.9733 120.417 15.9203C120.785 16.8674 120.961 17.8773 120.936 18.8922ZM117.642 18.9241C117.669 17.7391 117.25 16.5867 116.468 15.6928C116.094 15.2392 115.621 14.876 115.085 14.6308C114.549 14.3856 113.965 14.2646 113.375 14.277C112.785 14.2649 112.2 14.3844 111.663 14.6266C111.126 14.8688 110.65 15.2276 110.27 15.6768C109.506 16.586 109.088 17.7333 109.088 18.9181C109.088 20.103 109.506 21.2503 110.27 22.1595C110.647 22.6117 111.119 22.9756 111.653 23.2254C112.188 23.4752 112.771 23.6047 113.361 23.6047C113.951 23.6047 114.534 23.4752 115.069 23.2254C115.603 22.9756 116.075 22.6117 116.452 22.1595C117.227 21.2599 117.643 20.1087 117.621 18.9241H117.642Z" fill="white"/>
<path d="M127.064 4.90331V5.10327C126.833 8.95853 126.72 12.2699 126.722 15.0374C126.722 16.2745 126.742 18.1221 126.782 20.5803C126.823 23.0385 126.844 24.8808 126.847 26.1072C126.847 26.3472 126.762 26.4632 126.598 26.4632H123.613C123.428 26.4632 123.332 26.3472 123.332 26.1072C123.332 24.8835 123.342 23.0412 123.364 20.5803C123.385 18.1194 123.396 16.2718 123.396 15.0374C123.396 13.9176 123.341 12.2366 123.231 9.99433C123.121 7.75209 123.066 6.07508 123.066 4.9633C123.066 4.75934 123.175 4.65536 123.396 4.65536C123.617 4.65536 123.866 4.65535 124.239 4.69935C124.613 4.74334 124.894 4.74734 125.083 4.74734C125.272 4.74734 125.573 4.74734 125.955 4.69935C126.337 4.65136 126.63 4.65536 126.815 4.65536C126.999 4.65536 127.076 4.73534 127.064 4.90331Z" fill="white"/>
<path d="M134.107 4.90331V5.10327C133.876 8.95853 133.761 12.2699 133.761 15.0374C133.761 16.2745 133.783 18.1221 133.826 20.5803C133.868 23.0385 133.888 24.8808 133.886 26.1072C133.886 26.3472 133.801 26.4632 133.637 26.4632H130.656C130.467 26.4632 130.371 26.3472 130.371 26.1072C130.371 24.8835 130.381 23.0412 130.403 20.5803C130.424 18.1194 130.435 16.2718 130.435 15.0374C130.435 13.9176 130.38 12.2366 130.27 9.99433C130.16 7.75209 130.105 6.07508 130.105 4.9633C130.105 4.75934 130.218 4.65536 130.435 4.65536C130.652 4.65536 130.905 4.65535 131.279 4.69935C131.652 4.74334 131.933 4.74734 132.122 4.74734C132.311 4.74734 132.612 4.74734 132.998 4.69935C133.384 4.65136 133.669 4.65536 133.854 4.65536C134.038 4.65536 134.119 4.73534 134.107 4.90331Z" fill="white"/>
<path d="M152.383 12.3974C152.374 12.4918 152.358 12.5854 152.335 12.6774C151.961 14.7047 151.757 16.7593 151.724 18.8202C151.724 18.9242 151.858 21.2504 152.126 25.7989V26.0188C152.126 26.3188 152.001 26.4667 151.724 26.4667C151.291 26.4785 150.86 26.5132 150.431 26.5707C150.003 26.6271 149.572 26.6604 149.141 26.6707C148.944 26.6707 148.792 26.3068 148.687 25.5829C148.583 24.859 148.486 24.4951 148.39 24.4951C148.084 24.6602 147.801 24.8631 147.546 25.099C147.023 25.5393 146.452 25.919 145.843 26.2308C145.082 26.6308 144.236 26.8447 143.376 26.8547C142.398 26.865 141.431 26.6545 140.546 26.2388C139.662 25.8232 138.884 25.2134 138.27 24.4551C136.974 22.9694 136.273 21.06 136.302 19.0921C136.302 16.7939 136.962 14.8916 138.282 13.3852C138.962 12.6147 139.805 12.0043 140.75 11.5983C141.696 11.1922 142.721 11.0007 143.75 11.0377C145.304 11.0227 146.801 11.6158 147.92 12.6894C148.097 12.8933 148.374 13.1973 148.747 13.5892C148.759 13.603 148.773 13.6144 148.789 13.6226C148.805 13.6309 148.822 13.6358 148.84 13.6372C148.904 13.6372 148.992 13.3093 149.105 12.6574C149.217 12.0055 149.366 11.6776 149.543 11.6776C150.075 11.7112 150.603 11.7888 151.122 11.9095C151.953 12.0855 152.383 12.2495 152.383 12.3974ZM148.398 18.8922C148.426 17.6987 148.023 16.5347 147.261 15.6128C146.9 15.1444 146.433 14.7668 145.899 14.5105C145.364 14.2542 144.777 14.1263 144.184 14.1371C143.586 14.1289 142.994 14.2561 142.452 14.5089C141.911 14.7618 141.434 15.1338 141.058 15.5968C140.264 16.5108 139.835 17.6837 139.853 18.8922C139.834 20.0923 140.264 21.2565 141.058 22.1596C141.434 22.6221 141.911 22.9938 142.453 23.2466C142.994 23.4994 143.586 23.6269 144.184 23.6193C144.774 23.6244 145.357 23.494 145.888 23.238C146.419 22.982 146.883 22.6075 147.245 22.1436C148.011 21.2337 148.42 20.079 148.398 18.8922Z" fill="white"/>
<path d="M163.858 11.866C163.866 12.9079 163.786 13.9485 163.621 14.9774C163.593 15.2134 163.489 15.3334 163.312 15.3334C163.135 15.3334 162.762 15.3094 162.32 15.2654C161.878 15.2214 161.54 15.1934 161.312 15.1934C159.998 15.1934 159.162 15.5613 158.797 16.2972C158.58 16.7451 158.471 17.6782 158.471 19.0966V20.8083C158.471 21.3882 158.491 22.268 158.54 23.4478C158.588 24.6276 158.612 25.5114 158.612 26.0913C158.612 26.3579 158.491 26.4912 158.25 26.4912C157.929 26.4912 157.447 26.4912 156.784 26.4912H155.314C155.077 26.4912 154.956 26.3632 154.956 26.0913C154.956 25.2515 154.969 23.9877 154.996 22.3C155.02 20.6083 155.032 19.3406 155.032 18.4887C155.032 15.9292 154.794 13.8723 154.317 12.3179C154.298 12.2584 154.287 12.1965 154.285 12.134C154.285 12.0736 154.304 12.0147 154.34 11.9663C154.376 11.9179 154.428 11.8826 154.486 11.866C154.888 11.826 155.414 11.766 156.093 11.6821C157.218 11.4741 157.74 11.3701 157.656 11.3701C157.824 11.3701 157.933 11.6781 157.985 12.2859C158.037 12.8938 158.13 13.2058 158.266 13.2058C158.294 13.2025 158.321 13.1914 158.343 13.1738L159.624 12.3739C160.073 12.1027 160.557 11.8929 161.062 11.75C161.57 11.6138 162.095 11.5518 162.621 11.5661C163.453 11.5421 163.858 11.6501 163.858 11.866Z" fill="white"/>
<path d="M181.065 18.9565C181.098 20.9167 180.416 22.8223 179.145 24.3195C178.539 25.0847 177.766 25.7013 176.883 26.1215C176.001 26.5417 175.033 26.7543 174.055 26.743C172.786 26.7687 171.54 26.4118 170.479 25.7192C170.077 25.3673 169.648 25.0194 169.23 24.6754C169.113 24.7074 169.041 25.0194 169.001 25.6112C168.961 26.2031 168.88 26.4951 168.744 26.4951H165.449C165.325 26.4951 165.265 26.4271 165.265 26.2951C165.265 26.2951 165.265 26.2111 165.293 26.0152C165.462 24.3568 165.545 21.1854 165.542 16.501C165.542 14.5814 165.459 11.7672 165.293 8.05862C165.188 5.69507 165.14 4.65927 165.14 4.95121C165.133 4.8945 165.137 4.83686 165.154 4.78216C165.171 4.72747 165.2 4.67701 165.238 4.63417C165.276 4.59134 165.323 4.55714 165.375 4.53387C165.428 4.5106 165.484 4.49882 165.542 4.4993L167.217 4.43531C167.362 4.43531 167.655 4.39132 168.105 4.32733C168.403 4.27196 168.706 4.2412 169.009 4.23535C169.178 4.23535 169.262 4.35533 169.262 4.59128C169.262 4.94322 169.234 5.48311 169.182 6.19098C169.129 6.89884 169.105 7.46273 169.105 7.82666C169.105 8.35989 169.081 9.1704 169.033 10.2582C168.985 11.346 168.962 12.1565 168.965 12.6897C168.965 13.0897 169.037 13.2816 169.182 13.2816C169.254 13.2816 169.334 13.2256 169.419 13.1096C169.956 12.4266 170.647 11.8793 171.436 11.5124C172.226 11.1454 173.091 10.9692 173.962 10.9981C174.96 10.9699 175.95 11.1718 176.856 11.5881C177.762 12.0044 178.559 12.6237 179.185 13.3976C180.457 14.968 181.124 16.9396 181.065 18.9565ZM177.538 18.8206C177.555 17.6276 177.142 16.468 176.373 15.5532C176.013 15.0815 175.548 14.6997 175.015 14.438C174.481 14.1763 173.894 14.0419 173.299 14.0455C172.7 14.0371 172.106 14.1658 171.564 14.4217C171.022 14.6775 170.547 15.0536 170.174 15.5212C169.401 16.453 168.978 17.6239 168.978 18.8326C168.978 20.0412 169.401 21.2121 170.174 22.1439C170.551 22.6112 171.031 22.9869 171.576 23.2425C172.121 23.4982 172.717 23.6272 173.319 23.6196C173.915 23.6254 174.504 23.492 175.038 23.2301C175.573 22.9683 176.038 22.5853 176.397 22.1119C177.157 21.1843 177.562 20.0177 177.538 18.8206Z" fill="white"/>
<path d="M187.362 7.87051C187.362 9.14493 186.648 9.78214 185.22 9.78214C183.793 9.78214 183.07 9.14493 183.051 7.87051C183.047 7.59976 183.105 7.33165 183.221 7.08688C183.338 6.84211 183.509 6.62722 183.722 6.45878C184.145 6.10988 184.677 5.91895 185.226 5.91895C185.776 5.91895 186.308 6.10988 186.731 6.45878C186.937 6.6312 187.1 6.84786 187.209 7.09241C187.319 7.33696 187.371 7.60301 187.362 7.87051ZM187.253 12.0857C187.253 12.8855 187.205 14.0853 187.104 15.685C187.004 17.2847 186.956 18.4845 186.956 19.3123C186.956 20.1402 186.956 21.2039 187.004 22.7117C187.052 24.2194 187.048 25.3432 187.048 26.091C187.048 26.311 186.956 26.4189 186.767 26.4189H183.722C183.505 26.4189 183.396 26.207 183.396 25.7791C183.396 25.0632 183.396 23.9914 183.449 22.5557C183.501 21.12 183.505 20.0402 183.505 19.3123C183.505 18.5125 183.445 17.3007 183.324 15.677C183.204 14.0533 183.143 12.8402 183.143 12.0377C183.143 11.8617 183.256 11.7738 183.473 11.7738C183.763 11.7814 184.053 11.8068 184.341 11.8497C184.924 11.9563 185.521 11.9563 186.104 11.8497C186.397 11.8062 186.692 11.7808 186.988 11.7738C187.165 11.7898 187.253 11.8897 187.253 12.0857Z" fill="white"/>
<path d="M199.273 11.866C199.279 12.9077 199.201 13.9482 199.04 14.9774C199.007 15.2134 198.903 15.3334 198.726 15.3334C198.549 15.3334 198.176 15.3094 197.734 15.2654C197.292 15.2214 196.955 15.1934 196.726 15.1934C195.416 15.1934 194.578 15.5613 194.211 16.2972C193.994 16.7451 193.885 17.6782 193.885 19.0966V20.8083C193.885 21.3895 193.908 22.2694 193.954 23.4478C193.999 24.6262 194.023 25.5074 194.026 26.0913C194.026 26.3579 193.905 26.4912 193.664 26.4912C193.343 26.4912 192.861 26.4912 192.198 26.4912H190.732C190.491 26.4912 190.37 26.3632 190.37 26.0913C190.37 25.2515 190.384 23.9877 190.41 22.3C190.434 20.6083 190.45 19.3406 190.45 18.4887C190.45 15.9292 190.211 13.8723 189.731 12.3179C189.714 12.2579 189.703 12.1963 189.699 12.134C189.698 12.0729 189.718 12.0132 189.755 11.9646C189.792 11.916 189.845 11.8813 189.904 11.866C190.286 11.826 190.828 11.766 191.511 11.6821C192.636 11.4741 193.154 11.3701 193.074 11.3701C193.239 11.3701 193.347 11.6781 193.399 12.2859C193.451 12.8938 193.544 13.2058 193.68 13.2058C193.71 13.2021 193.737 13.191 193.761 13.1738L195.038 12.3739C195.487 12.1027 195.971 11.8929 196.477 11.75C196.994 11.603 197.53 11.533 198.067 11.5421C198.871 11.5421 199.273 11.6501 199.273 11.866Z" fill="white"/>
<path d="M216 4.77911C216 6.11219 215.94 8.1118 215.819 10.778C215.699 13.4441 215.64 15.4437 215.642 16.7768C215.642 20.8694 215.731 23.9674 215.907 26.071V26.275C215.907 26.379 215.775 26.447 215.486 26.4749C215.205 26.4995 214.923 26.4995 214.642 26.4749L214.047 26.419C213.891 26.419 213.646 26.419 213.361 26.4629C213.075 26.5069 212.83 26.5109 212.674 26.5109C212.517 26.5109 212.445 26.151 212.416 25.4311C212.388 24.7113 212.352 24.3434 212.3 24.3354C212.211 24.3873 212.132 24.4551 212.067 24.5353C210.637 26.071 208.996 26.8389 207.146 26.8389C206.155 26.86 205.173 26.6546 204.274 26.2386C203.376 25.8226 202.585 25.2071 201.963 24.4393C200.676 22.9215 199.991 20.9866 200.039 19.0004C199.977 16.9711 200.666 14.99 201.975 13.4334C202.62 12.6658 203.432 12.0541 204.349 11.6447C205.267 11.2352 206.265 11.0387 207.27 11.0699C208.515 11.0464 209.729 11.4535 210.705 12.2217C211.155 12.6056 211.598 12.9935 212.035 13.3855C212.076 13.3677 212.111 13.337 212.133 13.2981C212.156 13.2592 212.165 13.2141 212.159 13.1695V8.15046C212.159 7.81053 212.159 7.29063 212.111 6.59876C212.063 5.90689 212.067 5.37899 212.067 5.02706C212.067 4.77911 212.147 4.65513 212.316 4.65513C212.718 4.65513 213.272 4.61914 214.031 4.55115C214.791 4.48317 215.361 4.45117 215.735 4.45117C215.912 4.45117 216 4.55915 216 4.77911ZM212.095 18.9244C212.112 17.73 211.703 16.5684 210.942 15.645C210.585 15.1738 210.122 14.7922 209.591 14.5304C209.059 14.2687 208.474 14.134 207.881 14.1373C207.273 14.1246 206.671 14.252 206.121 14.5094C205.571 14.7667 205.089 15.1472 204.711 15.621C203.911 16.5567 203.482 17.7516 203.506 18.9804C203.49 20.1791 203.931 21.3394 204.739 22.2278C205.115 22.6909 205.592 23.0631 206.133 23.3166C206.675 23.5701 207.267 23.6983 207.865 23.6915C208.461 23.7015 209.05 23.5729 209.587 23.316C210.124 23.0591 210.594 22.681 210.958 22.2118C211.714 21.2832 212.116 20.1192 212.095 18.9244Z" fill="white"/>
<path d="M91.3699 31.6898C91.2614 31.8658 91.1168 32.1297 90.9279 32.4896C90.8388 32.7288 90.7355 32.9625 90.6186 33.1895C90.6053 33.2116 90.5865 33.2299 90.5639 33.2425C90.5414 33.2551 90.5159 33.2617 90.4901 33.2615L89.7187 32.9776C89.3103 32.8134 88.8771 32.7188 88.4372 32.6976C87.457 32.6976 86.9669 33.1269 86.9669 33.9854C86.9669 34.4613 87.3083 34.8812 87.9953 35.2331C89.1523 35.833 89.791 36.1809 89.9156 36.2689C90.2502 36.5306 90.5178 36.8674 90.6965 37.2518C90.8753 37.6362 90.9601 38.0572 90.944 38.4805C90.9613 39.0275 90.841 39.5701 90.5941 40.059C90.3471 40.5479 89.9813 40.9676 89.5299 41.28C88.6159 41.9165 87.5192 42.2406 86.4044 42.2038C85.8299 42.2038 85.5206 42.1398 85.4804 42.0158C85.4563 41.8119 85.4081 41.5199 85.3358 41.132C85.2916 40.972 85.2273 40.7321 85.1349 40.4161C85.1198 40.3723 85.1117 40.3265 85.1108 40.2802C85.1108 40.2042 85.151 40.1682 85.2314 40.1682C85.3117 40.1682 85.5568 40.1682 85.8179 40.2082C86.079 40.2482 86.2799 40.2482 86.4125 40.2482C88.0676 40.2482 88.8912 39.7163 88.8912 38.6485C88.8912 38.1286 88.5577 37.6766 87.8908 37.2967C86.6856 36.6049 86.0589 36.2489 86.0308 36.2209C85.7029 35.9617 85.4408 35.6294 85.2657 35.2508C85.0905 34.8722 85.0072 34.4579 85.0225 34.0413C85.0032 33.6025 85.079 33.1647 85.2447 32.7576C85.4103 32.3505 85.662 31.9836 85.9826 31.6818C86.6663 31.087 87.5542 30.7776 88.4613 30.818C88.958 30.829 89.4516 30.8988 89.9316 31.0259C90.414 31.129 90.8739 31.3173 91.2895 31.5818C91.3222 31.613 91.3494 31.6496 91.3699 31.6898Z" fill="white"/>
<path d="M99.8349 38.1763C99.8563 39.2291 99.4626 40.2484 98.7382 41.0158C98.3905 41.403 97.9627 41.7107 97.4842 41.9178C97.0057 42.1249 96.4879 42.2265 95.9662 42.2155C95.4428 42.2266 94.9231 42.1252 94.4427 41.9182C93.9622 41.7111 93.5323 41.4033 93.1822 41.0158C92.479 40.238 92.0898 39.2287 92.0898 38.1823C92.0898 37.1359 92.479 36.1266 93.1822 35.3489C93.5334 34.9628 93.9636 34.6559 94.4438 34.449C94.924 34.2421 95.4431 34.1398 95.9662 34.1491C96.4865 34.1393 97.0028 34.2414 97.4798 34.4485C97.9568 34.6555 98.3833 34.9626 98.7301 35.3489C99.0918 35.7248 99.3755 36.168 99.5651 36.6532C99.7546 37.1383 99.8463 37.6559 99.8349 38.1763ZM98.1476 38.1763C98.162 37.5695 97.9485 36.9792 97.5491 36.5206C97.3567 36.2894 97.1146 36.1043 96.8406 35.979C96.5665 35.8537 96.2677 35.7914 95.9662 35.7968C95.6614 35.7868 95.3582 35.8461 95.0798 35.9701C94.8013 36.0941 94.555 36.2797 94.3593 36.5126C93.9701 36.9782 93.757 37.5647 93.757 38.1703C93.757 38.776 93.9701 39.3625 94.3593 39.828C94.5523 40.0595 94.7942 40.2459 95.0678 40.3738C95.3413 40.5017 95.6399 40.568 95.9421 40.568C96.2444 40.568 96.5429 40.5017 96.8165 40.3738C97.09 40.2459 97.3319 40.0595 97.5249 39.828C97.9262 39.3768 98.1477 38.7949 98.1476 38.1923V38.1763Z" fill="white"/>
<path d="M102.983 31.0137V31.1177C102.863 33.0907 102.804 34.785 102.807 36.2007C102.807 36.8326 102.807 37.7764 102.839 39.0362C102.871 40.2959 102.871 41.2398 102.871 41.8676C102.871 41.9876 102.827 42.0476 102.742 42.0476H101.216C101.119 42.0476 101.071 41.9876 101.071 41.8676C101.071 41.2411 101.071 40.2973 101.071 39.0362C101.071 37.7751 101.071 36.8299 101.071 36.2007C101.071 35.6302 101.043 34.7703 100.987 33.6212C100.93 32.4694 100.902 31.6216 100.902 31.0457C100.902 30.9377 100.959 30.8857 101.071 30.8857C101.184 30.8857 101.312 30.8857 101.505 30.9097C101.698 30.9337 101.838 30.9337 101.935 30.9337C102.031 30.9337 102.184 30.9337 102.381 30.9097C102.578 30.8857 102.726 30.8857 102.823 30.8857C102.919 30.8857 102.987 30.9297 102.983 31.0137Z" fill="white"/>
<path d="M111.969 34.817C111.969 35.2169 111.969 35.7888 111.921 36.5727C111.873 37.3565 111.873 37.9404 111.873 38.3323C111.873 38.7243 111.873 39.3001 111.909 40.072C111.945 40.8439 111.945 41.4237 111.945 41.8117C111.948 41.8582 111.935 41.9043 111.907 41.9417C111.879 41.979 111.838 42.0053 111.793 42.0156C111.748 42.0156 111.21 42.0156 110.186 42.0156C110.121 42.0156 110.085 41.8197 110.069 41.4197C110.053 41.0198 110.025 40.8239 109.981 40.8239C109.934 40.8342 109.892 40.8594 109.86 40.8958C109.151 41.5868 108.212 41.9963 107.221 42.0476C106.042 42.0476 105.264 41.6237 104.887 40.7759C104.654 40.2426 104.537 39.2988 104.537 37.9444C104.519 36.8944 104.617 35.8455 104.831 34.817C104.879 34.6091 104.967 34.5051 105.096 34.5051H105.791C106.1 34.5051 106.333 34.5051 106.486 34.5051C106.638 34.5051 106.646 34.5651 106.646 34.681C106.633 35.0281 106.598 35.374 106.542 35.7168C106.482 36.0769 106.441 36.4401 106.421 36.8046C106.421 37.1246 106.397 37.4725 106.397 37.8564C106.36 38.4858 106.428 39.1169 106.598 39.7241C106.827 40.3 107.337 40.5839 108.125 40.5839C108.568 40.5472 108.989 40.3754 109.33 40.092C109.816 39.7481 110.065 39.4161 110.081 39.0962C110.111 38.7016 110.124 37.3019 110.121 34.897C110.121 34.637 110.23 34.4971 110.451 34.4971H111.769C111.893 34.5531 111.969 34.649 111.969 34.817Z" fill="white"/>
<path d="M118.05 40.5839C118.05 40.7039 118.05 40.8598 118.018 41.0638C117.986 41.2678 117.974 41.4637 117.97 41.5477C117.972 41.6073 117.964 41.6668 117.946 41.7237C117.906 41.7738 117.853 41.8125 117.793 41.8356C117.134 42.0771 116.433 42.1819 115.732 42.1436C114.483 42.1436 113.86 41.5837 113.86 40.4559C113.86 40.008 113.86 39.3281 113.892 38.4243C113.924 37.5205 113.924 36.8246 113.924 36.3927C113.93 36.3476 113.925 36.3019 113.911 36.2588C113.897 36.2156 113.873 36.176 113.843 36.1426C113.812 36.1092 113.774 36.0828 113.732 36.0652C113.69 36.0477 113.644 36.0393 113.599 36.0408C113.402 36.0408 113.197 36.0408 113.012 36.0408C112.904 36.0168 112.848 35.7968 112.848 35.3889C112.853 35.2239 112.871 35.0595 112.9 34.897C112.908 34.835 112.938 34.7779 112.984 34.7355C113.031 34.6931 113.09 34.6682 113.153 34.665C113.286 34.665 113.418 34.665 113.555 34.665C113.8 34.665 113.92 34.545 113.92 34.3411C113.92 34.1371 113.92 33.8052 113.9 33.3693C113.88 32.9334 113.88 32.6094 113.88 32.3895C113.88 31.9895 113.956 31.8096 114.105 31.8096C114.153 31.8096 114.655 31.8936 115.608 32.0575C115.732 32.0575 115.792 32.1295 115.792 32.2295C115.792 32.4654 115.792 32.8134 115.74 33.2813C115.688 33.7492 115.688 34.0811 115.688 34.3331C115.688 34.4851 115.76 34.561 115.905 34.561H117.821C117.914 34.561 117.958 34.593 117.958 34.657C117.955 34.7602 117.946 34.863 117.93 34.965C117.913 35.0682 117.904 35.1724 117.901 35.2769C117.901 35.3569 117.901 35.4809 117.901 35.6448C117.901 35.8088 117.901 35.9328 117.901 36.0088C117.901 36.0848 117.825 36.1607 117.677 36.1607C117.464 36.1607 117.142 36.1607 116.712 36.1167C116.282 36.0728 115.957 36.0728 115.744 36.0728C115.699 36.0728 115.666 36.2247 115.648 36.5287C115.62 36.9046 115.608 37.4325 115.608 38.1284V39.3281C115.588 39.652 115.631 39.9766 115.736 40.2839C115.812 40.425 115.93 40.5391 116.074 40.6107C116.218 40.6823 116.381 40.7079 116.54 40.6839C116.785 40.6726 117.029 40.6364 117.267 40.5759C117.499 40.5168 117.738 40.482 117.978 40.4719C118.018 40.4439 118.05 40.4919 118.05 40.5839Z" fill="white"/>
<path d="M121.272 32.5333C121.272 33.1852 120.907 33.5131 120.175 33.5131C119.444 33.5131 119.067 33.1852 119.067 32.5333C119.064 32.3946 119.093 32.2572 119.153 32.1317C119.212 32.0062 119.299 31.8959 119.408 31.8094C119.624 31.6309 119.896 31.5332 120.177 31.5332C120.458 31.5332 120.73 31.6309 120.947 31.8094C121.053 31.8973 121.137 32.0083 121.194 32.1338C121.25 32.2592 121.277 32.3959 121.272 32.5333ZM121.216 34.6889C121.216 35.0888 121.188 35.7127 121.14 36.5405C121.091 37.3684 121.063 37.9843 121.063 38.3962C121.063 38.8081 121.063 39.364 121.087 40.1358C121.111 40.9077 121.111 41.4836 121.111 41.8675C121.111 41.9795 121.063 42.0315 120.967 42.0315H119.408C119.296 42.0315 119.239 41.9235 119.239 41.7075C119.239 41.3396 119.239 40.7917 119.267 40.0559C119.296 39.32 119.296 38.7681 119.296 38.3962C119.296 38.0242 119.267 37.3644 119.203 36.5365C119.139 35.7087 119.111 35.0888 119.111 34.6729C119.111 34.5849 119.167 34.5369 119.279 34.5369C119.429 34.5427 119.578 34.5561 119.725 34.5769C120.023 34.6302 120.328 34.6302 120.625 34.5769C120.776 34.5559 120.927 34.5425 121.079 34.5369C121.168 34.5369 121.216 34.5889 121.216 34.6889Z" fill="white"/>
<path d="M130.038 38.1764C130.059 39.2285 129.667 40.2472 128.945 41.0159C128.592 41.3977 128.162 41.7024 127.684 41.9108C127.206 42.1192 126.689 42.2268 126.168 42.2268C125.646 42.2268 125.129 42.1192 124.651 41.9108C124.173 41.7024 123.743 41.3977 123.39 41.0159C122.684 40.2394 122.293 39.2296 122.293 38.1824C122.293 37.1353 122.684 36.1255 123.39 35.349C123.746 34.9726 124.176 34.6728 124.653 34.4679C125.13 34.2629 125.644 34.1572 126.163 34.1572C126.683 34.1572 127.197 34.2629 127.674 34.4679C128.151 34.6728 128.581 34.9726 128.937 35.349C129.299 35.7251 129.582 36.1685 129.771 36.6536C129.959 37.1388 130.05 37.6562 130.038 38.1764ZM128.351 38.1764C128.367 37.5764 128.157 36.992 127.764 36.5367C127.57 36.3023 127.323 36.1153 127.045 35.9898C126.767 35.8644 126.463 35.8039 126.157 35.8129C125.853 35.8029 125.549 35.8622 125.271 35.9862C124.993 36.1103 124.746 36.2958 124.551 36.5287C124.152 36.9907 123.938 37.5833 123.952 38.1924C123.94 38.799 124.156 39.3882 124.559 39.8441C124.752 40.0756 124.993 40.262 125.267 40.3899C125.541 40.5178 125.839 40.5841 126.141 40.5841C126.444 40.5841 126.742 40.5178 127.016 40.3899C127.289 40.262 127.531 40.0756 127.724 39.8441C128.132 39.3903 128.356 38.8014 128.351 38.1924V38.1764Z" fill="white"/>
<path d="M138.208 41.8916C138.208 42.0076 138.156 42.0636 138.052 42.0636C137.875 42.0636 137.61 42.0636 137.248 42.0636H136.445C136.348 42.0636 136.3 41.9876 136.3 41.8356C136.3 41.569 136.308 41.1691 136.324 40.6358C136.324 40.1079 136.348 39.708 136.348 39.4361C136.348 39.1641 136.348 38.9082 136.348 38.4843C136.348 38.0603 136.348 37.7444 136.348 37.5324C136.386 37.0893 136.294 36.6448 136.083 36.2527C135.937 36.0893 135.753 35.9636 135.547 35.8863C135.342 35.809 135.12 35.7824 134.902 35.8088C134.498 35.8598 134.115 36.0142 133.789 36.2567C133.291 36.5686 133.038 36.8486 133.038 37.0925V41.8676C133.038 41.9996 132.99 42.0636 132.885 42.0636C132.717 42.0636 132.459 42.0636 132.118 42.0636H131.351C131.242 42.0636 131.186 42.0036 131.186 41.8836C131.186 41.4837 131.186 40.8358 131.206 39.996C131.226 39.1561 131.206 38.5282 131.206 38.1043C131.215 37.051 131.094 36.0006 130.844 34.9769C130.832 34.9435 130.824 34.9085 130.82 34.873C130.82 34.821 130.856 34.781 130.925 34.761L131.841 34.613C132.411 34.521 132.712 34.473 132.741 34.473C132.769 34.473 132.793 34.517 132.805 34.601C132.83 34.9383 132.891 35.272 132.986 35.5968C133.263 35.3809 133.628 35.1089 134.082 34.797C134.561 34.4838 135.117 34.308 135.689 34.2891C136.688 34.2891 137.373 34.5783 137.742 35.1569C138.06 35.7948 138.199 36.5065 138.144 37.2165C138.144 37.3791 138.144 37.6311 138.144 37.9724C138.144 38.3123 138.144 38.5642 138.144 38.7362C138.144 39.0921 138.144 39.62 138.144 40.3359C138.144 41.0518 138.208 41.5357 138.208 41.8916Z" fill="white"/>
<path d="M143.466 39.6162C143.476 39.9859 143.395 40.3524 143.229 40.6836C143.064 41.0148 142.82 41.3006 142.518 41.5158C141.91 41.9613 141.17 42.1908 140.416 42.1677C140.234 42.1761 140.051 42.1681 139.87 42.1437C139.782 42.1037 139.734 41.9717 139.734 41.7438C139.73 41.5684 139.715 41.3933 139.689 41.2199C139.666 41.0474 139.653 40.8739 139.649 40.7C139.649 40.632 139.697 40.588 139.79 40.564C139.888 40.5477 139.989 40.5477 140.087 40.564L140.328 40.588C141.332 40.588 141.839 40.28 141.839 39.6682C141.839 39.3775 141.618 39.1109 141.176 38.8683C140.749 38.6505 140.334 38.4088 139.934 38.1444C139.719 37.9636 139.547 37.7365 139.433 37.4802C139.318 37.224 139.263 36.9452 139.272 36.6647C139.256 36.304 139.33 35.945 139.488 35.6198C139.646 35.2946 139.882 35.0133 140.175 34.8011C140.776 34.3847 141.497 34.1728 142.228 34.1972C142.263 34.1954 142.298 34.2045 142.327 34.2231C142.357 34.2417 142.38 34.269 142.393 34.3012C142.474 34.5113 142.541 34.7264 142.594 34.9451C142.66 35.158 142.708 35.3761 142.739 35.5969C142.739 35.6569 142.69 35.6929 142.59 35.7089L141.557 35.8449C141.156 35.9569 140.943 36.1768 140.943 36.5128C140.943 36.7487 141.16 36.9927 141.59 37.2366C142.015 37.4545 142.419 37.713 142.795 38.0085C143.016 38.2128 143.19 38.4621 143.306 38.7395C143.422 39.017 143.476 39.3159 143.466 39.6162Z" fill="white"/>
<path d="M157.364 41.9885C157.364 42.0285 157.323 42.0485 157.239 42.0485C157.155 42.0485 156.982 42.0485 156.773 42.0245C156.564 42.0005 156.411 42.0245 156.311 42.0245C156.211 42.0245 156.03 42.0245 155.809 42.0245C155.588 42.0245 155.407 42.0485 155.311 42.0485C155.249 42.0482 155.19 42.0293 155.139 41.9943C155.089 41.9593 155.051 41.9098 155.029 41.8525C154.861 41.4926 154.375 40.3728 153.575 38.5012C153.519 38.3957 153.435 38.3075 153.333 38.2461C153.23 38.1848 153.112 38.1527 152.993 38.1532C152.924 38.1532 152.679 38.1532 152.266 38.1532C151.829 38.142 151.392 38.1527 150.956 38.1852C150.843 38.1852 150.787 38.3332 150.787 38.5852C150.787 38.9571 150.787 39.513 150.839 40.2528C150.892 40.9927 150.892 41.5446 150.892 41.9125C150.892 42.0245 150.839 42.0765 150.731 42.0765C150.57 42.0728 150.409 42.0608 150.249 42.0405C150.085 42.021 149.92 42.0104 149.755 42.0085C149.666 42.0085 149.526 42.0085 149.353 42.0085C149.18 42.0085 149.028 42.0325 148.951 42.0325C148.875 42.0325 148.754 41.9725 148.754 41.8525C148.754 41.2606 148.782 40.3755 148.839 39.197C148.895 38.0186 148.922 37.1348 148.919 36.5456C148.919 34.8712 148.859 33.0836 148.738 31.1826V31.0546C148.738 30.9466 148.843 30.8946 149.072 30.8946C149.53 30.8946 150.217 30.8826 151.133 30.8586C152.049 30.8346 152.732 30.8227 153.181 30.8227C154.198 30.7734 155.202 31.071 156.026 31.6665C156.42 31.9821 156.732 32.3864 156.938 32.846C157.145 33.3056 157.238 33.8074 157.211 34.31C157.238 34.943 157.128 35.5744 156.889 36.1616C156.6 36.7146 156.171 37.1832 155.644 37.5214C155.54 37.5934 155.491 37.6573 155.491 37.7213C155.773 38.4424 156.093 39.1485 156.448 39.8369C156.793 40.5365 157.099 41.2548 157.364 41.9885ZM155.174 34.7699C155.174 33.8101 154.897 33.1689 154.342 32.8463C153.933 32.6063 153.195 32.4863 152.129 32.4863C151.265 32.4863 150.827 32.5543 150.811 32.6943C150.775 32.9782 150.755 33.7461 150.755 34.9939V36.5136C150.789 36.5276 150.824 36.5384 150.859 36.5456L151.329 36.5855C151.836 36.6095 152.382 36.6255 152.969 36.6255C154.439 36.6255 155.174 36.007 155.174 34.7699Z" fill="white"/>
<path d="M165.203 37.7771C165.22 37.948 165.179 38.1197 165.087 38.2647C164.994 38.4097 164.856 38.5197 164.693 38.577C164.465 38.6596 162.816 38.8156 159.744 39.0449C159.784 39.287 159.873 39.5183 160.006 39.7247C160.14 39.931 160.314 40.108 160.519 40.2446C160.92 40.5435 161.408 40.7024 161.909 40.6966C162.751 40.7014 163.569 40.4191 164.227 39.8967L164.484 39.6927C164.512 39.6842 164.541 39.6842 164.568 39.6927C164.568 39.6927 164.681 39.8847 164.866 40.2446C164.965 40.4288 165.051 40.6199 165.123 40.8165C165.123 40.8485 165.079 40.9085 164.994 41.0005C164.609 41.4085 164.142 41.7302 163.622 41.944C163.103 42.1578 162.543 42.2588 161.981 42.2403C161.438 42.2789 160.894 42.2009 160.384 42.0116C159.874 41.8223 159.411 41.526 159.026 41.143C158.641 40.7599 158.344 40.2989 158.153 39.7913C157.963 39.2838 157.885 38.7414 157.924 38.201C157.906 37.1509 158.281 36.1318 158.976 35.3416C159.307 34.9414 159.724 34.6201 160.196 34.4014C160.668 34.1827 161.183 34.0721 161.704 34.0778C162.177 34.0682 162.646 34.1613 163.079 34.3505C163.512 34.5397 163.898 34.8206 164.211 35.1736C164.869 35.8799 165.225 36.8138 165.203 37.7771ZM163.299 37.2932C163.298 37.0726 163.251 36.8546 163.161 36.653C163.071 36.4513 162.94 36.2703 162.777 36.1214C162.624 35.9632 162.442 35.8371 162.24 35.7506C162.037 35.664 161.82 35.6188 161.6 35.6175C161.355 35.6207 161.113 35.6742 160.89 35.7746C160.666 35.8751 160.466 36.0204 160.302 36.2014C160.124 36.3729 159.982 36.5778 159.884 36.8044C159.786 37.0309 159.734 37.2746 159.732 37.5212C159.732 37.6331 159.828 37.6891 160.021 37.6891C160.962 37.6749 161.902 37.5961 162.833 37.4532C163.146 37.4092 163.299 37.3572 163.299 37.2932Z" fill="white"/>
<path d="M174.001 30.9502C174.001 31.6354 173.972 32.6605 173.913 34.0256C173.849 35.3933 173.821 36.4251 173.821 37.093C173.821 39.1886 173.866 40.775 173.957 41.8521V41.9561C173.957 42.0081 173.893 42.0401 173.744 42.0561C173.6 42.0683 173.455 42.0683 173.31 42.0561L173.001 42.0321C172.921 42.0321 172.804 42.0321 172.648 42.0561C172.491 42.0801 172.378 42.0801 172.298 42.0801C172.218 42.0801 172.178 41.8961 172.166 41.5282C172.179 41.3395 172.158 41.1499 172.105 40.9683C172.06 40.9962 172.019 41.0313 171.985 41.0723C171.674 41.4364 171.288 41.7298 170.854 41.9327C170.419 42.1356 169.946 42.2431 169.466 42.248C168.959 42.2594 168.457 42.1549 167.997 41.9428C167.538 41.7306 167.133 41.4164 166.814 41.0243C166.153 40.2428 165.802 39.2465 165.83 38.2248C165.798 37.1852 166.151 36.1701 166.822 35.3733C167.153 34.9828 167.569 34.672 168.038 34.4642C168.507 34.2564 169.017 34.157 169.53 34.1736C170.167 34.1621 170.789 34.3697 171.29 34.7615C171.519 34.9574 171.744 35.1614 171.969 35.3573C172.013 35.3573 172.033 35.3054 172.033 35.2454V32.6779C172.033 32.5019 172.033 32.2379 172.009 31.878C171.985 31.5181 171.985 31.2541 171.985 31.0782C171.985 30.9022 172.029 30.8862 172.113 30.8862C172.31 30.8862 172.603 30.8862 172.993 30.8342C173.383 30.7822 173.672 30.7822 173.865 30.7822C173.956 30.7822 174.001 30.8382 174.001 30.9502ZM171.993 38.1928C172.003 37.5808 171.793 36.9854 171.402 36.5131C171.22 36.2716 170.983 36.0761 170.711 35.942C170.439 35.808 170.139 35.7392 169.835 35.7413C169.527 35.737 169.221 35.8038 168.942 35.9362C168.664 36.0687 168.419 36.2634 168.229 36.5051C167.822 36.985 167.606 37.597 167.622 38.2248C167.611 38.8379 167.837 39.4318 168.253 39.8845C168.445 40.1233 168.69 40.3149 168.969 40.4446C169.247 40.5742 169.552 40.6385 169.86 40.6323C170.164 40.6372 170.466 40.5714 170.741 40.4402C171.015 40.309 171.256 40.116 171.442 39.8765C171.822 39.3983 172.022 38.8023 172.005 38.1928H171.993Z" fill="white"/>
<path d="M182.199 37.777C182.215 37.9484 182.174 38.1205 182.081 38.2656C181.987 38.4106 181.848 38.5203 181.684 38.5769C181.454 38.6595 179.806 38.8155 176.739 39.0448C176.778 39.2872 176.867 39.5189 177.001 39.7254C177.134 39.9319 177.309 40.1086 177.514 40.2445C177.909 40.5458 178.391 40.7102 178.888 40.7124C179.73 40.7173 180.548 40.435 181.206 39.9126L181.463 39.7086C181.491 39.7005 181.52 39.7005 181.548 39.7086C181.548 39.7086 181.66 39.9006 181.845 40.2605C181.951 40.4463 182.045 40.6387 182.126 40.8364C182.126 40.8684 182.082 40.9284 181.998 41.0204C181.613 41.4284 181.145 41.7501 180.626 41.9639C180.106 42.1777 179.547 42.2787 178.985 42.2602C178.442 42.2981 177.897 42.2196 177.387 42.0301C176.878 41.8405 176.415 41.5443 176.03 41.1615C175.645 40.7786 175.347 40.318 175.156 39.8108C174.965 39.3035 174.886 38.7613 174.923 38.2209C174.902 37.1673 175.276 36.1436 175.972 35.3495C176.302 34.9493 176.718 34.6281 177.189 34.4093C177.661 34.1906 178.175 34.08 178.695 34.0857C179.169 34.0755 179.639 34.1683 180.072 34.3575C180.506 34.5468 180.893 34.828 181.206 35.1815C181.863 35.8858 182.218 36.8165 182.199 37.777ZM180.294 37.2931C180.293 37.0725 180.246 36.8545 180.156 36.6529C180.066 36.4512 179.936 36.2702 179.772 36.1213C179.619 35.9628 179.436 35.8366 179.233 35.75C179.03 35.6634 178.812 35.6183 178.591 35.6174C178.344 35.6195 178.101 35.6729 177.876 35.7741C177.651 35.8753 177.45 36.0222 177.285 36.2053C177.107 36.3762 176.964 36.5811 176.866 36.8077C176.768 37.0344 176.717 37.2783 176.715 37.5251C176.715 37.637 176.811 37.693 177 37.693C177.949 37.6797 178.895 37.6009 179.832 37.4571C180.142 37.4091 180.294 37.3571 180.294 37.2931Z" fill="white"/>
<path d="M187.442 31.8503C187.442 31.9143 187.394 31.9503 187.297 31.9623L186.522 32.0342C186.26 32.0556 186.014 32.1674 185.827 32.3502C185.559 32.6355 185.425 33.3487 185.425 34.4898H186.257C186.638 34.4898 186.919 34.4898 187.112 34.4898C187.241 34.4898 187.305 34.5378 187.305 34.6337C187.305 34.7817 187.305 35.0057 187.305 35.2976C187.305 35.5896 187.305 35.8135 187.305 35.9535C187.305 36.0935 187.253 36.1055 187.144 36.1055C186.96 36.1055 186.674 36.1055 186.297 36.0775C185.919 36.0495 185.638 36.0495 185.457 36.0495V38.449C185.457 38.8209 185.457 39.3848 185.497 40.1367C185.538 40.8885 185.538 41.4524 185.538 41.8244C185.538 41.9683 185.485 42.0363 185.377 42.0363H183.915C183.778 42.0363 183.71 41.9563 183.71 41.7924V36.3294C183.71 36.1854 183.545 36.1175 183.22 36.1215C183.033 36.1472 182.842 36.1336 182.661 36.0815C182.635 35.9865 182.627 35.8875 182.637 35.7895C182.637 35.6735 182.637 35.4976 182.637 35.2656C182.637 35.0337 182.637 34.8657 182.637 34.7457C182.637 34.6257 182.974 34.5618 183.653 34.5218C183.637 34.1858 183.629 33.9099 183.629 33.6939C183.572 32.9655 183.751 32.2381 184.139 31.6183C184.481 31.195 184.935 30.875 185.449 30.6945C185.961 30.4959 186.506 30.3942 187.056 30.3946C187.082 30.394 187.108 30.4024 187.128 30.4185C187.149 30.4345 187.163 30.4572 187.169 30.4825C187.169 30.4825 187.221 30.7145 187.309 31.1544C187.398 31.5943 187.442 31.8343 187.442 31.8503Z" fill="white"/>
<path d="M190.206 32.5342C190.206 33.186 189.84 33.514 189.113 33.514C188.386 33.514 188 33.186 188 32.5342C187.998 32.3952 188.028 32.2577 188.088 32.1322C188.148 32.0067 188.236 31.8966 188.346 31.8103C188.559 31.6291 188.832 31.5323 189.113 31.5384C189.396 31.5343 189.67 31.6339 189.884 31.8183C189.988 31.9061 190.071 32.016 190.127 32.1399C190.182 32.2638 190.209 32.3985 190.206 32.5342ZM190.149 34.6897C190.149 35.0897 190.125 35.7135 190.073 36.5414C190.021 37.3692 189.997 37.9851 189.997 38.397C189.997 38.809 189.997 39.3649 190.021 40.1367C190.045 40.9086 190.045 41.4844 190.045 41.8684C190.045 41.9803 189.997 42.0323 189.904 42.0323H188.346C188.233 42.0323 188.177 41.9244 188.177 41.7084C188.177 41.3405 188.177 40.7926 188.205 40.0567C188.233 39.3209 188.233 38.769 188.233 38.397C188.233 38.0251 188.201 37.3652 188.141 36.5374C188.08 35.7096 188.048 35.0897 188.048 34.6737C188.048 34.5858 188.105 34.5378 188.217 34.5378C188.365 34.5436 188.512 34.557 188.659 34.5778C188.958 34.6311 189.264 34.6311 189.563 34.5778C189.712 34.5567 189.862 34.5434 190.013 34.5378C190.105 34.5378 190.149 34.5898 190.149 34.6897Z" fill="white"/>
<path d="M198.774 41.8917C198.774 42.0077 198.722 42.0637 198.613 42.0637C198.437 42.0637 198.175 42.0637 197.81 42.0637H197.006C196.91 42.0637 196.862 41.9877 196.862 41.8357C196.862 41.5691 196.87 41.1692 196.886 40.6359C196.886 40.108 196.91 39.7081 196.91 39.4362C196.91 39.1642 196.91 38.9083 196.91 38.4844C196.91 38.0604 196.91 37.7445 196.91 37.5325C196.947 37.0899 196.856 36.6461 196.649 36.2528C196.502 36.0891 196.317 35.9632 196.111 35.8859C195.905 35.8085 195.683 35.7821 195.464 35.8089C195.062 35.8596 194.68 36.0125 194.355 36.2528C193.853 36.5647 193.604 36.8447 193.604 37.0886V41.8637C193.604 41.9957 193.552 42.0597 193.451 42.0597C193.278 42.0597 193.025 42.0597 192.684 42.0597H191.916C191.804 42.0597 191.748 41.9997 191.748 41.8797C191.748 41.4798 191.748 40.8319 191.768 39.9921C191.788 39.1522 191.788 38.5243 191.788 38.1004C191.796 37.0474 191.676 35.9973 191.43 34.973C191.418 34.9396 191.41 34.9046 191.406 34.869C191.406 34.8171 191.438 34.7771 191.507 34.7571L192.423 34.6091C192.997 34.5171 193.294 34.4691 193.323 34.4691C193.351 34.4691 193.375 34.5131 193.387 34.5971C193.416 34.9342 193.478 35.2677 193.572 35.5929C193.849 35.3769 194.214 35.105 194.664 34.7931C195.143 34.4802 195.699 34.3045 196.271 34.2852C197.272 34.2852 197.959 34.5731 198.324 35.153C198.642 35.7908 198.781 36.5025 198.726 37.2126C198.726 37.3752 198.726 37.6272 198.726 37.9684C198.726 38.3084 198.726 38.5603 198.726 38.7323C198.726 39.0882 198.726 39.6161 198.726 40.332C198.726 41.0479 198.774 41.5358 198.774 41.8917Z" fill="white"/>
<path d="M207.062 37.7767C207.079 37.9476 207.038 38.1193 206.946 38.2643C206.853 38.4093 206.715 38.5192 206.552 38.5765C206.322 38.6591 204.672 38.8151 201.603 39.0444C201.643 39.2865 201.732 39.5179 201.866 39.7242C201.999 39.9306 202.173 40.1075 202.378 40.2442C202.772 40.5454 203.255 40.7098 203.752 40.7121C204.594 40.7169 205.412 40.4347 206.07 39.9122L206.327 39.7083C206.371 39.7083 206.399 39.7083 206.412 39.7083C206.424 39.7083 206.524 39.9002 206.709 40.2602C206.817 40.4449 206.911 40.6374 206.99 40.8361C206.99 40.8681 206.946 40.928 206.861 41.02C206.477 41.4281 206.009 41.7497 205.489 41.9635C204.97 42.1773 204.41 42.2783 203.848 42.2598C203.306 42.2984 202.761 42.2205 202.251 42.0311C201.741 41.8418 201.278 41.5456 200.893 41.1625C200.508 40.7794 200.211 40.3185 200.021 39.8109C199.83 39.3033 199.752 38.7609 199.791 38.2206C199.773 37.1705 200.149 36.1514 200.843 35.3611C201.174 34.9609 201.591 34.6396 202.063 34.4209C202.535 34.2022 203.051 34.0916 203.571 34.0974C204.044 34.0877 204.513 34.1808 204.946 34.37C205.379 34.5593 205.765 34.8402 206.078 35.1931C206.729 35.8957 207.081 36.8213 207.062 37.7767ZM205.162 37.2927C205.16 37.0718 205.113 36.8537 205.022 36.652C204.932 36.4503 204.8 36.2695 204.636 36.121C204.484 35.9628 204.301 35.8367 204.099 35.7501C203.896 35.6635 203.679 35.6183 203.459 35.6171C203.212 35.6186 202.968 35.6718 202.743 35.7731C202.518 35.8743 202.317 36.0215 202.153 36.205C201.974 36.3758 201.831 36.5805 201.732 36.8072C201.634 37.0338 201.581 37.2777 201.579 37.5247C201.579 37.6367 201.675 37.6927 201.868 37.6927C202.81 37.6785 203.749 37.5996 204.68 37.4567C205.005 37.4087 205.162 37.3567 205.162 37.2927Z" fill="white"/>
<path d="M215.861 30.9502C215.861 31.6354 215.831 32.6605 215.773 34.0256C215.708 35.3933 215.68 36.4251 215.68 37.093C215.68 39.1886 215.726 40.775 215.817 41.8521V41.9561C215.817 42.0081 215.748 42.0401 215.6 42.0561C215.455 42.0683 215.31 42.0683 215.166 42.0561L214.857 42.0321C214.776 42.0321 214.66 42.0321 214.503 42.0561C214.346 42.0801 214.234 42.0801 214.154 42.0801C214.073 42.0801 214.033 41.8961 214.021 41.5282C214.037 41.3394 214.016 41.1495 213.961 40.9683C213.915 40.9962 213.874 41.0313 213.84 41.0723C213.52 41.4451 213.122 41.7437 212.673 41.9469C212.224 42.1501 211.737 42.253 211.244 42.2484C210.751 42.2439 210.265 42.1319 209.821 41.9204C209.376 41.7089 208.983 41.403 208.67 41.0243C208.008 40.2428 207.658 39.2465 207.686 38.2248C207.653 37.1852 208.006 36.1701 208.678 35.3733C209.009 34.9828 209.425 34.672 209.893 34.4642C210.362 34.2564 210.873 34.157 211.386 34.1736C212.023 34.1621 212.644 34.3697 213.145 34.7615C213.374 34.9574 213.599 35.1614 213.824 35.3573C213.868 35.3573 213.888 35.3054 213.888 35.2454V32.6779C213.888 32.5019 213.888 32.2379 213.864 31.878C213.84 31.5181 213.84 31.2541 213.84 31.0782C213.84 30.9022 213.884 30.8862 213.969 30.8862C214.166 30.8862 214.459 30.8862 214.849 30.8342C215.238 30.7822 215.528 30.7822 215.72 30.7822C215.814 30.7822 215.861 30.8382 215.861 30.9502ZM213.852 38.1928C213.862 37.5808 213.653 36.9854 213.262 36.5131C213.079 36.2716 212.842 36.0761 212.57 35.942C212.298 35.808 211.999 35.7392 211.695 35.7413C211.386 35.737 211.081 35.8038 210.802 35.9362C210.523 36.0687 210.279 36.2634 210.088 36.5051C209.681 36.985 209.465 37.597 209.481 38.2248C209.471 38.8379 209.697 39.4318 210.112 39.8845C210.305 40.1233 210.55 40.3149 210.828 40.4446C211.107 40.5742 211.412 40.6385 211.719 40.6323C212.024 40.6372 212.325 40.5714 212.6 40.4402C212.875 40.309 213.115 40.116 213.302 39.8765C213.682 39.3983 213.881 38.8023 213.864 38.1928H213.852Z" fill="white"/>
</svg>
